0, 0, Header, 0, 1, 480
1, 0, Start_track
1, 0, Title_t, "CH #1"
1, 0, Instrument_name_t, "Flute"
1, 0, Time_signature, 1, 2, 24, 8
1, 0, Key_signature, 0, "major"
1, 0, SMPTE_offset, 32, 0, 0, 0, 0
1, 0, Tempo, 250000
1, 480, Time_signature, 3, 2, 24, 8
1, 480, Key_signature, -2, "major"
1, 480, Tempo, 576923
1, 6000, Tempo, 681818
1, 6240, Tempo, 348837
1, 6300, Tempo, 361445
1, 6360, Tempo, 368098
1, 6420, Tempo, 377358
1, 6480, Tempo, 394736
1, 6540, Tempo, 413793
1, 6600, Tempo, 425531
1, 6660, Tempo, 487804
1, 6720, Tempo, 571429
1, 7680, Tempo, 779221
1, 10080, Tempo, 697674
1, 10560, Time_signature, 2, 2, 24, 8
1, 11520, Time_signature, 3, 2, 24, 8
1, 33000, Tempo, 666667
1, 33120, Tempo, 857143
1, 34440, Tempo, 666667
1, 34560, Tempo, 769231
1, 37440, Tempo, 333333
1, 37440, Control_c, 0, 7, 100
1, 37440, Control_c, 0, 10, 64
1, 37440, Control_c, 0, 11, 91
1, 41760, Control_c, 0, 11, 90
1, 41760, Note_on_c, 0, 62, 127
1, 42240, Note_on_c, 0, 62, 0
1, 42240, Note_on_c, 0, 67, 127
1, 42720, Note_on_c, 0, 67, 0
1, 42720, Note_on_c, 0, 70, 127
1, 43200, Note_on_c, 0, 70, 0
1, 43200, Note_on_c, 0, 74, 127
1, 44160, Note_on_c, 0, 74, 0
1, 44160, Note_on_c, 0, 74, 127
1, 44640, Note_on_c, 0, 72, 127
1, 44640, Note_on_c, 0, 74, 0
1, 44820, Control_c, 0, 11, 89
1, 45120, Note_on_c, 0, 70, 127
1, 45120, Note_on_c, 0, 72, 0
1, 45600, Note_on_c, 0, 69, 127
1, 45600, Note_on_c, 0, 70, 0
1, 46080, Note_on_c, 0, 69, 0
1, 46080, Note_on_c, 0, 70, 127
1, 47520, Note_on_c, 0, 67, 127
1, 47520, Note_on_c, 0, 70, 0
1, 47880, Control_c, 0, 11, 88
1, 48000, Note_on_c, 0, 67, 0
1, 48000, Note_on_c, 0, 70, 127
1, 48480, Note_on_c, 0, 70, 0
1, 48480, Note_on_c, 0, 74, 127
1, 48960, Note_on_c, 0, 74, 0
1, 48960, Note_on_c, 0, 79, 127
1, 49920, Note_on_c, 0, 79, 0
1, 49920, Note_on_c, 0, 79, 127
1, 50400, Note_on_c, 0, 79, 0
1, 50400, Note_on_c, 0, 79, 127
1, 50880, Note_on_c, 0, 77, 127
1, 50880, Note_on_c, 0, 79, 0
1, 50940, Control_c, 0, 11, 87
1, 51360, Note_on_c, 0, 75, 127
1, 51360, Note_on_c, 0, 77, 0
1, 51840, Note_on_c, 0, 75, 0
1, 51840, Note_on_c, 0, 77, 127
1, 53280, Note_on_c, 0, 69, 127
1, 53280, Note_on_c, 0, 77, 0
1, 53760, Note_on_c, 0, 69, 0
1, 53760, Note_on_c, 0, 74, 127
1, 54000, Control_c, 0, 11, 86
1, 54240, Note_on_c, 0, 74, 0
1, 54240, Note_on_c, 0, 77, 127
1, 54720, Note_on_c, 0, 77, 0
1, 54720, Note_on_c, 0, 81, 127
1, 55680, Note_on_c, 0, 79, 127
1, 55680, Note_on_c, 0, 81, 0
1, 56160, Note_on_c, 0, 77, 127
1, 56160, Note_on_c, 0, 79, 0
1, 56640, Note_on_c, 0, 76, 127
1, 56640, Note_on_c, 0, 77, 0
1, 57060, Control_c, 0, 11, 85
1, 57120, Note_on_c, 0, 76, 0
1, 57120, Note_on_c, 0, 77, 127
1, 57600, Note_on_c, 0, 77, 0
1, 57600, Note_on_c, 0, 79, 127
1, 58560, Note_on_c, 0, 77, 127
1, 58560, Note_on_c, 0, 79, 0
1, 59040, Note_on_c, 0, 76, 127
1, 59040, Note_on_c, 0, 77, 0
1, 60000, Note_on_c, 0, 74, 127
1, 60000, Note_on_c, 0, 76, 0
1, 60120, Control_c, 0, 11, 84
1, 60480, Note_on_c, 0, 72, 127
1, 60480, Note_on_c, 0, 74, 0
1, 60960, Note_on_c, 0, 70, 127
1, 60960, Note_on_c, 0, 72, 0
1, 61440, Note_on_c, 0, 70, 0
1, 61440, Note_on_c, 0, 72, 127
1, 61920, Note_on_c, 0, 72, 0
1, 61920, Note_on_c, 0, 74, 127
1, 62400, Note_on_c, 0, 72, 127
1, 62400, Note_on_c, 0, 74, 0
1, 62880, Note_on_c, 0, 67, 127
1, 62880, Note_on_c, 0, 72, 0
1, 63180, Control_c, 0, 11, 83
1, 63360, Note_on_c, 0, 67, 0
1, 63360, Note_on_c, 0, 69, 127
1, 64800, Note_on_c, 0, 62, 127
1, 64800, Note_on_c, 0, 69, 0
1, 65280, Note_on_c, 0, 62, 0
1, 65280, Note_on_c, 0, 67, 127
1, 65760, Note_on_c, 0, 67, 0
1, 65760, Note_on_c, 0, 70, 127
1, 66240, Control_c, 0, 11, 82
1, 66240, Note_on_c, 0, 70, 0
1, 66240, Note_on_c, 0, 74, 127
1, 67200, Note_on_c, 0, 74, 0
1, 67200, Note_on_c, 0, 74, 127
1, 67680, Note_on_c, 0, 72, 127
1, 67680, Note_on_c, 0, 74, 0
1, 68160, Note_on_c, 0, 70, 127
1, 68160, Note_on_c, 0, 72, 0
1, 68640, Note_on_c, 0, 69, 127
1, 68640, Note_on_c, 0, 70, 0
1, 69120, Note_on_c, 0, 69, 0
1, 69120, Note_on_c, 0, 70, 127
1, 69300, Control_c, 0, 11, 81
1, 70560, Note_on_c, 0, 67, 127
1, 70560, Note_on_c, 0, 70, 0
1, 71040, Note_on_c, 0, 67, 0
1, 71040, Note_on_c, 0, 70, 127
1, 71520, Note_on_c, 0, 70, 0
1, 71520, Note_on_c, 0, 74, 127
1, 72000, Note_on_c, 0, 74, 0
1, 72000, Note_on_c, 0, 79, 127
1, 72360, Control_c, 0, 11, 80
1, 72960, Note_on_c, 0, 79, 0
1, 72960, Note_on_c, 0, 79, 127
1, 73440, Note_on_c, 0, 79, 0
1, 73440, Note_on_c, 0, 79, 127
1, 73920, Note_on_c, 0, 77, 127
1, 73920, Note_on_c, 0, 79, 0
1, 74400, Note_on_c, 0, 75, 127
1, 74400, Note_on_c, 0, 77, 0
1, 74880, Note_on_c, 0, 75, 0
1, 74880, Note_on_c, 0, 77, 127
1, 75420, Control_c, 0, 11, 79
1, 76320, Note_on_c, 0, 69, 127
1, 76320, Note_on_c, 0, 77, 0
1, 76800, Note_on_c, 0, 69, 0
1, 76800, Note_on_c, 0, 74, 127
1, 77280, Note_on_c, 0, 74, 0
1, 77280, Note_on_c, 0, 77, 127
1, 77760, Note_on_c, 0, 77, 0
1, 77760, Note_on_c, 0, 81, 127
1, 78480, Control_c, 0, 11, 78
1, 78720, Note_on_c, 0, 79, 127
1, 78720, Note_on_c, 0, 81, 0
1, 79680, Note_on_c, 0, 77, 127
1, 79680, Note_on_c, 0, 79, 0
1, 79920, Note_on_c, 0, 76, 127
1, 79920, Note_on_c, 0, 77, 0
1, 80160, Note_on_c, 0, 75, 127
1, 80160, Note_on_c, 0, 76, 0
1, 80400, Note_on_c, 0, 75, 0
1, 80400, Note_on_c, 0, 76, 127
1, 80640, Note_on_c, 0, 76, 0
1, 80640, Note_on_c, 0, 79, 127
1, 81540, Control_c, 0, 11, 77
1, 81600, Note_on_c, 0, 77, 127
1, 81600, Note_on_c, 0, 79, 0
1, 82560, Note_on_c, 0, 76, 127
1, 82560, Note_on_c, 0, 77, 0
1, 82800, Note_on_c, 0, 74, 127
1, 82800, Note_on_c, 0, 76, 0
1, 83040, Note_on_c, 0, 73, 127
1, 83040, Note_on_c, 0, 74, 0
1, 83280, Note_on_c, 0, 73, 0
1, 83280, Note_on_c, 0, 74, 127
1, 83520, Note_on_c, 0, 74, 0
1, 83520, Note_on_c, 0, 74, 127
1, 84240, Note_on_c, 0, 72, 127
1, 84240, Note_on_c, 0, 74, 0
1, 84480, Note_on_c, 0, 70, 127
1, 84480, Note_on_c, 0, 72, 0
1, 84600, Control_c, 0, 11, 76
1, 84960, Note_on_c, 0, 69, 127
1, 84960, Note_on_c, 0, 70, 0
1, 85680, Note_on_c, 0, 69, 0
1, 85680, Note_on_c, 0, 71, 127
1, 85920, Note_on_c, 0, 71, 0
1, 85920, Note_on_c, 0, 73, 127
1, 86400, Note_on_c, 0, 73, 0
1, 86400, Note_on_c, 0, 74, 127
1, 87660, Control_c, 0, 11, 75
1, 89280, Note_on_c, 0, 74, 0
1, 90720, Control_c, 0, 7, 100
1, 90720, Control_c, 0, 10, 64
1, 90720, Control_c, 0, 11, 74
1, 190080, Tempo, 983607
1, 191520, Key_signature, 0, "major"
1, 191520, Tempo, 333333
1, 220320, Tempo, 600000
1, 224040, Tempo, 566038
1, 224100, Tempo, 517241
1, 224160, Tempo, 483870
1, 224220, Tempo, 444444
1, 224280, Tempo, 419580
1, 224340, Tempo, 394736
1, 224400, Tempo, 370370
1, 224460, Tempo, 350877
1, 224520, Tempo, 340909
1, 224580, Tempo, 337078
1, 224640, Tempo, 331491
1, 232080, Tempo, 500000
1, 233880, Tempo, 1016949
1, 234720, Tempo, 500000
1, 235200, Tempo, 2000000
1, 235200, End_track
0, 0, End_of_file