0, 0, Header, 1, 6, 480
1, 0, Start_track
1, 0, Time_signature, 1, 2, 24, 8
1, 0, Key_signature, 0, "major"
1, 0, SMPTE_offset, 32, 0, 0, 0, 0
1, 0, Tempo, 250000
1, 480, Time_signature, 3, 2, 24, 8
1, 480, Key_signature, -2, "major"
1, 480, Tempo, 576923
1, 6000, Tempo, 681818
1, 6240, Tempo, 348837
1, 6300, Tempo, 361445
1, 6360, Tempo, 368098
1, 6420, Tempo, 377358
1, 6480, Tempo, 394736
1, 6540, Tempo, 413793
1, 6600, Tempo, 425531
1, 6660, Tempo, 487804
1, 6720, Tempo, 571429
1, 7680, Tempo, 779221
1, 10080, Tempo, 697674
1, 10560, Time_signature, 2, 2, 24, 8
1, 11520, Time_signature, 3, 2, 24, 8
1, 33000, Tempo, 666667
1, 33120, Tempo, 857143
1, 34440, Tempo, 666667
1, 34560, Tempo, 769231
1, 37440, Tempo, 333333
1, 190080, Tempo, 983607
1, 191520, Key_signature, 0, "major"
1, 191520, Tempo, 333333
1, 220320, Tempo, 600000
1, 224040, Tempo, 566038
1, 224100, Tempo, 517241
1, 224160, Tempo, 483870
1, 224220, Tempo, 444444
1, 224280, Tempo, 419580
1, 224340, Tempo, 394736
1, 224400, Tempo, 370370
1, 224460, Tempo, 350877
1, 224520, Tempo, 340909
1, 224580, Tempo, 337078
1, 224640, Tempo, 331491
1, 232080, Tempo, 500000
1, 233880, Tempo, 1016949
1, 234720, Tempo, 500000
1, 235200, Tempo, 2000000
1, 235200, End_track
2, 0, Start_track
2, 0, Title_t, "CH #2"
2, 0, Instrument_name_t, "Flute"
2, 10080, Control_c, 1, 11, 80
2, 10080, Note_on_c, 1, 62, 127
2, 10080, Control_c, 1, 7, 100
2, 10080, Control_c, 1, 10, 64
2, 10080, Control_c, 1, 11, 80
2, 10560, Note_on_c, 1, 62, 0
2, 10560, Note_on_c, 1, 67, 127
2, 11040, Note_on_c, 1, 67, 0
2, 11040, Note_on_c, 1, 70, 127
2, 11520, Note_on_c, 1, 70, 0
2, 11520, Note_on_c, 1, 74, 127
2, 12480, Note_on_c, 1, 74, 0
2, 12480, Note_on_c, 1, 74, 127
2, 12960, Note_on_c, 1, 72, 127
2, 12960, Note_on_c, 1, 74, 0
2, 13440, Note_on_c, 1, 70, 127
2, 13440, Note_on_c, 1, 72, 0
2, 13920, Note_on_c, 1, 69, 127
2, 13920, Note_on_c, 1, 70, 0
2, 14400, Note_on_c, 1, 69, 0
2, 14400, Note_on_c, 1, 70, 127
2, 15840, Note_on_c, 1, 70, 0
2, 16560, Note_on_c, 1, 67, 127
2, 16800, Note_on_c, 1, 67, 0
2, 16800, Note_on_c, 1, 70, 127
2, 17040, Note_on_c, 1, 70, 0
2, 17040, Note_on_c, 1, 74, 127
2, 17280, Note_on_c, 1, 74, 0
2, 17280, Note_on_c, 1, 79, 127
2, 18240, Note_on_c, 1, 79, 0
2, 18240, Note_on_c, 1, 79, 127
2, 18720, Note_on_c, 1, 79, 0
2, 18720, Note_on_c, 1, 79, 127
2, 19200, Note_on_c, 1, 79, 0
2, 19200, Note_on_c, 1, 81, 127
2, 19680, Note_on_c, 1, 77, 127
2, 19680, Note_on_c, 1, 81, 0
2, 19872, Control_c, 1, 11, 81
2, 19920, Note_on_c, 1, 75, 127
2, 19920, Note_on_c, 1, 77, 0
2, 20160, Note_on_c, 1, 75, 0
2, 20160, Note_on_c, 1, 77, 127
2, 21600, Note_on_c, 1, 77, 0
2, 22320, Note_on_c, 1, 69, 127
2, 22560, Note_on_c, 1, 69, 0
2, 22560, Note_on_c, 1, 74, 127
2, 22800, Note_on_c, 1, 74, 0
2, 22800, Note_on_c, 1, 77, 127
2, 23040, Note_on_c, 1, 77, 0
2, 23040, Note_on_c, 1, 81, 127
2, 24000, Note_on_c, 1, 79, 127
2, 24000, Note_on_c, 1, 81, 0
2, 24480, Note_on_c, 1, 77, 127
2, 24480, Note_on_c, 1, 79, 0
2, 24767, Control_c, 1, 11, 82
2, 24960, Note_on_c, 1, 76, 127
2, 24960, Note_on_c, 1, 77, 0
2, 25440, Note_on_c, 1, 76, 0
2, 25440, Note_on_c, 1, 77, 127
2, 25920, Note_on_c, 0, 79, 64
2, 25920, Note_on_c, 1, 77, 0
2, 26876, Note_off_c, 0, 79, 0
2, 26880, Note_on_c, 1, 77, 127
2, 27360, Note_on_c, 1, 76, 127
2, 27360, Note_on_c, 1, 77, 0
2, 28320, Note_on_c, 1, 74, 127
2, 28320, Note_on_c, 1, 76, 0
2, 28800, Note_on_c, 0, 72, 64
2, 28800, Note_on_c, 1, 74, 0
2, 29276, Note_off_c, 0, 72, 0
2, 29280, Note_on_c, 1, 70, 127
2, 29663, Control_c, 1, 11, 83
2, 29760, Note_on_c, 1, 70, 0
2, 29760, Note_on_c, 1, 72, 127
2, 30240, Note_on_c, 0, 74, 64
2, 30240, Note_on_c, 1, 72, 0
2, 30716, Note_off_c, 0, 74, 0
2, 30720, Note_on_c, 1, 72, 127
2, 31200, Note_on_c, 1, 67, 127
2, 31200, Note_on_c, 1, 72, 0
2, 31680, Note_on_c, 1, 67, 0
2, 31680, Note_on_c, 1, 69, 127
2, 33600, Note_on_c, 1, 69, 0
2, 34558, Control_c, 1, 11, 84
2, 34558, Control_c, 0, 7, 100
2, 34558, Control_c, 0, 10, 64
2, 34558, Control_c, 1, 7, 100
2, 34558, Control_c, 1, 10, 64
2, 34558, Control_c, 1, 11, 85
2, 34561, Control_c, 0, 7, 100
2, 34561, Control_c, 0, 10, 64
2, 34561, Control_c, 0, 11, 91
2, 34561, Control_c, 1, 7, 100
2, 34561, Control_c, 1, 10, 64
2, 38880, Control_c, 0, 11, 90
2, 38880, Note_on_c, 0, 62, 127
2, 39360, Note_on_c, 0, 62, 0
2, 39360, Note_on_c, 0, 67, 127
2, 39840, Note_on_c, 0, 67, 0
2, 39840, Note_on_c, 0, 70, 127
2, 40320, Note_on_c, 0, 70, 0
2, 40320, Note_on_c, 0, 74, 127
2, 41280, Note_on_c, 0, 74, 0
2, 41280, Note_on_c, 0, 74, 127
2, 41760, Note_on_c, 0, 72, 127
2, 41760, Note_on_c, 0, 74, 0
2, 41940, Control_c, 0, 11, 89
2, 42240, Note_on_c, 0, 70, 127
2, 42240, Note_on_c, 0, 72, 0
2, 42720, Note_on_c, 0, 69, 127
2, 42720, Note_on_c, 0, 70, 0
2, 43200, Note_on_c, 0, 69, 0
2, 43200, Note_on_c, 0, 70, 127
2, 44640, Note_on_c, 0, 67, 127
2, 44640, Note_on_c, 0, 70, 0
2, 45000, Control_c, 0, 11, 88
2, 45120, Note_on_c, 0, 67, 0
2, 45120, Note_on_c, 0, 70, 127
2, 45600, Note_on_c, 0, 70, 0
2, 45600, Note_on_c, 0, 74, 127
2, 46080, Note_on_c, 0, 74, 0
2, 46080, Note_on_c, 0, 79, 127
2, 47040, Note_on_c, 0, 79, 0
2, 47040, Note_on_c, 0, 79, 127
2, 47520, Note_on_c, 0, 79, 0
2, 47520, Note_on_c, 0, 79, 127
2, 48000, Note_on_c, 0, 77, 127
2, 48000, Note_on_c, 0, 79, 0
2, 48060, Control_c, 0, 11, 87
2, 48480, Note_on_c, 0, 75, 127
2, 48480, Note_on_c, 0, 77, 0
2, 48960, Note_on_c, 0, 75, 0
2, 48960, Note_on_c, 0, 77, 127
2, 50400, Note_on_c, 0, 69, 127
2, 50400, Note_on_c, 0, 77, 0
2, 50880, Note_on_c, 0, 69, 0
2, 50880, Note_on_c, 0, 74, 127
2, 51120, Control_c, 0, 11, 86
2, 51360, Note_on_c, 0, 74, 0
2, 51360, Note_on_c, 0, 77, 127
2, 51840, Note_on_c, 0, 77, 0
2, 51840, Note_on_c, 0, 81, 127
2, 52800, Note_on_c, 0, 79, 127
2, 52800, Note_on_c, 0, 81, 0
2, 53280, Note_on_c, 0, 77, 127
2, 53280, Note_on_c, 0, 79, 0
2, 53760, Note_on_c, 0, 76, 127
2, 53760, Note_on_c, 0, 77, 0
2, 54180, Control_c, 0, 11, 85
2, 54240, Note_on_c, 0, 76, 0
2, 54240, Note_on_c, 0, 77, 127
2, 54720, Note_on_c, 0, 77, 0
2, 54720, Note_on_c, 0, 79, 127
2, 55680, Note_on_c, 0, 77, 127
2, 55680, Note_on_c, 0, 79, 0
2, 56160, Note_on_c, 0, 76, 127
2, 56160, Note_on_c, 0, 77, 0
2, 57120, Note_on_c, 0, 74, 127
2, 57120, Note_on_c, 0, 76, 0
2, 57240, Control_c, 0, 11, 84
2, 57600, Note_on_c, 0, 72, 127
2, 57600, Note_on_c, 0, 74, 0
2, 58080, Note_on_c, 0, 70, 127
2, 58080, Note_on_c, 0, 72, 0
2, 58560, Note_on_c, 0, 70, 0
2, 58560, Note_on_c, 0, 72, 127
2, 59040, Note_on_c, 0, 72, 0
2, 59040, Note_on_c, 0, 74, 127
2, 59520, Note_on_c, 0, 72, 127
2, 59520, Note_on_c, 0, 74, 0
2, 60000, Note_on_c, 0, 67, 127
2, 60000, Note_on_c, 0, 72, 0
2, 60300, Control_c, 0, 11, 83
2, 60480, Note_on_c, 0, 67, 0
2, 60480, Note_on_c, 0, 69, 127
2, 61920, Note_on_c, 0, 62, 127
2, 61920, Note_on_c, 0, 69, 0
2, 62400, Note_on_c, 0, 62, 0
2, 62400, Note_on_c, 0, 67, 127
2, 62880, Note_on_c, 0, 67, 0
2, 62880, Note_on_c, 0, 70, 127
2, 63360, Control_c, 0, 11, 82
2, 63360, Note_on_c, 0, 70, 0
2, 63360, Note_on_c, 0, 74, 127
2, 64320, Note_on_c, 0, 74, 0
2, 64320, Note_on_c, 0, 74, 127
2, 64800, Note_on_c, 0, 72, 127
2, 64800, Note_on_c, 0, 74, 0
2, 65280, Note_on_c, 0, 70, 127
2, 65280, Note_on_c, 0, 72, 0
2, 65760, Note_on_c, 0, 69, 127
2, 65760, Note_on_c, 0, 70, 0
2, 66240, Note_on_c, 0, 69, 0
2, 66240, Note_on_c, 0, 70, 127
2, 66420, Control_c, 0, 11, 81
2, 67680, Note_on_c, 0, 67, 127
2, 67680, Note_on_c, 0, 70, 0
2, 68160, Note_on_c, 0, 67, 0
2, 68160, Note_on_c, 0, 70, 127
2, 68640, Note_on_c, 0, 70, 0
2, 68640, Note_on_c, 0, 74, 127
2, 69120, Note_on_c, 0, 74, 0
2, 69120, Note_on_c, 0, 79, 127
2, 69480, Control_c, 0, 11, 80
2, 70080, Note_on_c, 0, 79, 0
2, 70080, Note_on_c, 0, 79, 127
2, 70560, Note_on_c, 0, 79, 0
2, 70560, Note_on_c, 0, 79, 127
2, 71040, Note_on_c, 0, 77, 127
2, 71040, Note_on_c, 0, 79, 0
2, 71520, Note_on_c, 0, 75, 127
2, 71520, Note_on_c, 0, 77, 0
2, 72000, Note_on_c, 0, 75, 0
2, 72000, Note_on_c, 0, 77, 127
2, 72540, Control_c, 0, 11, 79
2, 73440, Note_on_c, 0, 69, 127
2, 73440, Note_on_c, 0, 77, 0
2, 73920, Note_on_c, 0, 69, 0
2, 73920, Note_on_c, 0, 74, 127
2, 74400, Note_on_c, 0, 74, 0
2, 74400, Note_on_c, 0, 77, 127
2, 74880, Note_on_c, 0, 77, 0
2, 74880, Note_on_c, 0, 81, 127
2, 75600, Control_c, 0, 11, 78
2, 75840, Note_on_c, 0, 79, 127
2, 75840, Note_on_c, 0, 81, 0
2, 76800, Note_on_c, 0, 77, 127
2, 76800, Note_on_c, 0, 79, 0
2, 77040, Note_on_c, 0, 76, 127
2, 77040, Note_on_c, 0, 77, 0
2, 77280, Note_on_c, 0, 75, 127
2, 77280, Note_on_c, 0, 76, 0
2, 77520, Note_on_c, 0, 75, 0
2, 77520, Note_on_c, 0, 76, 127
2, 77760, Note_on_c, 0, 76, 0
2, 77760, Note_on_c, 0, 79, 127
2, 78660, Control_c, 0, 11, 77
2, 78720, Note_on_c, 0, 77, 127
2, 78720, Note_on_c, 0, 79, 0
2, 79680, Note_on_c, 0, 76, 127
2, 79680, Note_on_c, 0, 77, 0
2, 79920, Note_on_c, 0, 74, 127
2, 79920, Note_on_c, 0, 76, 0
2, 80160, Note_on_c, 0, 73, 127
2, 80160, Note_on_c, 0, 74, 0
2, 80400, Note_on_c, 0, 73, 0
2, 80400, Note_on_c, 0, 74, 127
2, 80640, Note_on_c, 0, 74, 0
2, 80640, Note_on_c, 0, 74, 127
2, 81360, Note_on_c, 0, 72, 127
2, 81360, Note_on_c, 0, 74, 0
2, 81600, Note_on_c, 0, 70, 127
2, 81600, Note_on_c, 0, 72, 0
2, 81720, Control_c, 0, 11, 76
2, 82080, Note_on_c, 0, 69, 127
2, 82080, Note_on_c, 0, 70, 0
2, 82800, Note_on_c, 0, 69, 0
2, 82800, Note_on_c, 0, 71, 127
2, 83040, Note_on_c, 0, 71, 0
2, 83040, Note_on_c, 0, 73, 127
2, 83520, Note_on_c, 0, 73, 0
2, 83520, Note_on_c, 0, 74, 127
2, 84780, Control_c, 0, 11, 75
2, 86400, Note_on_c, 0, 74, 0
2, 87840, Control_c, 0, 7, 100
2, 87840, Control_c, 0, 10, 64
2, 87840, Control_c, 0, 11, 74
2, 99360, Control_c, 0, 11, 74
2, 99360, Control_c, 0, 7, 100
2, 99360, Control_c, 0, 10, 64
2, 99360, Control_c, 0, 11, 70
2, 100800, Control_c, 0, 11, 70
2, 101280, Note_on_c, 0, 69, 127
2, 101520, Note_on_c, 0, 69, 0
2, 101520, Note_on_c, 0, 73, 127
2, 101594, Control_c, 0, 11, 71
2, 101760, Note_on_c, 0, 73, 0
2, 101760, Note_on_c, 0, 74, 127
2, 101992, Control_c, 0, 11, 72
2, 102000, Note_on_c, 0, 74, 0
2, 102000, Note_on_c, 0, 76, 127
2, 102240, Note_on_c, 0, 76, 0
2, 102240, Note_on_c, 0, 77, 127
2, 102389, Control_c, 0, 11, 73
2, 102480, Note_on_c, 0, 76, 127
2, 102480, Note_on_c, 0, 77, 0
2, 102720, Note_on_c, 0, 76, 0
2, 102720, Note_on_c, 0, 77, 127
2, 102786, Control_c, 0, 11, 74
2, 102960, Note_on_c, 0, 77, 0
2, 102960, Note_on_c, 0, 79, 127
2, 103183, Control_c, 0, 11, 75
2, 103200, Note_on_c, 0, 79, 0
2, 103200, Note_on_c, 0, 81, 127
2, 103440, Note_on_c, 0, 77, 127
2, 103440, Note_on_c, 0, 81, 0
2, 103581, Control_c, 0, 11, 76
2, 103680, Note_on_c, 0, 77, 0
2, 103978, Control_c, 0, 11, 77
2, 104160, Note_on_c, 0, 79, 127
2, 104375, Control_c, 0, 11, 78
2, 104400, Note_on_c, 0, 78, 127
2, 104400, Note_on_c, 0, 79, 0
2, 104640, Note_on_c, 0, 78, 0
2, 104640, Note_on_c, 0, 79, 127
2, 104772, Control_c, 0, 11, 79
2, 104880, Note_on_c, 0, 79, 0
2, 104880, Note_on_c, 0, 81, 127
2, 105120, Note_on_c, 0, 79, 127
2, 105120, Note_on_c, 0, 81, 0
2, 105169, Control_c, 0, 11, 80
2, 105360, Note_on_c, 0, 77, 127
2, 105360, Note_on_c, 0, 79, 0
2, 105567, Control_c, 0, 11, 81
2, 105600, Note_on_c, 0, 76, 127
2, 105600, Note_on_c, 0, 77, 0
2, 105840, Note_on_c, 0, 74, 127
2, 105840, Note_on_c, 0, 76, 0
2, 105964, Control_c, 0, 11, 82
2, 106080, Note_on_c, 0, 73, 127
2, 106080, Note_on_c, 0, 74, 0
2, 106320, Note_on_c, 0, 69, 127
2, 106320, Note_on_c, 0, 73, 0
2, 106361, Control_c, 0, 11, 83
2, 106560, Note_on_c, 0, 69, 0
2, 106758, Control_c, 0, 11, 84
2, 107040, Note_on_c, 0, 81, 127
2, 107156, Control_c, 0, 11, 85
2, 107280, Note_on_c, 0, 80, 127
2, 107280, Note_on_c, 0, 81, 0
2, 107520, Note_on_c, 0, 80, 0
2, 107520, Note_on_c, 0, 81, 127
2, 107553, Control_c, 0, 11, 86
2, 107760, Note_on_c, 0, 81, 0
2, 107760, Note_on_c, 0, 82, 127
2, 107950, Control_c, 0, 11, 87
2, 108000, Note_on_c, 0, 81, 127
2, 108000, Note_on_c, 0, 82, 0
2, 108240, Note_on_c, 0, 79, 127
2, 108240, Note_on_c, 0, 81, 0
2, 108347, Control_c, 0, 11, 88
2, 108480, Note_on_c, 0, 77, 127
2, 108480, Note_on_c, 0, 79, 0
2, 108720, Note_on_c, 0, 76, 127
2, 108720, Note_on_c, 0, 77, 0
2, 108744, Control_c, 0, 11, 89
2, 108960, Note_on_c, 0, 76, 0
2, 108960, Note_on_c, 0, 77, 127
2, 109142, Control_c, 0, 11, 90
2, 109200, Note_on_c, 0, 74, 127
2, 109200, Note_on_c, 0, 77, 0
2, 109440, Note_on_c, 0, 74, 0
2, 109440, Note_on_c, 0, 76, 127
2, 109539, Control_c, 0, 11, 91
2, 109680, Note_on_c, 0, 76, 0
2, 109680, Note_on_c, 0, 77, 127
2, 109920, Note_on_c, 0, 77, 0
2, 109920, Note_on_c, 0, 79, 127
2, 109936, Control_c, 0, 11, 92
2, 110160, Note_on_c, 0, 77, 127
2, 110160, Note_on_c, 0, 79, 0
2, 110333, Control_c, 0, 11, 93
2, 110400, Note_on_c, 0, 76, 127
2, 110400, Note_on_c, 0, 77, 0
2, 110640, Note_on_c, 0, 74, 127
2, 110640, Note_on_c, 0, 76, 0
2, 110731, Control_c, 0, 11, 94
2, 110880, Note_on_c, 0, 73, 127
2, 110880, Note_on_c, 0, 74, 0
2, 111120, Note_on_c, 0, 69, 127
2, 111120, Note_on_c, 0, 73, 0
2, 111128, Control_c, 0, 11, 95
2, 111360, Note_on_c, 0, 69, 0
2, 111360, Note_on_c, 0, 71, 127
2, 111525, Control_c, 0, 11, 96
2, 111600, Note_on_c, 0, 71, 0
2, 111600, Note_on_c, 0, 74, 127
2, 111840, Note_on_c, 0, 74, 0
2, 111840, Note_on_c, 0, 76, 127
2, 111922, Control_c, 0, 11, 97
2, 112080, Note_on_c, 0, 76, 0
2, 112080, Note_on_c, 0, 79, 127
2, 112319, Control_c, 0, 11, 98
2, 112319, Control_c, 0, 7, 100
2, 112319, Control_c, 0, 10, 64
2, 112319, Control_c, 0, 11, 99
2, 112319, Note_on_c, 0, 79, 0
2, 123840, Control_c, 0, 11, 99
2, 123840, Control_c, 0, 7, 100
2, 123840, Control_c, 0, 10, 64
2, 123840, Control_c, 0, 11, 102
2, 132960, Note_on_c, 0, 84, 127
2, 133120, Note_on_c, 0, 84, 0
2, 133120, Note_on_c, 0, 86, 127
2, 133280, Note_on_c, 0, 84, 127
2, 133280, Note_on_c, 0, 86, 0
2, 133440, Note_on_c, 0, 82, 127
2, 133440, Note_on_c, 0, 84, 0
2, 133920, Note_on_c, 0, 82, 0
2, 134400, Note_on_c, 0, 82, 127
2, 134560, Note_on_c, 0, 82, 0
2, 134560, Note_on_c, 0, 84, 127
2, 134720, Note_on_c, 0, 82, 127
2, 134720, Note_on_c, 0, 84, 0
2, 134880, Note_on_c, 0, 81, 127
2, 134880, Note_on_c, 0, 82, 0
2, 135254, Control_c, 0, 11, 103
2, 135360, Note_on_c, 0, 81, 0
2, 135840, Note_on_c, 0, 79, 127
2, 136000, Note_on_c, 0, 79, 0
2, 136000, Note_on_c, 0, 81, 127
2, 136160, Note_on_c, 0, 79, 127
2, 136160, Note_on_c, 0, 81, 0
2, 136320, Note_on_c, 0, 78, 127
2, 136320, Note_on_c, 0, 79, 0
2, 136800, Note_on_c, 0, 74, 127
2, 136800, Note_on_c, 0, 78, 0
2, 137280, Note_on_c, 0, 74, 0
2, 137280, Note_on_c, 0, 79, 127
2, 137760, Note_on_c, 0, 79, 0
2, 137760, Note_on_c, 0, 82, 127
2, 138240, Note_on_c, 0, 82, 0
2, 138240, Note_on_c, 0, 86, 127
2, 139200, Note_on_c, 0, 86, 0
2, 139200, Note_on_c, 0, 86, 127
2, 139680, Note_on_c, 0, 84, 127
2, 139680, Note_on_c, 0, 86, 0
2, 140160, Note_on_c, 0, 82, 127
2, 140160, Note_on_c, 0, 84, 0
2, 140640, Note_on_c, 0, 81, 127
2, 140640, Note_on_c, 0, 82, 0
2, 140960, Control_c, 0, 11, 104
2, 141120, Note_on_c, 0, 81, 0
2, 141120, Note_on_c, 0, 82, 127
2, 142560, Note_on_c, 0, 79, 127
2, 142560, Note_on_c, 0, 82, 0
2, 143040, Note_on_c, 0, 79, 0
2, 143040, Note_on_c, 0, 82, 127
2, 143520, Note_on_c, 0, 82, 0
2, 143520, Note_on_c, 0, 86, 127
2, 144000, Note_on_c, 0, 86, 0
2, 144000, Note_on_c, 0, 91, 127
2, 144960, Note_on_c, 0, 91, 0
2, 144960, Note_on_c, 0, 91, 127
2, 145440, Note_on_c, 0, 91, 0
2, 145440, Note_on_c, 0, 91, 127
2, 145920, Note_on_c, 0, 89, 127
2, 145920, Note_on_c, 0, 91, 0
2, 146400, Note_on_c, 0, 87, 127
2, 146400, Note_on_c, 0, 89, 0
2, 146667, Control_c, 0, 11, 105
2, 146880, Note_on_c, 0, 87, 0
2, 146880, Note_on_c, 0, 89, 127
2, 148320, Note_on_c, 0, 81, 127
2, 148320, Note_on_c, 0, 89, 0
2, 148800, Note_on_c, 0, 81, 0
2, 148800, Note_on_c, 0, 86, 127
2, 149280, Note_on_c, 0, 86, 0
2, 149280, Note_on_c, 0, 89, 127
2, 149760, Note_on_c, 0, 89, 0
2, 149760, Note_on_c, 0, 93, 127
2, 150720, Note_on_c, 0, 91, 127
2, 150720, Note_on_c, 0, 93, 0
2, 151200, Note_on_c, 0, 89, 127
2, 151200, Note_on_c, 0, 91, 0
2, 151680, Note_on_c, 0, 88, 127
2, 151680, Note_on_c, 0, 89, 0
2, 152160, Note_on_c, 0, 88, 0
2, 152160, Note_on_c, 0, 89, 127
2, 152374, Control_c, 0, 11, 106
2, 152640, Note_on_c, 0, 89, 0
2, 152640, Note_on_c, 0, 91, 127
2, 153600, Note_on_c, 0, 89, 127
2, 153600, Note_on_c, 0, 91, 0
2, 154080, Note_on_c, 0, 88, 127
2, 154080, Note_on_c, 0, 89, 0
2, 155040, Note_on_c, 0, 86, 127
2, 155040, Note_on_c, 0, 88, 0
2, 155520, Note_on_c, 0, 84, 127
2, 155520, Note_on_c, 0, 86, 0
2, 156000, Note_on_c, 0, 82, 127
2, 156000, Note_on_c, 0, 84, 0
2, 156480, Note_on_c, 0, 82, 0
2, 156480, Note_on_c, 0, 84, 127
2, 156960, Note_on_c, 0, 84, 0
2, 156960, Note_on_c, 0, 86, 127
2, 157440, Note_on_c, 0, 84, 127
2, 157440, Note_on_c, 0, 86, 0
2, 157920, Note_on_c, 0, 79, 127
2, 157920, Note_on_c, 0, 84, 0
2, 158080, Control_c, 0, 11, 107
2, 158400, Note_on_c, 0, 79, 0
2, 158400, Note_on_c, 0, 81, 127
2, 159840, Note_on_c, 0, 62, 127
2, 159840, Note_on_c, 0, 81, 0
2, 160320, Note_on_c, 0, 62, 0
2, 160320, Note_on_c, 0, 67, 127
2, 160800, Note_on_c, 0, 67, 0
2, 160800, Note_on_c, 0, 70, 127
2, 161280, Note_on_c, 0, 70, 0
2, 161280, Note_on_c, 0, 74, 127
2, 162240, Note_on_c, 0, 74, 0
2, 162240, Note_on_c, 0, 74, 127
2, 162720, Note_on_c, 0, 72, 127
2, 162720, Note_on_c, 0, 74, 0
2, 163200, Note_on_c, 0, 70, 127
2, 163200, Note_on_c, 0, 72, 0
2, 163680, Note_on_c, 0, 69, 127
2, 163680, Note_on_c, 0, 70, 0
2, 163787, Control_c, 0, 11, 108
2, 164160, Note_on_c, 0, 69, 0
2, 164160, Note_on_c, 0, 70, 127
2, 165600, Note_on_c, 0, 67, 127
2, 165600, Note_on_c, 0, 70, 0
2, 166080, Note_on_c, 0, 67, 0
2, 166080, Note_on_c, 0, 70, 127
2, 166560, Note_on_c, 0, 70, 0
2, 166560, Note_on_c, 0, 74, 127
2, 167040, Note_on_c, 0, 74, 0
2, 167040, Note_on_c, 0, 79, 127
2, 168000, Note_on_c, 0, 79, 0
2, 168000, Note_on_c, 0, 79, 127
2, 168480, Note_on_c, 0, 79, 0
2, 168480, Note_on_c, 0, 79, 127
2, 168960, Note_on_c, 0, 77, 127
2, 168960, Note_on_c, 0, 79, 0
2, 169440, Note_on_c, 0, 75, 127
2, 169440, Note_on_c, 0, 77, 0
2, 169494, Control_c, 0, 11, 109
2, 169920, Note_on_c, 0, 75, 0
2, 169920, Note_on_c, 0, 77, 127
2, 171360, Note_on_c, 0, 69, 127
2, 171360, Note_on_c, 0, 77, 0
2, 171840, Note_on_c, 0, 69, 0
2, 171840, Note_on_c, 0, 74, 127
2, 172320, Note_on_c, 0, 74, 0
2, 172320, Note_on_c, 0, 77, 127
2, 172800, Note_on_c, 0, 77, 0
2, 172800, Note_on_c, 0, 81, 127
2, 173760, Note_on_c, 0, 79, 127
2, 173760, Note_on_c, 0, 81, 0
2, 174720, Note_on_c, 0, 77, 127
2, 174720, Note_on_c, 0, 79, 0
2, 174960, Note_on_c, 0, 76, 127
2, 174960, Note_on_c, 0, 77, 0
2, 175200, Note_on_c, 0, 75, 127
2, 175200, Note_on_c, 0, 76, 0
2, 175200, Control_c, 0, 11, 110
2, 175440, Note_on_c, 0, 75, 0
2, 175440, Note_on_c, 0, 76, 127
2, 175680, Note_on_c, 0, 76, 0
2, 175680, Note_on_c, 0, 79, 127
2, 176640, Note_on_c, 0, 77, 127
2, 176640, Note_on_c, 0, 79, 0
2, 177600, Note_on_c, 0, 76, 127
2, 177600, Note_on_c, 0, 77, 0
2, 177840, Note_on_c, 0, 74, 127
2, 177840, Note_on_c, 0, 76, 0
2, 178080, Note_on_c, 0, 73, 127
2, 178080, Note_on_c, 0, 74, 0
2, 178320, Note_on_c, 0, 73, 0
2, 178320, Note_on_c, 0, 74, 127
2, 178560, Note_on_c, 0, 74, 0
2, 178560, Note_on_c, 0, 74, 127
2, 179040, Note_on_c, 0, 72, 127
2, 179040, Note_on_c, 0, 74, 0
2, 179520, Note_on_c, 0, 70, 127
2, 179520, Note_on_c, 0, 72, 0
2, 180000, Note_on_c, 0, 69, 127
2, 180000, Note_on_c, 0, 70, 0
2, 180720, Note_on_c, 0, 69, 0
2, 180720, Note_on_c, 0, 71, 127
2, 180907, Control_c, 0, 11, 111
2, 180960, Note_on_c, 0, 71, 0
2, 180960, Note_on_c, 0, 73, 127
2, 181440, Note_on_c, 0, 73, 0
2, 181440, Note_on_c, 0, 74, 64
2, 182876, Note_off_c, 0, 74, 0
2, 186240, Note_on_c, 0, 76, 127
2, 186480, Note_on_c, 0, 74, 127
2, 186480, Note_on_c, 0, 76, 0
2, 186614, Control_c, 0, 11, 112
2, 186720, Note_on_c, 0, 73, 127
2, 186720, Note_on_c, 0, 74, 0
2, 186960, Note_on_c, 0, 73, 0
2, 186960, Note_on_c, 0, 74, 127
2, 187200, Note_on_c, 0, 63, 127
2, 187200, Note_on_c, 0, 74, 0
2, 187680, Note_on_c, 0, 63, 0
2, 187680, Note_on_c, 0, 68, 127
2, 188160, Note_on_c, 0, 68, 0
2, 188160, Note_on_c, 0, 71, 127
2, 190080, Note_on_c, 0, 64, 127
2, 190080, Note_on_c, 0, 71, 0
2, 190560, Note_on_c, 0, 64, 0
2, 190560, Note_on_c, 0, 69, 127
2, 191040, Note_on_c, 0, 69, 0
2, 191040, Note_on_c, 0, 72, 127
2, 191520, Note_on_c, 0, 72, 0
2, 191520, Note_on_c, 0, 76, 127
2, 192320, Control_c, 0, 11, 113
2, 192480, Note_on_c, 0, 76, 0
2, 192480, Note_on_c, 0, 76, 127
2, 192960, Note_on_c, 0, 74, 127
2, 192960, Note_on_c, 0, 76, 0
2, 193440, Note_on_c, 0, 72, 127
2, 193440, Note_on_c, 0, 74, 0
2, 193920, Note_on_c, 0, 71, 127
2, 193920, Note_on_c, 0, 72, 0
2, 194400, Note_on_c, 0, 71, 0
2, 194400, Note_on_c, 0, 72, 127
2, 195840, Note_on_c, 0, 69, 127
2, 195840, Note_on_c, 0, 72, 0
2, 196320, Note_on_c, 0, 69, 0
2, 196320, Note_on_c, 0, 72, 127
2, 196800, Note_on_c, 0, 72, 0
2, 196800, Note_on_c, 0, 76, 127
2, 197280, Note_on_c, 0, 76, 0
2, 197280, Note_on_c, 0, 81, 127
2, 198027, Control_c, 0, 11, 114
2, 198240, Note_on_c, 0, 81, 0
2, 198240, Note_on_c, 0, 81, 127
2, 198720, Note_on_c, 0, 81, 0
2, 198720, Note_on_c, 0, 81, 127
2, 199200, Note_on_c, 0, 81, 0
2, 199200, Note_on_c, 0, 83, 127
2, 199680, Note_on_c, 0, 79, 127
2, 199680, Note_on_c, 0, 83, 0
2, 199920, Note_on_c, 0, 77, 127
2, 199920, Note_on_c, 0, 79, 0
2, 200160, Note_on_c, 0, 77, 0
2, 200160, Note_on_c, 0, 79, 127
2, 201600, Note_on_c, 0, 71, 127
2, 201600, Note_on_c, 0, 79, 0
2, 202080, Note_on_c, 0, 71, 0
2, 202080, Note_on_c, 0, 76, 127
2, 202560, Note_on_c, 0, 76, 0
2, 202560, Note_on_c, 0, 79, 127
2, 203040, Note_on_c, 0, 79, 0
2, 203040, Note_on_c, 0, 83, 127
2, 203733, Control_c, 0, 11, 115
2, 204000, Note_on_c, 0, 81, 127
2, 204000, Note_on_c, 0, 83, 0
2, 204960, Note_on_c, 0, 79, 127
2, 204960, Note_on_c, 0, 81, 0
2, 205200, Note_on_c, 0, 78, 127
2, 205200, Note_on_c, 0, 79, 0
2, 205440, Note_on_c, 0, 77, 127
2, 205440, Note_on_c, 0, 78, 0
2, 205680, Note_on_c, 0, 77, 0
2, 205680, Note_on_c, 0, 78, 127
2, 205920, Note_on_c, 0, 78, 0
2, 205920, Note_on_c, 0, 81, 127
2, 206880, Note_on_c, 0, 79, 127
2, 206880, Note_on_c, 0, 81, 0
2, 207840, Note_on_c, 0, 78, 127
2, 207840, Note_on_c, 0, 79, 0
2, 208080, Note_on_c, 0, 76, 127
2, 208080, Note_on_c, 0, 78, 0
2, 208320, Note_on_c, 0, 75, 127
2, 208320, Note_on_c, 0, 76, 0
2, 208560, Note_on_c, 0, 75, 0
2, 208560, Note_on_c, 0, 76, 127
2, 208800, Note_on_c, 0, 76, 0
2, 208800, Note_on_c, 0, 76, 127
2, 209280, Note_on_c, 0, 74, 127
2, 209280, Note_on_c, 0, 76, 0
2, 209440, Control_c, 0, 11, 116
2, 209760, Note_on_c, 0, 72, 127
2, 209760, Note_on_c, 0, 74, 0
2, 210240, Note_on_c, 0, 71, 127
2, 210240, Note_on_c, 0, 72, 0
2, 210960, Note_on_c, 0, 71, 0
2, 210960, Note_on_c, 0, 73, 127
2, 211200, Note_on_c, 0, 73, 0
2, 211200, Note_on_c, 0, 75, 127
2, 211680, Note_on_c, 0, 75, 0
2, 211680, Note_on_c, 0, 76, 127
2, 215147, Control_c, 0, 11, 117
2, 216720, Note_on_c, 0, 76, 0
2, 216720, Note_on_c, 0, 78, 127
2, 216960, Note_on_c, 0, 76, 127
2, 216960, Note_on_c, 0, 78, 0
2, 217200, Note_on_c, 0, 75, 127
2, 217200, Note_on_c, 0, 76, 0
2, 217440, Note_on_c, 0, 75, 0
2, 217440, Note_on_c, 0, 76, 127
2, 218160, Note_on_c, 0, 74, 127
2, 218160, Note_on_c, 0, 76, 0
2, 218400, Note_on_c, 0, 72, 127
2, 218400, Note_on_c, 0, 74, 0
2, 218880, Note_on_c, 0, 71, 127
2, 218880, Note_on_c, 0, 72, 0
2, 219600, Note_on_c, 0, 71, 0
2, 219600, Note_on_c, 0, 73, 127
2, 219840, Note_on_c, 0, 73, 0
2, 219840, Note_on_c, 0, 75, 127
2, 220853, Control_c, 0, 11, 118
2, 221760, Note_on_c, 0, 75, 0
2, 221760, Note_on_c, 0, 76, 127
2, 224640, Note_on_c, 0, 76, 0
2, 224640, Note_on_c, 0, 88, 127
2, 226560, Control_c, 0, 11, 119
2, 226560, Control_c, 0, 11, 120
2, 226560, Note_on_c, 0, 88, 0
2, 226560, Note_on_c, 0, 95, 127
2, 226688, Control_c, 0, 11, 119
2, 226816, Control_c, 0, 11, 118
2, 226945, Control_c, 0, 11, 117
2, 227073, Control_c, 0, 11, 116
2, 227201, Control_c, 0, 11, 115
2, 227329, Control_c, 0, 11, 114
2, 227457, Control_c, 0, 11, 113
2, 227585, Control_c, 0, 11, 112
2, 227714, Control_c, 0, 11, 111
2, 227842, Control_c, 0, 11, 110
2, 227970, Control_c, 0, 11, 109
2, 228000, Note_on_c, 0, 95, 0
2, 228000, Note_on_c, 0, 95, 127
2, 228098, Control_c, 0, 11, 108
2, 228226, Control_c, 0, 11, 107
2, 228355, Control_c, 0, 11, 106
2, 228480, Note_on_c, 0, 95, 0
2, 228480, Note_on_c, 0, 95, 127
2, 228483, Control_c, 0, 11, 105
2, 228611, Control_c, 0, 11, 104
2, 228640, Note_on_c, 0, 95, 0
2, 228640, Note_on_c, 0, 95, 127
2, 228739, Control_c, 0, 11, 103
2, 228800, Note_on_c, 0, 95, 0
2, 228800, Note_on_c, 0, 95, 127
2, 228867, Control_c, 0, 11, 102
2, 228960, Note_on_c, 0, 95, 0
2, 228995, Control_c, 0, 11, 101
2, 229124, Control_c, 0, 11, 100
2, 229252, Control_c, 0, 11, 99
2, 229380, Control_c, 0, 11, 98
2, 229440, Control_c, 0, 11, 97
2, 229500, Control_c, 0, 11, 96
2, 229560, Control_c, 0, 11, 95
2, 229620, Control_c, 0, 11, 94
2, 229650, Control_c, 0, 11, 93
2, 229680, Control_c, 0, 11, 91
2, 229710, Control_c, 0, 11, 90
2, 229740, Control_c, 0, 11, 88
2, 229800, Control_c, 0, 11, 86
2, 229830, Control_c, 0, 11, 84
2, 229860, Control_c, 0, 11, 81
2, 229920, Control_c, 0, 11, 79
2, 229950, Control_c, 0, 11, 78
2, 229980, Control_c, 0, 11, 76
2, 230010, Control_c, 0, 11, 75
2, 230040, Control_c, 0, 11, 73
2, 230070, Control_c, 0, 11, 72
2, 230100, Control_c, 0, 11, 70
2, 230130, Control_c, 0, 11, 69
2, 230160, Control_c, 0, 11, 67
2, 230220, Control_c, 0, 11, 66
2, 230280, Control_c, 0, 11, 65
2, 230340, Control_c, 0, 11, 64
2, 230400, Control_c, 0, 11, 63
2, 230460, Control_c, 0, 11, 61
2, 230490, Control_c, 0, 11, 60
2, 230520, Control_c, 0, 11, 58
2, 230550, Control_c, 0, 11, 57
2, 230580, Control_c, 0, 11, 55
2, 230640, Control_c, 0, 11, 53
2, 230670, Control_c, 0, 11, 51
2, 230700, Control_c, 0, 11, 49
2, 230760, Control_c, 0, 11, 47
2, 230820, Control_c, 0, 11, 45
2, 230880, Control_c, 0, 11, 44
2, 230910, Control_c, 0, 11, 43
2, 230940, Control_c, 0, 11, 41
2, 231000, Control_c, 0, 11, 43
2, 231060, Control_c, 0, 11, 46
2, 231120, Control_c, 0, 11, 49
2, 231180, Control_c, 0, 11, 52
2, 231240, Control_c, 0, 11, 55
2, 231300, Control_c, 0, 11, 58
2, 231360, Control_c, 0, 11, 61
2, 231420, Control_c, 0, 11, 64
2, 231480, Control_c, 0, 11, 67
2, 231540, Control_c, 0, 11, 70
2, 231600, Control_c, 0, 11, 73
2, 231660, Control_c, 0, 11, 76
2, 231720, Control_c, 0, 11, 79
2, 231780, Control_c, 0, 11, 82
2, 231840, Control_c, 0, 11, 85
2, 231870, Control_c, 0, 11, 84
2, 231900, Control_c, 0, 11, 82
2, 232200, Control_c, 0, 11, 81
2, 232230, Control_c, 0, 11, 79
2, 232260, Control_c, 0, 11, 77
2, 232290, Control_c, 0, 11, 76
2, 232320, Control_c, 0, 11, 74
2, 232350, Control_c, 0, 11, 73
2, 232380, Control_c, 0, 11, 71
2, 232440, Control_c, 0, 11, 69
2, 232470, Control_c, 0, 11, 67
2, 232500, Control_c, 0, 11, 65
2, 232530, Control_c, 0, 11, 64
2, 232560, Control_c, 0, 11, 62
2, 232590, Control_c, 0, 11, 61
2, 232620, Control_c, 0, 11, 59
2, 232650, Control_c, 0, 11, 58
2, 232680, Control_c, 0, 11, 56
2, 232710, Control_c, 0, 11, 54
2, 232740, Control_c, 0, 11, 52
2, 232770, Control_c, 0, 11, 51
2, 232800, Control_c, 0, 11, 49
2, 232830, Control_c, 0, 11, 47
2, 232860, Control_c, 0, 11, 45
2, 232920, Control_c, 0, 11, 43
2, 232950, Control_c, 0, 11, 41
2, 232980, Control_c, 0, 11, 39
2, 233010, Control_c, 0, 11, 37
2, 233040, Control_c, 0, 11, 35
2, 233070, Control_c, 0, 11, 31
2, 233100, Control_c, 0, 11, 26
2, 233115, Control_c, 0, 11, 22
2, 233130, Control_c, 0, 11, 18
2, 233145, Control_c, 0, 11, 14
2, 233160, Control_c, 0, 11, 10
2, 233190, Control_c, 0, 11, 7
2, 233220, Control_c, 0, 11, 3
2, 233235, Control_c, 0, 11, 6
2, 233250, Control_c, 0, 11, 9
2, 233265, Control_c, 0, 11, 13
2, 233280, Control_c, 0, 11, 16
2, 233295, Control_c, 0, 11, 20
2, 233310, Control_c, 0, 11, 23
2, 233325, Control_c, 0, 11, 27
2, 233340, Control_c, 0, 11, 30
2, 233355, Control_c, 0, 11, 34
2, 233370, Control_c, 0, 11, 37
2, 233385, Control_c, 0, 11, 40
2, 233400, Control_c, 0, 11, 44
2, 233415, Control_c, 0, 11, 47
2, 233430, Control_c, 0, 11, 51
2, 233445, Control_c, 0, 11, 54
2, 233460, Control_c, 0, 11, 58
2, 233475, Control_c, 0, 11, 61
2, 233490, Control_c, 0, 11, 65
2, 233505, Control_c, 0, 11, 68
2, 233520, Control_c, 0, 11, 72
2, 234720, Control_c, 0, 7, 100
2, 234720, Control_c, 0, 10, 64
2, 234720, End_track
3, 0, Start_track
3, 0, Title_t, "CH #2"
3, 0, Instrument_name_t, "Piano"
3, 240, Control_c, 1, 7, 100
3, 300, Control_c, 1, 10, 64
3, 360, Control_c, 1, 11, 100
3, 420, Program_c, 1, 0
3, 480, Text_t, "Start"
3, 480, Control_c, 1, 10, 64
3, 480, Control_c, 1, 11, 100
3, 960, Control_c, 1, 11, 99
3, 1440, Control_c, 1, 11, 98
3, 1920, Control_c, 1, 11, 97
3, 1920, Note_on_c, 1, 70, 127
3, 1920, Note_on_c, 1, 74, 127
3, 2160, Note_on_c, 1, 70, 0
3, 2160, Note_on_c, 1, 72, 127
3, 2160, Note_on_c, 1, 74, 0
3, 2160, Note_on_c, 1, 75, 127
3, 2400, Control_c, 1, 11, 96
3, 2400, Note_on_c, 1, 70, 127
3, 2400, Note_on_c, 1, 72, 0
3, 2400, Note_on_c, 1, 74, 127
3, 2400, Note_on_c, 1, 75, 0
3, 2640, Note_on_c, 1, 70, 0
3, 2640, Note_on_c, 1, 72, 127
3, 2640, Note_on_c, 1, 74, 0
3, 2640, Note_on_c, 1, 75, 127
3, 2880, Control_c, 1, 11, 95
3, 2880, Note_on_c, 1, 70, 127
3, 2880, Note_on_c, 1, 72, 0
3, 2880, Note_on_c, 1, 74, 127
3, 2880, Note_on_c, 1, 75, 0
3, 3120, Note_on_c, 1, 70, 0
3, 3120, Note_on_c, 1, 72, 127
3, 3120, Note_on_c, 1, 74, 0
3, 3120, Note_on_c, 1, 75, 127
3, 3360, Control_c, 1, 11, 94
3, 3360, Note_on_c, 1, 69, 127
3, 3360, Note_on_c, 1, 72, 0
3, 3360, Note_on_c, 1, 72, 127
3, 3360, Note_on_c, 1, 75, 0
3, 3600, Note_on_c, 1, 69, 0
3, 3600, Note_on_c, 1, 70, 127
3, 3600, Note_on_c, 1, 72, 0
3, 3600, Note_on_c, 1, 74, 127
3, 3840, Control_c, 1, 11, 93
3, 3840, Note_on_c, 1, 69, 127
3, 3840, Note_on_c, 1, 70, 0
3, 3840, Note_on_c, 1, 72, 127
3, 3840, Note_on_c, 1, 74, 0
3, 4080, Note_on_c, 1, 69, 0
3, 4080, Note_on_c, 1, 70, 127
3, 4080, Note_on_c, 1, 72, 0
3, 4080, Note_on_c, 1, 74, 127
3, 4320, Control_c, 1, 11, 92
3, 4320, Note_on_c, 1, 69, 127
3, 4320, Note_on_c, 1, 70, 0
3, 4320, Note_on_c, 1, 72, 127
3, 4320, Note_on_c, 1, 74, 0
3, 4560, Note_on_c, 1, 69, 0
3, 4560, Note_on_c, 1, 70, 127
3, 4560, Note_on_c, 1, 72, 0
3, 4560, Note_on_c, 1, 74, 127
3, 4800, Control_c, 1, 11, 91
3, 4800, Note_on_c, 1, 67, 127
3, 4800, Note_on_c, 1, 70, 0
3, 4800, Note_on_c, 1, 70, 127
3, 4800, Note_on_c, 1, 74, 0
3, 5040, Note_on_c, 1, 67, 0
3, 5040, Note_on_c, 1, 69, 127
3, 5040, Note_on_c, 1, 70, 0
3, 5040, Note_on_c, 1, 72, 127
3, 5280, Control_c, 1, 11, 90
3, 5280, Note_on_c, 1, 67, 127
3, 5280, Note_on_c, 1, 69, 0
3, 5280, Note_on_c, 1, 70, 127
3, 5280, Note_on_c, 1, 72, 0
3, 5520, Note_on_c, 1, 67, 0
3, 5520, Note_on_c, 1, 69, 127
3, 5520, Note_on_c, 1, 70, 0
3, 5520, Note_on_c, 1, 72, 127
3, 5760, Control_c, 1, 11, 89
3, 5760, Note_on_c, 1, 67, 127
3, 5760, Note_on_c, 1, 69, 0
3, 5760, Note_on_c, 1, 70, 127
3, 5760, Note_on_c, 1, 72, 0
3, 6000, Note_on_c, 1, 67, 0
3, 6000, Note_on_c, 1, 69, 127
3, 6000, Note_on_c, 1, 70, 0
3, 6000, Note_on_c, 1, 72, 127
3, 6240, Control_c, 1, 11, 88
3, 6240, Note_on_c, 1, 66, 127
3, 6240, Note_on_c, 1, 69, 0
3, 6240, Note_on_c, 1, 69, 127
3, 6240, Note_on_c, 1, 72, 0
3, 6480, Note_on_c, 1, 64, 127
3, 6480, Note_on_c, 1, 66, 0
3, 6480, Note_on_c, 1, 67, 127
3, 6480, Note_on_c, 1, 69, 0
3, 6720, Control_c, 1, 11, 87
3, 6720, Note_on_c, 1, 63, 127
3, 6720, Note_on_c, 1, 64, 0
3, 6720, Note_on_c, 1, 66, 127
3, 6720, Note_on_c, 1, 67, 0
3, 7200, Control_c, 1, 11, 86
3, 7680, Control_c, 1, 11, 85
3, 7680, Note_on_c, 1, 50, 127
3, 7680, Note_on_c, 1, 63, 0
3, 7680, Note_on_c, 1, 66, 0
3, 8160, Control_c, 1, 11, 84
3, 8160, Note_on_c, 1, 57, 127
3, 8400, Note_on_c, 1, 62, 127
3, 8636, Note_off_c, 1, 50, 0
3, 8640, Control_c, 1, 11, 83
3, 8640, Note_on_c, 1, 66, 127
3, 8640, Note_on_c, 1, 74, 127
3, 9120, Control_c, 1, 11, 82
3, 9600, Control_c, 1, 11, 81
3, 9600, Note_on_c, 1, 74, 0
3, 10080, Control_c, 1, 7, 100
3, 10080, Control_c, 1, 10, 64
3, 10080, Control_c, 1, 11, 80
3, 10080, Note_on_c, 1, 57, 0
3, 10080, Note_on_c, 1, 62, 0
3, 10080, Note_on_c, 1, 66, 0
3, 11520, Control_c, 2, 11, 70
3, 11520, Control_c, 2, 7, 100
3, 11520, Control_c, 2, 10, 64
3, 11520, Control_c, 2, 11, 70
3, 12000, Note_on_c, 2, 51, 127
3, 12000, Note_on_c, 2, 58, 127
3, 12000, Note_on_c, 2, 62, 127
3, 12960, Note_on_c, 2, 51, 0
3, 12960, Note_on_c, 2, 58, 0
3, 12960, Note_on_c, 2, 62, 0
3, 13440, Note_on_c, 2, 54, 127
3, 13440, Note_on_c, 2, 60, 127
3, 13440, Note_on_c, 2, 63, 127
3, 14400, Note_on_c, 2, 54, 0
3, 14400, Note_on_c, 2, 60, 0
3, 14400, Note_on_c, 2, 63, 0
3, 14880, Note_on_c, 2, 53, 127
3, 14880, Note_on_c, 2, 58, 127
3, 14880, Note_on_c, 2, 62, 127
3, 15840, Note_on_c, 2, 53, 0
3, 15840, Note_on_c, 2, 55, 127
3, 15840, Note_on_c, 2, 58, 0
3, 15840, Note_on_c, 2, 62, 0
3, 16320, Note_on_c, 2, 58, 127
3, 16320, Note_on_c, 2, 62, 127
3, 17280, Note_on_c, 2, 55, 0
3, 17280, Note_on_c, 2, 58, 0
3, 17280, Note_on_c, 2, 62, 0
3, 17760, Note_on_c, 2, 55, 127
3, 17760, Note_on_c, 2, 58, 127
3, 17760, Note_on_c, 2, 63, 127
3, 18103, Control_c, 2, 11, 71
3, 18720, Note_on_c, 2, 55, 0
3, 18720, Note_on_c, 2, 58, 0
3, 18720, Note_on_c, 2, 63, 0
3, 19200, Note_on_c, 2, 57, 127
3, 19200, Note_on_c, 2, 63, 127
3, 19200, Note_on_c, 2, 67, 127
3, 19871, Control_c, 1, 11, 81
3, 20160, Note_on_c, 2, 57, 0
3, 20160, Note_on_c, 2, 63, 0
3, 20160, Note_on_c, 2, 67, 0
3, 20640, Note_on_c, 2, 53, 127
3, 20640, Note_on_c, 2, 57, 127
3, 20640, Note_on_c, 2, 62, 127
3, 21394, Control_c, 2, 11, 72
3, 21600, Note_on_c, 2, 53, 0
3, 21600, Note_on_c, 2, 57, 0
3, 21600, Note_on_c, 2, 62, 0
3, 22080, Note_on_c, 0, 53, 64
3, 22080, Note_on_c, 2, 57, 127
3, 22080, Note_on_c, 2, 62, 127
3, 23040, Note_on_c, 2, 57, 0
3, 23040, Note_on_c, 2, 62, 0
3, 23040, Note_off_c, 0, 53, 0
3, 23520, Note_on_c, 0, 53, 64
3, 23520, Note_on_c, 2, 58, 127
3, 23520, Note_on_c, 2, 62, 127
3, 24480, Note_on_c, 2, 58, 0
3, 24480, Note_on_c, 2, 62, 0
3, 24480, Note_off_c, 0, 53, 0
3, 24685, Control_c, 2, 11, 73
3, 24767, Control_c, 1, 11, 82
3, 24960, Note_on_c, 0, 58, 64
3, 24960, Note_on_c, 2, 55, 127
3, 24960, Note_on_c, 2, 61, 127
3, 25920, Note_on_c, 2, 55, 0
3, 25920, Note_on_c, 2, 61, 0
3, 25920, Note_off_c, 0, 58, 0
3, 26400, Note_on_c, 0, 53, 64
3, 26400, Note_on_c, 2, 57, 127
3, 26400, Note_on_c, 2, 62, 127
3, 27360, Note_on_c, 2, 57, 0
3, 27360, Note_on_c, 2, 62, 0
3, 27360, Note_off_c, 0, 53, 0
3, 27840, Note_on_c, 0, 62, 64
3, 27840, Note_on_c, 2, 53, 127
3, 27840, Note_on_c, 2, 57, 127
3, 27976, Control_c, 2, 11, 74
3, 28796, Note_off_c, 0, 62, 0
3, 28800, Note_on_c, 2, 53, 0
3, 28800, Note_on_c, 2, 57, 0
3, 29280, Note_on_c, 0, 62, 64
3, 29280, Note_on_c, 2, 53, 127
3, 29280, Note_on_c, 2, 58, 127
3, 29663, Control_c, 1, 11, 83
3, 30236, Note_off_c, 0, 62, 0
3, 30240, Note_on_c, 2, 53, 0
3, 30240, Note_on_c, 2, 58, 0
3, 30720, Note_on_c, 0, 61, 64
3, 30720, Note_on_c, 2, 52, 127
3, 30720, Note_on_c, 2, 55, 127
3, 31267, Control_c, 2, 11, 75
3, 31676, Note_off_c, 0, 61, 0
3, 31680, Note_on_c, 0, 67, 64
3, 31680, Note_on_c, 2, 52, 0
3, 31680, Note_on_c, 2, 55, 0
3, 32160, Note_on_c, 0, 62, 64
3, 32160, Note_on_c, 2, 50, 127
3, 32160, Note_on_c, 2, 60, 127
3, 33120, Note_on_c, 0, 66, 64
3, 33120, Note_off_c, 0, 67, 64
3, 34076, Note_off_c, 0, 62, 0
3, 34080, Note_on_c, 2, 50, 0
3, 34080, Note_on_c, 2, 60, 0
3, 34080, Note_off_c, 0, 66, 64
3, 34558, Control_c, 2, 11, 76
3, 34558, Control_c, 1, 11, 84
3, 34558, Control_c, 1, 7, 100
3, 34558, Control_c, 1, 10, 64
3, 34558, Control_c, 1, 11, 85
3, 34558, Control_c, 2, 7, 100
3, 34558, Control_c, 2, 10, 64
3, 34558, Control_c, 2, 11, 77
3, 34560, Control_c, 1, 11, 85
3, 34560, Control_c, 2, 11, 77
3, 34560, Control_c, 1, 7, 100
3, 34560, Control_c, 1, 10, 64
3, 34560, Control_c, 1, 11, 86
3, 34560, Control_c, 2, 7, 100
3, 34560, Control_c, 2, 10, 64
3, 34560, Control_c, 2, 11, 78
3, 35040, Note_on_c, 1, 55, 127
3, 35040, Note_on_c, 1, 58, 127
3, 35040, Note_on_c, 1, 62, 127
3, 35520, Note_on_c, 1, 55, 0
3, 35520, Note_on_c, 1, 55, 127
3, 35520, Note_on_c, 1, 58, 0
3, 35520, Note_on_c, 1, 58, 127
3, 35520, Note_on_c, 1, 62, 0
3, 35520, Note_on_c, 1, 62, 127
3, 36000, Note_on_c, 1, 55, 0
3, 36000, Note_on_c, 1, 58, 0
3, 36000, Note_on_c, 1, 62, 0
3, 36480, Note_on_c, 1, 55, 127
3, 36480, Note_on_c, 1, 58, 127
3, 36480, Note_on_c, 1, 62, 127
3, 36960, Note_on_c, 1, 55, 0
3, 36960, Note_on_c, 1, 55, 127
3, 36960, Note_on_c, 1, 58, 0
3, 36960, Note_on_c, 1, 58, 127
3, 36960, Note_on_c, 1, 62, 0
3, 36960, Note_on_c, 1, 62, 127
3, 37440, Note_on_c, 1, 55, 0
3, 37440, Note_on_c, 1, 58, 0
3, 37440, Note_on_c, 1, 62, 0
3, 37920, Note_on_c, 1, 55, 127
3, 37920, Note_on_c, 1, 58, 127
3, 37920, Note_on_c, 1, 62, 127
3, 38400, Note_on_c, 1, 55, 0
3, 38400, Note_on_c, 1, 55, 127
3, 38400, Note_on_c, 1, 58, 0
3, 38400, Note_on_c, 1, 58, 127
3, 38400, Note_on_c, 1, 62, 0
3, 38400, Note_on_c, 1, 62, 127
3, 38880, Note_on_c, 1, 55, 0
3, 38880, Note_on_c, 1, 58, 0
3, 38880, Note_on_c, 1, 62, 0
3, 39360, Note_on_c, 1, 55, 127
3, 39360, Note_on_c, 1, 58, 127
3, 39360, Note_on_c, 1, 62, 127
3, 39840, Note_on_c, 1, 55, 0
3, 39840, Note_on_c, 1, 55, 127
3, 39840, Note_on_c, 1, 58, 0
3, 39840, Note_on_c, 1, 58, 127
3, 39840, Note_on_c, 1, 62, 0
3, 39840, Note_on_c, 1, 62, 127
3, 40320, Note_on_c, 1, 55, 0
3, 40320, Note_on_c, 1, 58, 0
3, 40320, Note_on_c, 1, 62, 0
3, 40800, Note_on_c, 1, 55, 127
3, 40800, Note_on_c, 1, 58, 127
3, 40800, Note_on_c, 1, 63, 127
3, 41280, Note_on_c, 1, 55, 0
3, 41280, Note_on_c, 1, 55, 127
3, 41280, Note_on_c, 1, 58, 0
3, 41280, Note_on_c, 1, 58, 127
3, 41280, Note_on_c, 1, 63, 0
3, 41280, Note_on_c, 1, 63, 127
3, 41760, Note_on_c, 1, 55, 0
3, 41760, Note_on_c, 1, 58, 0
3, 41760, Note_on_c, 1, 63, 0
3, 42240, Note_on_c, 1, 54, 127
3, 42240, Note_on_c, 1, 60, 127
3, 42240, Note_on_c, 1, 62, 127
3, 42720, Note_on_c, 1, 54, 0
3, 42720, Note_on_c, 1, 54, 127
3, 42720, Note_on_c, 1, 60, 0
3, 42720, Note_on_c, 1, 60, 127
3, 42720, Note_on_c, 1, 62, 0
3, 42720, Note_on_c, 1, 62, 127
3, 42979, Control_c, 1, 11, 87
3, 43200, Note_on_c, 1, 54, 0
3, 43200, Note_on_c, 1, 60, 0
3, 43200, Note_on_c, 1, 62, 0
3, 43680, Note_on_c, 1, 55, 127
3, 43680, Note_on_c, 1, 58, 127
3, 43680, Note_on_c, 1, 62, 127
3, 44160, Note_on_c, 1, 55, 0
3, 44160, Note_on_c, 1, 55, 127
3, 44160, Note_on_c, 1, 58, 0
3, 44160, Note_on_c, 1, 58, 127
3, 44160, Note_on_c, 1, 62, 0
3, 44160, Note_on_c, 1, 62, 127
3, 44640, Note_on_c, 1, 55, 0
3, 44640, Note_on_c, 1, 58, 0
3, 44640, Note_on_c, 1, 62, 0
3, 45120, Note_on_c, 1, 55, 127
3, 45120, Note_on_c, 1, 58, 127
3, 45120, Note_on_c, 1, 62, 127
3, 45600, Note_on_c, 1, 55, 0
3, 45600, Note_on_c, 1, 55, 127
3, 45600, Note_on_c, 1, 58, 0
3, 45600, Note_on_c, 1, 58, 127
3, 45600, Note_on_c, 1, 62, 0
3, 45600, Note_on_c, 1, 62, 127
3, 46080, Note_on_c, 1, 55, 0
3, 46080, Note_on_c, 1, 58, 0
3, 46080, Note_on_c, 1, 62, 0
3, 46560, Note_on_c, 1, 55, 127
3, 46560, Note_on_c, 1, 58, 127
3, 46560, Note_on_c, 1, 63, 127
3, 47040, Note_on_c, 1, 55, 0
3, 47040, Note_on_c, 1, 55, 127
3, 47040, Note_on_c, 1, 58, 0
3, 47040, Note_on_c, 1, 58, 127
3, 47040, Note_on_c, 1, 63, 0
3, 47040, Note_on_c, 1, 63, 127
3, 47188, Control_c, 1, 11, 88
3, 47520, Note_on_c, 1, 55, 0
3, 47520, Note_on_c, 1, 58, 0
3, 47520, Note_on_c, 1, 63, 0
3, 48000, Note_on_c, 1, 57, 127
3, 48000, Note_on_c, 1, 60, 127
3, 48000, Note_on_c, 1, 63, 127
3, 48480, Note_on_c, 1, 57, 0
3, 48480, Note_on_c, 1, 57, 127
3, 48480, Note_on_c, 1, 60, 0
3, 48480, Note_on_c, 1, 60, 127
3, 48480, Note_on_c, 1, 63, 0
3, 48480, Note_on_c, 1, 63, 127
3, 48960, Note_on_c, 1, 57, 0
3, 48960, Note_on_c, 1, 60, 0
3, 48960, Note_on_c, 1, 63, 0
3, 49440, Note_on_c, 1, 53, 127
3, 49440, Note_on_c, 1, 57, 127
3, 49440, Note_on_c, 1, 62, 127
3, 49920, Note_on_c, 1, 53, 0
3, 49920, Note_on_c, 1, 53, 127
3, 49920, Note_on_c, 1, 57, 0
3, 49920, Note_on_c, 1, 57, 127
3, 49920, Note_on_c, 1, 62, 0
3, 49920, Note_on_c, 1, 62, 127
3, 50400, Note_on_c, 1, 53, 0
3, 50400, Note_on_c, 1, 57, 0
3, 50400, Note_on_c, 1, 62, 0
3, 50880, Note_on_c, 1, 53, 127
3, 50880, Note_on_c, 1, 57, 127
3, 50880, Note_on_c, 1, 62, 127
3, 51360, Note_on_c, 1, 53, 0
3, 51360, Note_on_c, 1, 53, 127
3, 51360, Note_on_c, 1, 57, 0
3, 51360, Note_on_c, 1, 57, 127
3, 51360, Note_on_c, 1, 62, 0
3, 51360, Note_on_c, 1, 62, 127
3, 51397, Control_c, 1, 11, 89
3, 51840, Note_on_c, 1, 53, 0
3, 51840, Note_on_c, 1, 57, 0
3, 51840, Note_on_c, 1, 62, 0
3, 52320, Note_on_c, 1, 55, 127
3, 52320, Note_on_c, 1, 58, 127
3, 52320, Note_on_c, 1, 62, 127
3, 52800, Note_on_c, 1, 55, 0
3, 52800, Note_on_c, 1, 55, 127
3, 52800, Note_on_c, 1, 58, 0
3, 52800, Note_on_c, 1, 58, 127
3, 52800, Note_on_c, 1, 62, 0
3, 52800, Note_on_c, 1, 62, 127
3, 53280, Note_on_c, 1, 55, 0
3, 53280, Note_on_c, 1, 58, 0
3, 53280, Note_on_c, 1, 62, 0
3, 53760, Note_on_c, 1, 52, 127
3, 53760, Note_on_c, 1, 55, 127
3, 53760, Note_on_c, 1, 61, 127
3, 54240, Note_on_c, 1, 52, 0
3, 54240, Note_on_c, 1, 52, 127
3, 54240, Note_on_c, 1, 55, 0
3, 54240, Note_on_c, 1, 55, 127
3, 54240, Note_on_c, 1, 61, 0
3, 54240, Note_on_c, 1, 61, 127
3, 54720, Note_on_c, 1, 52, 0
3, 54720, Note_on_c, 1, 55, 0
3, 54720, Note_on_c, 1, 61, 0
3, 55200, Note_on_c, 1, 53, 127
3, 55200, Note_on_c, 1, 57, 127
3, 55200, Note_on_c, 1, 62, 127
3, 55606, Control_c, 1, 11, 90
3, 55680, Note_on_c, 1, 53, 0
3, 55680, Note_on_c, 1, 53, 127
3, 55680, Note_on_c, 1, 57, 0
3, 55680, Note_on_c, 1, 57, 127
3, 55680, Note_on_c, 1, 62, 0
3, 55680, Note_on_c, 1, 62, 127
3, 56160, Note_on_c, 1, 53, 0
3, 56160, Note_on_c, 1, 57, 0
3, 56160, Note_on_c, 1, 62, 0
3, 56640, Note_on_c, 1, 53, 127
3, 56640, Note_on_c, 1, 57, 127
3, 56640, Note_on_c, 1, 62, 127
3, 57120, Note_on_c, 1, 53, 0
3, 57120, Note_on_c, 1, 53, 127
3, 57120, Note_on_c, 1, 57, 0
3, 57120, Note_on_c, 1, 57, 127
3, 57120, Note_on_c, 1, 62, 0
3, 57120, Note_on_c, 1, 62, 127
3, 57600, Note_on_c, 1, 53, 0
3, 57600, Note_on_c, 1, 57, 0
3, 57600, Note_on_c, 1, 62, 0
3, 58080, Note_on_c, 1, 53, 127
3, 58080, Note_on_c, 1, 58, 127
3, 58080, Note_on_c, 1, 62, 127
3, 58560, Note_on_c, 1, 53, 0
3, 58560, Note_on_c, 1, 53, 127
3, 58560, Note_on_c, 1, 58, 0
3, 58560, Note_on_c, 1, 58, 127
3, 58560, Note_on_c, 1, 62, 0
3, 58560, Note_on_c, 1, 62, 127
3, 59040, Note_on_c, 1, 53, 0
3, 59040, Note_on_c, 1, 58, 0
3, 59040, Note_on_c, 1, 62, 0
3, 59520, Note_on_c, 1, 52, 127
3, 59520, Note_on_c, 1, 55, 127
3, 59520, Note_on_c, 1, 62, 127
3, 59815, Control_c, 1, 11, 91
3, 60000, Note_on_c, 1, 52, 0
3, 60000, Note_on_c, 1, 52, 127
3, 60000, Note_on_c, 1, 55, 0
3, 60000, Note_on_c, 1, 55, 127
3, 60000, Note_on_c, 1, 62, 0
3, 60000, Note_on_c, 1, 62, 127
3, 60480, Note_on_c, 1, 52, 0
3, 60480, Note_on_c, 1, 55, 0
3, 60480, Note_on_c, 1, 62, 0
3, 60960, Note_on_c, 1, 57, 127
3, 60960, Note_on_c, 1, 60, 127
3, 60960, Note_on_c, 1, 63, 127
3, 60960, Note_on_c, 1, 67, 127
3, 61440, Note_on_c, 1, 57, 0
3, 61440, Note_on_c, 1, 57, 127
3, 61440, Note_on_c, 1, 60, 0
3, 61440, Note_on_c, 1, 60, 127
3, 61440, Note_on_c, 1, 63, 0
3, 61440, Note_on_c, 1, 63, 127
3, 61440, Note_on_c, 1, 67, 0
3, 61440, Note_on_c, 1, 67, 127
3, 61920, Note_on_c, 1, 57, 0
3, 61920, Note_on_c, 1, 60, 0
3, 61920, Note_on_c, 1, 63, 0
3, 61920, Note_on_c, 1, 67, 0
3, 62400, Note_on_c, 1, 57, 127
3, 62400, Note_on_c, 1, 60, 127
3, 62400, Note_on_c, 1, 63, 127
3, 62400, Note_on_c, 1, 67, 127
3, 62880, Note_on_c, 1, 57, 0
3, 62880, Note_on_c, 1, 57, 127
3, 62880, Note_on_c, 1, 60, 0
3, 62880, Note_on_c, 1, 60, 127
3, 62880, Note_on_c, 1, 63, 0
3, 62880, Note_on_c, 1, 63, 127
3, 62880, Note_on_c, 1, 67, 0
3, 62880, Note_on_c, 1, 67, 127
3, 63360, Note_on_c, 1, 57, 0
3, 63360, Note_on_c, 1, 60, 0
3, 63360, Note_on_c, 1, 63, 0
3, 63360, Note_on_c, 1, 67, 0
3, 63840, Note_on_c, 1, 55, 127
3, 63840, Note_on_c, 1, 58, 127
3, 63840, Note_on_c, 1, 63, 127
3, 64025, Control_c, 1, 11, 92
3, 64320, Note_on_c, 1, 55, 0
3, 64320, Note_on_c, 1, 55, 127
3, 64320, Note_on_c, 1, 58, 0
3, 64320, Note_on_c, 1, 58, 127
3, 64320, Note_on_c, 1, 63, 0
3, 64320, Note_on_c, 1, 63, 127
3, 64800, Note_on_c, 1, 55, 0
3, 64800, Note_on_c, 1, 58, 0
3, 64800, Note_on_c, 1, 63, 0
3, 65280, Note_on_c, 1, 54, 127
3, 65280, Note_on_c, 1, 60, 127
3, 65280, Note_on_c, 1, 62, 127
3, 65760, Note_on_c, 1, 54, 0
3, 65760, Note_on_c, 1, 54, 127
3, 65760, Note_on_c, 1, 60, 0
3, 65760, Note_on_c, 1, 60, 127
3, 65760, Note_on_c, 1, 62, 0
3, 65760, Note_on_c, 1, 62, 127
3, 66240, Note_on_c, 1, 54, 0
3, 66240, Note_on_c, 1, 60, 0
3, 66240, Note_on_c, 1, 62, 0
3, 66720, Note_on_c, 1, 55, 127
3, 66720, Note_on_c, 1, 58, 127
3, 66720, Note_on_c, 1, 62, 127
3, 67200, Note_on_c, 1, 55, 0
3, 67200, Note_on_c, 1, 55, 127
3, 67200, Note_on_c, 1, 58, 0
3, 67200, Note_on_c, 1, 58, 127
3, 67200, Note_on_c, 1, 62, 0
3, 67200, Note_on_c, 1, 62, 127
3, 67680, Note_on_c, 1, 55, 0
3, 67680, Note_on_c, 1, 55, 127
3, 67680, Note_on_c, 1, 58, 0
3, 67680, Note_on_c, 1, 58, 127
3, 67680, Note_on_c, 1, 62, 0
3, 67680, Note_on_c, 1, 62, 127
3, 68234, Control_c, 1, 11, 93
3, 68400, Note_on_c, 1, 55, 0
3, 68400, Note_on_c, 1, 55, 127
3, 68400, Note_on_c, 1, 58, 0
3, 68400, Note_on_c, 1, 58, 127
3, 68400, Note_on_c, 1, 62, 0
3, 68400, Note_on_c, 1, 62, 127
3, 69120, Note_on_c, 1, 55, 0
3, 69120, Note_on_c, 1, 58, 0
3, 69120, Note_on_c, 1, 62, 0
3, 69600, Note_on_c, 1, 55, 127
3, 69600, Note_on_c, 1, 58, 127
3, 69600, Note_on_c, 1, 63, 127
3, 70080, Note_on_c, 1, 55, 0
3, 70080, Note_on_c, 1, 55, 127
3, 70080, Note_on_c, 1, 58, 0
3, 70080, Note_on_c, 1, 58, 127
3, 70080, Note_on_c, 1, 63, 0
3, 70080, Note_on_c, 1, 63, 127
3, 70560, Note_on_c, 1, 55, 0
3, 70560, Note_on_c, 1, 58, 0
3, 70560, Note_on_c, 1, 63, 0
3, 71040, Note_on_c, 1, 57, 127
3, 71040, Note_on_c, 1, 60, 127
3, 71040, Note_on_c, 1, 63, 127
3, 71520, Note_on_c, 1, 57, 0
3, 71520, Note_on_c, 1, 57, 127
3, 71520, Note_on_c, 1, 60, 0
3, 71520, Note_on_c, 1, 60, 127
3, 71520, Note_on_c, 1, 63, 0
3, 71520, Note_on_c, 1, 63, 127
3, 72000, Note_on_c, 1, 57, 0
3, 72000, Note_on_c, 1, 60, 0
3, 72000, Note_on_c, 1, 63, 0
3, 72443, Control_c, 1, 11, 94
3, 72480, Note_on_c, 1, 53, 127
3, 72480, Note_on_c, 1, 57, 127
3, 72480, Note_on_c, 1, 62, 127
3, 72960, Note_on_c, 1, 53, 0
3, 72960, Note_on_c, 1, 53, 127
3, 72960, Note_on_c, 1, 57, 0
3, 72960, Note_on_c, 1, 57, 127
3, 72960, Note_on_c, 1, 62, 0
3, 72960, Note_on_c, 1, 62, 127
3, 73440, Note_on_c, 1, 53, 0
3, 73440, Note_on_c, 1, 57, 0
3, 73440, Note_on_c, 1, 62, 0
3, 73920, Note_on_c, 1, 53, 127
3, 73920, Note_on_c, 1, 57, 127
3, 73920, Note_on_c, 1, 62, 127
3, 74400, Note_on_c, 1, 53, 0
3, 74400, Note_on_c, 1, 53, 127
3, 74400, Note_on_c, 1, 57, 0
3, 74400, Note_on_c, 1, 57, 127
3, 74400, Note_on_c, 1, 62, 0
3, 74400, Note_on_c, 1, 62, 127
3, 74880, Note_on_c, 1, 53, 0
3, 74880, Note_on_c, 1, 57, 0
3, 74880, Note_on_c, 1, 62, 0
3, 75360, Note_on_c, 1, 55, 127
3, 75360, Note_on_c, 1, 58, 127
3, 75360, Note_on_c, 1, 62, 127
3, 75840, Note_on_c, 1, 55, 0
3, 75840, Note_on_c, 1, 55, 127
3, 75840, Note_on_c, 1, 58, 0
3, 75840, Note_on_c, 1, 58, 127
3, 75840, Note_on_c, 1, 62, 0
3, 75840, Note_on_c, 1, 62, 127
3, 76320, Note_on_c, 1, 55, 0
3, 76320, Note_on_c, 1, 58, 0
3, 76320, Note_on_c, 1, 62, 0
3, 76652, Control_c, 1, 11, 95
3, 76800, Note_on_c, 1, 52, 127
3, 76800, Note_on_c, 1, 55, 127
3, 76800, Note_on_c, 1, 61, 127
3, 77280, Note_on_c, 1, 52, 0
3, 77280, Note_on_c, 1, 52, 127
3, 77280, Note_on_c, 1, 55, 0
3, 77280, Note_on_c, 1, 55, 127
3, 77280, Note_on_c, 1, 61, 0
3, 77280, Note_on_c, 1, 61, 127
3, 77760, Note_on_c, 1, 52, 0
3, 77760, Note_on_c, 1, 55, 0
3, 77760, Note_on_c, 1, 61, 0
3, 78240, Note_on_c, 1, 53, 127
3, 78240, Note_on_c, 1, 57, 127
3, 78240, Note_on_c, 1, 62, 127
3, 78720, Note_on_c, 1, 53, 0
3, 78720, Note_on_c, 1, 53, 127
3, 78720, Note_on_c, 1, 57, 0
3, 78720, Note_on_c, 1, 57, 127
3, 78720, Note_on_c, 1, 62, 0
3, 78720, Note_on_c, 1, 62, 127
3, 79200, Note_on_c, 1, 53, 0
3, 79200, Note_on_c, 1, 57, 0
3, 79200, Note_on_c, 1, 62, 0
3, 79680, Note_on_c, 1, 53, 127
3, 79680, Note_on_c, 1, 57, 127
3, 79680, Note_on_c, 1, 62, 127
3, 80160, Note_on_c, 1, 53, 0
3, 80160, Note_on_c, 1, 53, 127
3, 80160, Note_on_c, 1, 57, 0
3, 80160, Note_on_c, 1, 57, 127
3, 80160, Note_on_c, 1, 62, 0
3, 80160, Note_on_c, 1, 62, 127
3, 80640, Note_on_c, 1, 53, 0
3, 80640, Note_on_c, 1, 57, 0
3, 80640, Note_on_c, 1, 62, 0
3, 80861, Control_c, 1, 11, 96
3, 81120, Note_on_c, 1, 53, 127
3, 81120, Note_on_c, 1, 58, 127
3, 81120, Note_on_c, 1, 62, 127
3, 81600, Note_on_c, 1, 53, 0
3, 81600, Note_on_c, 1, 53, 127
3, 81600, Note_on_c, 1, 58, 0
3, 81600, Note_on_c, 1, 58, 127
3, 81600, Note_on_c, 1, 62, 0
3, 81600, Note_on_c, 1, 62, 127
3, 82080, Note_on_c, 1, 53, 0
3, 82080, Note_on_c, 1, 58, 0
3, 82080, Note_on_c, 1, 62, 0
3, 82560, Note_on_c, 1, 52, 127
3, 82560, Note_on_c, 1, 55, 127
3, 82560, Note_on_c, 1, 61, 127
3, 83040, Note_on_c, 1, 52, 0
3, 83040, Note_on_c, 1, 52, 127
3, 83040, Note_on_c, 1, 55, 0
3, 83040, Note_on_c, 1, 55, 127
3, 83040, Note_on_c, 1, 61, 0
3, 83040, Note_on_c, 1, 61, 127
3, 83520, Note_on_c, 1, 52, 0
3, 83520, Note_on_c, 1, 55, 0
3, 83520, Note_on_c, 1, 61, 0
3, 84000, Note_on_c, 1, 54, 127
3, 84000, Note_on_c, 1, 57, 127
3, 84000, Note_on_c, 1, 62, 127
3, 84480, Note_on_c, 1, 54, 0
3, 84480, Note_on_c, 1, 54, 127
3, 84480, Note_on_c, 1, 57, 0
3, 84480, Note_on_c, 1, 57, 127
3, 84480, Note_on_c, 1, 62, 0
3, 84480, Note_on_c, 1, 62, 127
3, 84960, Note_on_c, 1, 54, 0
3, 84960, Note_on_c, 1, 57, 0
3, 84960, Note_on_c, 1, 62, 0
3, 85070, Control_c, 1, 11, 97
3, 85440, Note_on_c, 1, 54, 127
3, 85440, Note_on_c, 1, 57, 127
3, 85440, Note_on_c, 1, 62, 127
3, 85920, Note_on_c, 1, 54, 0
3, 85920, Note_on_c, 1, 54, 127
3, 85920, Note_on_c, 1, 57, 0
3, 85920, Note_on_c, 1, 57, 127
3, 85920, Note_on_c, 1, 62, 0
3, 85920, Note_on_c, 1, 62, 127
3, 86400, Note_on_c, 1, 54, 0
3, 86400, Note_on_c, 1, 57, 0
3, 86400, Note_on_c, 1, 62, 0
3, 86880, Note_on_c, 1, 54, 127
3, 86880, Note_on_c, 1, 57, 127
3, 86880, Note_on_c, 1, 62, 127
3, 87360, Note_on_c, 1, 54, 0
3, 87360, Note_on_c, 1, 54, 127
3, 87360, Note_on_c, 1, 57, 0
3, 87360, Note_on_c, 1, 57, 127
3, 87360, Note_on_c, 1, 62, 0
3, 87360, Note_on_c, 1, 62, 127
3, 87840, Note_on_c, 1, 54, 0
3, 87840, Note_on_c, 1, 57, 0
3, 87840, Note_on_c, 1, 62, 0
3, 88320, Note_on_c, 1, 54, 127
3, 88320, Note_on_c, 1, 57, 127
3, 88320, Note_on_c, 1, 62, 127
3, 88800, Note_on_c, 1, 54, 0
3, 88800, Note_on_c, 1, 54, 127
3, 88800, Note_on_c, 1, 57, 0
3, 88800, Note_on_c, 1, 57, 127
3, 88800, Note_on_c, 1, 62, 0
3, 88800, Note_on_c, 1, 62, 127
3, 89279, Control_c, 1, 11, 98
3, 89279, Control_c, 1, 7, 100
3, 89279, Control_c, 1, 10, 64
3, 89279, Control_c, 1, 11, 99
3, 89279, Note_on_c, 1, 54, 0
3, 89279, Note_on_c, 1, 57, 0
3, 89279, Note_on_c, 1, 62, 0
3, 89279, Note_on_c, 2, 53, 127
3, 89279, Control_c, 2, 7, 100
3, 89279, Control_c, 2, 10, 64
3, 89279, Control_c, 2, 11, 79
3, 89760, Note_on_c, 2, 53, 0
3, 89760, Note_on_c, 2, 55, 127
3, 89760, Note_on_c, 2, 58, 127
3, 89760, Note_on_c, 2, 63, 127
3, 90240, Note_on_c, 2, 55, 0
3, 90240, Note_on_c, 2, 55, 127
3, 90240, Note_on_c, 2, 58, 0
3, 90240, Note_on_c, 2, 58, 127
3, 90240, Note_on_c, 2, 63, 0
3, 90240, Note_on_c, 2, 63, 127
3, 90720, Note_on_c, 2, 53, 127
3, 90720, Note_on_c, 2, 55, 0
3, 90720, Note_on_c, 2, 58, 0
3, 90720, Note_on_c, 2, 63, 0
3, 91200, Note_on_c, 2, 53, 0
3, 91200, Note_on_c, 2, 57, 127
3, 91200, Note_on_c, 2, 60, 127
3, 91200, Note_on_c, 2, 63, 127
3, 91680, Note_on_c, 2, 57, 0
3, 91680, Note_on_c, 2, 57, 127
3, 91680, Note_on_c, 2, 60, 0
3, 91680, Note_on_c, 2, 60, 127
3, 91680, Note_on_c, 2, 63, 0
3, 91680, Note_on_c, 2, 63, 127
3, 92160, Note_on_c, 2, 57, 0
3, 92160, Note_on_c, 2, 58, 127
3, 92160, Note_on_c, 2, 60, 0
3, 92160, Note_on_c, 2, 63, 0
3, 92640, Note_on_c, 2, 53, 127
3, 92640, Note_on_c, 2, 57, 127
3, 92640, Note_on_c, 2, 58, 0
3, 92640, Note_on_c, 2, 62, 127
3, 93120, Note_on_c, 2, 53, 0
3, 93120, Note_on_c, 2, 53, 127
3, 93120, Note_on_c, 2, 57, 0
3, 93120, Note_on_c, 2, 57, 127
3, 93120, Note_on_c, 2, 62, 0
3, 93120, Note_on_c, 2, 62, 127
3, 93600, Note_on_c, 2, 53, 0
3, 93600, Note_on_c, 2, 57, 0
3, 93600, Note_on_c, 2, 58, 127
3, 93600, Note_on_c, 2, 62, 0
3, 93888, Control_c, 2, 11, 80
3, 94080, Note_on_c, 2, 53, 127
3, 94080, Note_on_c, 2, 57, 127
3, 94080, Note_on_c, 2, 58, 0
3, 94080, Note_on_c, 2, 62, 127
3, 94560, Note_on_c, 2, 53, 0
3, 94560, Note_on_c, 2, 53, 127
3, 94560, Note_on_c, 2, 57, 0
3, 94560, Note_on_c, 2, 57, 127
3, 94560, Note_on_c, 2, 62, 0
3, 94560, Note_on_c, 2, 62, 127
3, 95040, Note_on_c, 2, 53, 0
3, 95040, Note_on_c, 2, 53, 127
3, 95040, Note_on_c, 2, 57, 0
3, 95040, Note_on_c, 2, 62, 0
3, 95520, Note_on_c, 2, 53, 0
3, 95520, Note_on_c, 2, 55, 127
3, 95520, Note_on_c, 2, 58, 127
3, 95520, Note_on_c, 2, 63, 127
3, 96000, Note_on_c, 2, 55, 0
3, 96000, Note_on_c, 2, 55, 127
3, 96000, Note_on_c, 2, 58, 0
3, 96000, Note_on_c, 2, 58, 127
3, 96000, Note_on_c, 2, 63, 0
3, 96000, Note_on_c, 2, 63, 127
3, 96192, Control_c, 2, 11, 81
3, 96480, Note_on_c, 2, 53, 127
3, 96480, Note_on_c, 2, 55, 0
3, 96480, Note_on_c, 2, 58, 0
3, 96480, Note_on_c, 2, 63, 0
3, 96960, Note_on_c, 2, 53, 0
3, 96960, Note_on_c, 2, 57, 127
3, 96960, Note_on_c, 2, 60, 127
3, 96960, Note_on_c, 2, 63, 127
3, 97440, Note_on_c, 2, 57, 0
3, 97440, Note_on_c, 2, 57, 127
3, 97440, Note_on_c, 2, 60, 0
3, 97440, Note_on_c, 2, 60, 127
3, 97440, Note_on_c, 2, 63, 0
3, 97440, Note_on_c, 2, 63, 127
3, 97920, Note_on_c, 2, 50, 127
3, 97920, Note_on_c, 2, 57, 0
3, 97920, Note_on_c, 2, 60, 0
3, 97920, Note_on_c, 2, 63, 0
3, 98400, Note_on_c, 2, 50, 0
3, 98400, Note_on_c, 2, 53, 127
3, 98400, Note_on_c, 2, 57, 127
3, 98400, Note_on_c, 2, 62, 127
3, 98496, Control_c, 2, 11, 82
3, 98880, Note_on_c, 2, 53, 0
3, 98880, Note_on_c, 2, 53, 127
3, 98880, Note_on_c, 2, 57, 0
3, 98880, Note_on_c, 2, 57, 127
3, 98880, Note_on_c, 2, 62, 0
3, 98880, Note_on_c, 2, 62, 127
3, 99360, Note_on_c, 2, 50, 127
3, 99360, Note_on_c, 2, 53, 0
3, 99360, Note_on_c, 2, 57, 0
3, 99360, Note_on_c, 2, 62, 0
3, 99840, Note_on_c, 2, 50, 0
3, 99840, Note_on_c, 2, 53, 127
3, 99840, Note_on_c, 2, 57, 127
3, 99840, Note_on_c, 2, 62, 127
3, 100320, Note_on_c, 2, 53, 0
3, 100320, Note_on_c, 2, 53, 127
3, 100320, Note_on_c, 2, 57, 0
3, 100320, Note_on_c, 2, 57, 127
3, 100320, Note_on_c, 2, 62, 0
3, 100320, Note_on_c, 2, 62, 127
3, 100800, Control_c, 2, 11, 83
3, 100800, Note_on_c, 2, 50, 127
3, 100800, Note_on_c, 2, 53, 0
3, 100800, Note_on_c, 2, 57, 0
3, 100800, Note_on_c, 2, 62, 0
3, 101280, Note_on_c, 2, 50, 0
3, 101280, Note_on_c, 2, 57, 127
3, 101280, Note_on_c, 2, 62, 127
3, 101280, Note_on_c, 2, 65, 127
3, 101760, Note_on_c, 2, 57, 0
3, 101760, Note_on_c, 2, 57, 127
3, 101760, Note_on_c, 2, 62, 0
3, 101760, Note_on_c, 2, 62, 127
3, 101760, Note_on_c, 2, 65, 0
3, 101760, Note_on_c, 2, 65, 127
3, 102240, Note_on_c, 2, 50, 127
3, 102240, Note_on_c, 2, 57, 0
3, 102240, Note_on_c, 2, 62, 0
3, 102240, Note_on_c, 2, 65, 0
3, 102720, Note_on_c, 2, 50, 0
3, 102720, Note_on_c, 2, 57, 127
3, 102720, Note_on_c, 2, 62, 127
3, 102720, Note_on_c, 2, 65, 127
3, 103104, Control_c, 2, 11, 84
3, 103200, Note_on_c, 2, 57, 0
3, 103200, Note_on_c, 2, 57, 127
3, 103200, Note_on_c, 2, 62, 0
3, 103200, Note_on_c, 2, 62, 127
3, 103200, Note_on_c, 2, 65, 0
3, 103200, Note_on_c, 2, 65, 127
3, 103680, Note_on_c, 2, 52, 127
3, 103680, Note_on_c, 2, 57, 0
3, 103680, Note_on_c, 2, 62, 0
3, 103680, Note_on_c, 2, 65, 0
3, 104160, Note_on_c, 2, 52, 0
3, 104160, Note_on_c, 2, 57, 127
3, 104160, Note_on_c, 2, 61, 127
3, 104160, Note_on_c, 2, 64, 127
3, 104640, Note_on_c, 2, 57, 0
3, 104640, Note_on_c, 2, 57, 127
3, 104640, Note_on_c, 2, 61, 0
3, 104640, Note_on_c, 2, 61, 127
3, 104640, Note_on_c, 2, 64, 0
3, 104640, Note_on_c, 2, 64, 127
3, 105120, Note_on_c, 2, 52, 127
3, 105120, Note_on_c, 2, 57, 0
3, 105120, Note_on_c, 2, 61, 0
3, 105120, Note_on_c, 2, 64, 0
3, 105408, Control_c, 2, 11, 85
3, 105600, Note_on_c, 2, 52, 0
3, 105600, Note_on_c, 2, 57, 127
3, 105600, Note_on_c, 2, 61, 127
3, 105600, Note_on_c, 2, 64, 127
3, 106080, Note_on_c, 2, 57, 0
3, 106080, Note_on_c, 2, 57, 127
3, 106080, Note_on_c, 2, 61, 0
3, 106080, Note_on_c, 2, 61, 127
3, 106080, Note_on_c, 2, 64, 0
3, 106080, Note_on_c, 2, 64, 127
3, 106560, Note_on_c, 2, 50, 127
3, 106560, Note_on_c, 2, 57, 0
3, 106560, Note_on_c, 2, 61, 0
3, 106560, Note_on_c, 2, 64, 0
3, 107040, Note_on_c, 2, 50, 0
3, 107040, Note_on_c, 2, 57, 127
3, 107040, Note_on_c, 2, 62, 127
3, 107040, Note_on_c, 2, 65, 127
3, 107520, Note_on_c, 2, 57, 0
3, 107520, Note_on_c, 2, 57, 127
3, 107520, Note_on_c, 2, 62, 0
3, 107520, Note_on_c, 2, 62, 127
3, 107520, Note_on_c, 2, 65, 0
3, 107520, Note_on_c, 2, 65, 127
3, 107712, Control_c, 2, 11, 86
3, 108000, Note_on_c, 2, 50, 127
3, 108000, Note_on_c, 2, 57, 0
3, 108000, Note_on_c, 2, 62, 0
3, 108000, Note_on_c, 2, 65, 0
3, 108480, Note_on_c, 2, 50, 0
3, 108480, Note_on_c, 2, 57, 127
3, 108480, Note_on_c, 2, 62, 127
3, 108480, Note_on_c, 2, 65, 127
3, 108960, Note_on_c, 2, 57, 0
3, 108960, Note_on_c, 2, 57, 127
3, 108960, Note_on_c, 2, 62, 0
3, 108960, Note_on_c, 2, 62, 127
3, 108960, Note_on_c, 2, 65, 0
3, 108960, Note_on_c, 2, 65, 127
3, 109440, Note_on_c, 2, 52, 127
3, 109440, Note_on_c, 2, 57, 0
3, 109440, Note_on_c, 2, 62, 0
3, 109440, Note_on_c, 2, 65, 0
3, 109920, Note_on_c, 2, 52, 0
3, 109920, Note_on_c, 2, 57, 127
3, 109920, Note_on_c, 2, 61, 127
3, 109920, Note_on_c, 2, 64, 127
3, 110016, Control_c, 2, 11, 87
3, 110400, Note_on_c, 2, 57, 0
3, 110400, Note_on_c, 2, 57, 127
3, 110400, Note_on_c, 2, 61, 0
3, 110400, Note_on_c, 2, 61, 127
3, 110400, Note_on_c, 2, 64, 0
3, 110400, Note_on_c, 2, 64, 127
3, 110880, Note_on_c, 2, 52, 127
3, 110880, Note_on_c, 2, 57, 0
3, 110880, Note_on_c, 2, 61, 0
3, 110880, Note_on_c, 2, 64, 0
3, 111360, Note_on_c, 2, 52, 0
3, 111360, Note_on_c, 2, 55, 127
3, 111360, Note_on_c, 2, 57, 127
3, 111360, Note_on_c, 2, 61, 127
3, 111360, Note_on_c, 2, 64, 127
3, 111840, Note_on_c, 2, 52, 127
3, 111840, Note_on_c, 2, 55, 0
3, 111840, Note_on_c, 2, 57, 0
3, 111840, Note_on_c, 2, 57, 127
3, 111840, Note_on_c, 2, 61, 0
3, 111840, Note_on_c, 2, 61, 127
3, 111840, Note_on_c, 2, 64, 0
3, 111840, Note_on_c, 2, 64, 127
3, 112319, Control_c, 2, 11, 88
3, 112319, Control_c, 2, 7, 100
3, 112319, Control_c, 2, 10, 64
3, 112319, Control_c, 2, 11, 89
3, 112319, Control_c, 2, 11, 90
3, 112319, Note_on_c, 2, 50, 127
3, 112319, Note_on_c, 2, 52, 0
3, 112319, Note_on_c, 2, 57, 0
3, 112319, Note_on_c, 2, 61, 0
3, 112319, Note_on_c, 2, 64, 0
3, 112319, Control_c, 2, 7, 100
3, 112319, Control_c, 2, 10, 64
3, 112319, Control_c, 2, 11, 89
3, 112800, Note_on_c, 2, 54, 127
3, 112800, Note_on_c, 2, 60, 127
3, 112800, Note_on_c, 2, 63, 127
3, 113280, Note_on_c, 2, 54, 0
3, 113280, Note_on_c, 2, 54, 127
3, 113280, Note_on_c, 2, 60, 0
3, 113280, Note_on_c, 2, 60, 127
3, 113280, Note_on_c, 2, 63, 0
3, 113280, Note_on_c, 2, 63, 127
3, 113760, Note_on_c, 2, 50, 0
3, 113760, Note_on_c, 2, 50, 127
3, 113760, Note_on_c, 2, 54, 0
3, 113760, Note_on_c, 2, 60, 0
3, 113760, Note_on_c, 2, 63, 0
3, 114240, Note_on_c, 2, 54, 127
3, 114240, Note_on_c, 2, 60, 127
3, 114240, Note_on_c, 2, 63, 127
3, 114720, Note_on_c, 2, 54, 0
3, 114720, Note_on_c, 2, 54, 127
3, 114720, Note_on_c, 2, 60, 0
3, 114720, Note_on_c, 2, 60, 127
3, 114720, Note_on_c, 2, 63, 0
3, 114720, Note_on_c, 2, 63, 127
3, 115200, Note_on_c, 2, 50, 0
3, 115200, Note_on_c, 2, 54, 0
3, 115200, Note_on_c, 2, 55, 127
3, 115200, Note_on_c, 2, 60, 0
3, 115200, Note_on_c, 2, 63, 0
3, 115680, Note_on_c, 2, 53, 127
3, 115680, Note_on_c, 2, 58, 127
3, 115680, Note_on_c, 2, 62, 127
3, 116160, Note_on_c, 2, 53, 0
3, 116160, Note_on_c, 2, 53, 127
3, 116160, Note_on_c, 2, 58, 0
3, 116160, Note_on_c, 2, 58, 127
3, 116160, Note_on_c, 2, 62, 0
3, 116160, Note_on_c, 2, 62, 127
3, 116640, Note_on_c, 2, 53, 0
3, 116640, Note_on_c, 2, 55, 0
3, 116640, Note_on_c, 2, 55, 127
3, 116640, Note_on_c, 2, 58, 0
3, 116640, Note_on_c, 2, 62, 0
3, 117120, Note_on_c, 2, 53, 127
3, 117120, Note_on_c, 2, 58, 127
3, 117120, Note_on_c, 2, 62, 127
3, 117600, Note_on_c, 2, 53, 0
3, 117600, Note_on_c, 2, 53, 127
3, 117600, Note_on_c, 2, 58, 0
3, 117600, Note_on_c, 2, 58, 127
3, 117600, Note_on_c, 2, 62, 0
3, 117600, Note_on_c, 2, 62, 127
3, 118080, Note_on_c, 2, 48, 127
3, 118080, Note_on_c, 2, 53, 0
3, 118080, Note_on_c, 2, 55, 0
3, 118080, Note_on_c, 2, 58, 0
3, 118080, Note_on_c, 2, 62, 0
3, 118560, Note_on_c, 2, 52, 127
3, 118560, Note_on_c, 2, 58, 127
3, 118560, Note_on_c, 2, 62, 127
3, 118800, Control_c, 2, 11, 88
3, 119040, Note_on_c, 2, 52, 0
3, 119040, Note_on_c, 2, 52, 127
3, 119040, Note_on_c, 2, 58, 0
3, 119040, Note_on_c, 2, 58, 127
3, 119040, Note_on_c, 2, 62, 0
3, 119040, Note_on_c, 2, 62, 127
3, 119520, Note_on_c, 2, 48, 0
3, 119520, Note_on_c, 2, 48, 127
3, 119520, Note_on_c, 2, 52, 0
3, 119520, Note_on_c, 2, 58, 0
3, 119520, Note_on_c, 2, 62, 0
3, 120000, Note_on_c, 2, 52, 127
3, 120000, Note_on_c, 2, 58, 127
3, 120000, Note_on_c, 2, 62, 127
3, 120480, Note_on_c, 2, 52, 0
3, 120480, Note_on_c, 2, 52, 127
3, 120480, Note_on_c, 2, 58, 0
3, 120480, Note_on_c, 2, 58, 127
3, 120480, Note_on_c, 2, 62, 0
3, 120480, Note_on_c, 2, 62, 127
3, 120960, Note_on_c, 2, 48, 0
3, 120960, Note_on_c, 2, 52, 0
3, 120960, Note_on_c, 2, 53, 127
3, 120960, Note_on_c, 2, 58, 0
3, 120960, Note_on_c, 2, 62, 0
3, 121440, Note_on_c, 2, 52, 127
3, 121440, Note_on_c, 2, 57, 127
3, 121440, Note_on_c, 2, 60, 127
3, 121920, Note_on_c, 2, 52, 0
3, 121920, Note_on_c, 2, 52, 127
3, 121920, Note_on_c, 2, 57, 0
3, 121920, Note_on_c, 2, 57, 127
3, 121920, Note_on_c, 2, 60, 0
3, 121920, Note_on_c, 2, 60, 127
3, 122400, Note_on_c, 2, 52, 0
3, 122400, Note_on_c, 2, 53, 0
3, 122400, Note_on_c, 2, 53, 127
3, 122400, Note_on_c, 2, 57, 0
3, 122400, Note_on_c, 2, 60, 0
3, 122880, Note_on_c, 2, 52, 127
3, 122880, Note_on_c, 2, 57, 127
3, 122880, Note_on_c, 2, 60, 127
3, 123360, Note_on_c, 2, 52, 0
3, 123360, Note_on_c, 2, 52, 127
3, 123360, Note_on_c, 2, 57, 0
3, 123360, Note_on_c, 2, 57, 127
3, 123360, Note_on_c, 2, 60, 0
3, 123360, Note_on_c, 2, 60, 127
3, 123840, Note_on_c, 2, 52, 0
3, 123840, Note_on_c, 2, 53, 0
3, 123840, Note_on_c, 2, 57, 0
3, 123840, Note_on_c, 2, 59, 127
3, 123840, Note_on_c, 2, 60, 0
3, 124320, Note_on_c, 2, 54, 127
3, 124320, Note_on_c, 2, 57, 127
3, 124320, Note_on_c, 2, 59, 0
3, 124800, Note_on_c, 2, 54, 0
3, 124800, Note_on_c, 2, 54, 127
3, 124800, Note_on_c, 2, 57, 0
3, 124800, Note_on_c, 2, 57, 127
3, 125280, Control_c, 2, 11, 87
3, 125280, Note_on_c, 2, 52, 127
3, 125280, Note_on_c, 2, 54, 0
3, 125280, Note_on_c, 2, 57, 0
3, 125760, Note_on_c, 2, 52, 0
3, 125760, Note_on_c, 2, 56, 127
3, 125760, Note_on_c, 2, 59, 127
3, 126240, Note_on_c, 2, 56, 0
3, 126240, Note_on_c, 2, 56, 127
3, 126240, Note_on_c, 2, 59, 0
3, 126240, Note_on_c, 2, 59, 127
3, 126720, Note_on_c, 2, 56, 0
3, 126720, Note_on_c, 2, 57, 127
3, 126720, Note_on_c, 2, 59, 0
3, 127200, Note_on_c, 2, 52, 127
3, 127200, Note_on_c, 2, 57, 0
3, 127200, Note_on_c, 2, 57, 127
3, 127680, Note_on_c, 2, 52, 0
3, 127680, Note_on_c, 2, 52, 127
3, 127680, Note_on_c, 2, 57, 0
3, 127680, Note_on_c, 2, 57, 127
3, 128160, Note_on_c, 2, 52, 0
3, 128160, Note_on_c, 2, 57, 0
3, 128160, Note_on_c, 2, 57, 127
3, 128640, Note_on_c, 2, 57, 0
3, 128640, Note_on_c, 2, 57, 127
3, 128640, Note_on_c, 2, 61, 127
3, 129120, Note_on_c, 2, 57, 0
3, 129120, Note_on_c, 2, 57, 127
3, 129120, Note_on_c, 2, 61, 0
3, 129120, Note_on_c, 2, 61, 127
3, 129600, Note_on_c, 2, 48, 127
3, 129600, Note_on_c, 2, 57, 0
3, 129600, Note_on_c, 2, 61, 0
3, 130080, Note_on_c, 2, 48, 0
3, 130080, Note_on_c, 2, 55, 127
3, 130080, Note_on_c, 2, 60, 127
3, 130560, Note_on_c, 2, 55, 0
3, 130560, Note_on_c, 2, 55, 127
3, 130560, Note_on_c, 2, 60, 0
3, 130560, Note_on_c, 2, 60, 127
3, 131040, Note_on_c, 2, 48, 127
3, 131040, Note_on_c, 2, 55, 0
3, 131040, Note_on_c, 2, 60, 0
3, 131520, Note_on_c, 2, 48, 0
3, 131520, Note_on_c, 2, 55, 127
3, 131520, Note_on_c, 2, 60, 127
3, 131760, Control_c, 2, 11, 86
3, 132000, Note_on_c, 2, 55, 0
3, 132000, Note_on_c, 2, 55, 127
3, 132000, Note_on_c, 2, 60, 0
3, 132000, Note_on_c, 2, 60, 127
3, 132480, Note_on_c, 2, 50, 127
3, 132480, Note_on_c, 2, 55, 0
3, 132480, Note_on_c, 2, 60, 0
3, 132960, Note_on_c, 2, 54, 127
3, 132960, Note_on_c, 2, 60, 127
3, 132960, Note_on_c, 2, 63, 127
3, 133440, Note_on_c, 2, 54, 0
3, 133440, Note_on_c, 2, 54, 127
3, 133440, Note_on_c, 2, 60, 0
3, 133440, Note_on_c, 2, 60, 127
3, 133440, Note_on_c, 2, 63, 0
3, 133440, Note_on_c, 2, 63, 127
3, 133920, Note_on_c, 2, 50, 0
3, 133920, Note_on_c, 2, 50, 127
3, 133920, Note_on_c, 2, 54, 0
3, 133920, Note_on_c, 2, 60, 0
3, 133920, Note_on_c, 2, 63, 0
3, 134400, Note_on_c, 2, 54, 127
3, 134400, Note_on_c, 2, 60, 127
3, 134400, Note_on_c, 2, 63, 127
3, 134880, Note_on_c, 2, 54, 0
3, 134880, Note_on_c, 2, 54, 127
3, 134880, Note_on_c, 2, 60, 0
3, 134880, Note_on_c, 2, 60, 127
3, 134880, Note_on_c, 2, 63, 0
3, 134880, Note_on_c, 2, 63, 127
3, 135360, Note_on_c, 2, 50, 0
3, 135360, Note_on_c, 2, 50, 127
3, 135360, Note_on_c, 2, 54, 0
3, 135360, Note_on_c, 2, 60, 0
3, 135360, Note_on_c, 2, 63, 0
3, 135840, Note_on_c, 2, 54, 127
3, 135840, Note_on_c, 2, 60, 127
3, 135840, Note_on_c, 2, 63, 127
3, 136320, Note_on_c, 2, 54, 0
3, 136320, Note_on_c, 2, 54, 127
3, 136320, Note_on_c, 2, 60, 0
3, 136320, Note_on_c, 2, 60, 127
3, 136320, Note_on_c, 2, 63, 0
3, 136320, Note_on_c, 2, 63, 127
3, 136800, Note_on_c, 2, 50, 0
3, 136800, Note_on_c, 2, 50, 127
3, 136800, Note_on_c, 2, 54, 0
3, 136800, Note_on_c, 2, 60, 0
3, 136800, Note_on_c, 2, 63, 0
3, 137280, Note_on_c, 2, 54, 127
3, 137280, Note_on_c, 2, 57, 127
3, 137280, Note_on_c, 2, 62, 127
3, 137760, Note_on_c, 2, 54, 0
3, 137760, Note_on_c, 2, 54, 127
3, 137760, Note_on_c, 2, 57, 0
3, 137760, Note_on_c, 2, 57, 127
3, 137760, Note_on_c, 2, 62, 0
3, 137760, Note_on_c, 2, 62, 127
3, 138240, Control_c, 2, 7, 100
3, 138240, Control_c, 2, 10, 64
3, 138240, Control_c, 2, 11, 85
3, 138240, Note_on_c, 2, 50, 0
3, 138240, Note_on_c, 2, 54, 0
3, 138240, Note_on_c, 2, 57, 0
3, 138240, Note_on_c, 2, 62, 0
3, 138240, Control_c, 1, 7, 100
3, 138240, Control_c, 1, 10, 64
3, 138240, Control_c, 1, 11, 99
3, 138720, Note_on_c, 1, 55, 127
3, 138720, Note_on_c, 1, 58, 127
3, 138720, Note_on_c, 1, 63, 127
3, 139200, Note_on_c, 1, 55, 0
3, 139200, Note_on_c, 1, 55, 127
3, 139200, Note_on_c, 1, 58, 0
3, 139200, Note_on_c, 1, 58, 127
3, 139200, Note_on_c, 1, 63, 0
3, 139200, Note_on_c, 1, 63, 127
3, 139680, Note_on_c, 1, 55, 0
3, 139680, Note_on_c, 1, 58, 0
3, 139680, Note_on_c, 1, 63, 0
3, 140160, Note_on_c, 1, 54, 127
3, 140160, Note_on_c, 1, 60, 127
3, 140160, Note_on_c, 1, 62, 127
3, 140640, Note_on_c, 1, 54, 0
3, 140640, Note_on_c, 1, 54, 127
3, 140640, Note_on_c, 1, 60, 0
3, 140640, Note_on_c, 1, 60, 127
3, 140640, Note_on_c, 1, 62, 0
3, 140640, Note_on_c, 1, 62, 127
3, 141120, Note_on_c, 1, 54, 0
3, 141120, Note_on_c, 1, 60, 0
3, 141120, Note_on_c, 1, 62, 0
3, 141600, Note_on_c, 1, 55, 127
3, 141600, Note_on_c, 1, 58, 127
3, 141600, Note_on_c, 1, 62, 127
3, 142080, Note_on_c, 1, 55, 0
3, 142080, Note_on_c, 1, 55, 127
3, 142080, Note_on_c, 1, 58, 0
3, 142080, Note_on_c, 1, 58, 127
3, 142080, Note_on_c, 1, 62, 0
3, 142080, Note_on_c, 1, 62, 127
3, 142560, Note_on_c, 1, 55, 0
3, 142560, Note_on_c, 1, 58, 0
3, 142560, Note_on_c, 1, 62, 0
3, 143040, Note_on_c, 1, 55, 127
3, 143040, Note_on_c, 1, 58, 127
3, 143040, Note_on_c, 1, 62, 127
3, 143520, Note_on_c, 1, 55, 0
3, 143520, Note_on_c, 1, 55, 127
3, 143520, Note_on_c, 1, 58, 0
3, 143520, Note_on_c, 1, 58, 127
3, 143520, Note_on_c, 1, 62, 0
3, 143520, Note_on_c, 1, 62, 127
3, 144000, Note_on_c, 1, 55, 0
3, 144000, Note_on_c, 1, 58, 0
3, 144000, Note_on_c, 1, 62, 0
3, 144480, Note_on_c, 1, 55, 127
3, 144480, Note_on_c, 1, 58, 127
3, 144480, Note_on_c, 1, 63, 127
3, 144960, Note_on_c, 1, 55, 0
3, 144960, Note_on_c, 1, 55, 127
3, 144960, Note_on_c, 1, 58, 0
3, 144960, Note_on_c, 1, 58, 127
3, 144960, Note_on_c, 1, 63, 0
3, 144960, Note_on_c, 1, 63, 127
3, 145440, Note_on_c, 1, 55, 0
3, 145440, Note_on_c, 1, 58, 0
3, 145440, Note_on_c, 1, 63, 0
3, 145920, Note_on_c, 1, 57, 127
3, 145920, Note_on_c, 1, 60, 127
3, 145920, Note_on_c, 1, 63, 127
3, 146400, Note_on_c, 1, 57, 0
3, 146400, Note_on_c, 1, 57, 127
3, 146400, Note_on_c, 1, 60, 0
3, 146400, Note_on_c, 1, 60, 127
3, 146400, Note_on_c, 1, 63, 0
3, 146400, Note_on_c, 1, 63, 127
3, 146880, Note_on_c, 1, 57, 0
3, 146880, Note_on_c, 1, 60, 0
3, 146880, Note_on_c, 1, 63, 0
3, 147360, Note_on_c, 1, 53, 127
3, 147360, Note_on_c, 1, 57, 127
3, 147360, Note_on_c, 1, 62, 127
3, 147840, Note_on_c, 1, 53, 0
3, 147840, Note_on_c, 1, 53, 127
3, 147840, Note_on_c, 1, 57, 0
3, 147840, Note_on_c, 1, 57, 127
3, 147840, Note_on_c, 1, 62, 0
3, 147840, Note_on_c, 1, 62, 127
3, 148320, Note_on_c, 1, 53, 0
3, 148320, Note_on_c, 1, 57, 0
3, 148320, Note_on_c, 1, 62, 0
3, 148800, Note_on_c, 1, 53, 127
3, 148800, Note_on_c, 1, 57, 127
3, 148800, Note_on_c, 1, 62, 127
3, 149280, Note_on_c, 1, 53, 0
3, 149280, Note_on_c, 1, 53, 127
3, 149280, Note_on_c, 1, 57, 0
3, 149280, Note_on_c, 1, 57, 127
3, 149280, Note_on_c, 1, 62, 0
3, 149280, Note_on_c, 1, 62, 127
3, 149760, Note_on_c, 1, 53, 0
3, 149760, Note_on_c, 1, 57, 0
3, 149760, Note_on_c, 1, 62, 0
3, 150240, Note_on_c, 1, 55, 127
3, 150240, Note_on_c, 1, 58, 127
3, 150240, Note_on_c, 1, 62, 127
3, 150720, Note_on_c, 1, 55, 0
3, 150720, Note_on_c, 1, 55, 127
3, 150720, Note_on_c, 1, 58, 0
3, 150720, Note_on_c, 1, 58, 127
3, 150720, Note_on_c, 1, 62, 0
3, 150720, Note_on_c, 1, 62, 127
3, 151200, Note_on_c, 1, 55, 0
3, 151200, Note_on_c, 1, 58, 0
3, 151200, Note_on_c, 1, 62, 0
3, 151680, Note_on_c, 1, 52, 127
3, 151680, Note_on_c, 1, 55, 127
3, 151680, Note_on_c, 1, 61, 127
3, 152160, Note_on_c, 1, 52, 0
3, 152160, Note_on_c, 1, 52, 127
3, 152160, Note_on_c, 1, 55, 0
3, 152160, Note_on_c, 1, 55, 127
3, 152160, Note_on_c, 1, 61, 0
3, 152160, Note_on_c, 1, 61, 127
3, 152640, Note_on_c, 1, 52, 0
3, 152640, Note_on_c, 1, 55, 0
3, 152640, Note_on_c, 1, 61, 0
3, 153120, Note_on_c, 1, 53, 127
3, 153120, Note_on_c, 1, 57, 127
3, 153120, Note_on_c, 1, 62, 127
3, 153600, Note_on_c, 1, 53, 0
3, 153600, Note_on_c, 1, 53, 127
3, 153600, Note_on_c, 1, 57, 0
3, 153600, Note_on_c, 1, 57, 127
3, 153600, Note_on_c, 1, 62, 0
3, 153600, Note_on_c, 1, 62, 127
3, 154080, Note_on_c, 1, 53, 0
3, 154080, Note_on_c, 1, 57, 0
3, 154080, Note_on_c, 1, 62, 0
3, 154560, Note_on_c, 1, 53, 127
3, 154560, Note_on_c, 1, 57, 127
3, 154560, Note_on_c, 1, 62, 127
3, 155040, Note_on_c, 1, 53, 0
3, 155040, Note_on_c, 1, 53, 127
3, 155040, Note_on_c, 1, 57, 0
3, 155040, Note_on_c, 1, 57, 127
3, 155040, Note_on_c, 1, 62, 0
3, 155040, Note_on_c, 1, 62, 127
3, 155520, Note_on_c, 1, 53, 0
3, 155520, Note_on_c, 1, 57, 0
3, 155520, Note_on_c, 1, 62, 0
3, 156000, Note_on_c, 1, 53, 127
3, 156000, Note_on_c, 1, 58, 127
3, 156000, Note_on_c, 1, 62, 127
3, 156480, Note_on_c, 1, 53, 0
3, 156480, Note_on_c, 1, 53, 127
3, 156480, Note_on_c, 1, 58, 0
3, 156480, Note_on_c, 1, 58, 127
3, 156480, Note_on_c, 1, 62, 0
3, 156480, Note_on_c, 1, 62, 127
3, 156960, Note_on_c, 1, 53, 0
3, 156960, Note_on_c, 1, 58, 0
3, 156960, Note_on_c, 1, 62, 0
3, 157440, Note_on_c, 1, 52, 127
3, 157440, Note_on_c, 1, 55, 127
3, 157440, Note_on_c, 1, 62, 127
3, 157920, Note_on_c, 1, 52, 0
3, 157920, Note_on_c, 1, 52, 127
3, 157920, Note_on_c, 1, 55, 0
3, 157920, Note_on_c, 1, 55, 127
3, 157920, Note_on_c, 1, 62, 0
3, 157920, Note_on_c, 1, 62, 127
3, 158400, Note_on_c, 1, 52, 0
3, 158400, Note_on_c, 1, 55, 0
3, 158400, Note_on_c, 1, 62, 0
3, 158880, Note_on_c, 1, 57, 127
3, 158880, Note_on_c, 1, 60, 127
3, 158880, Note_on_c, 1, 63, 127
3, 158880, Note_on_c, 1, 67, 127
3, 159360, Note_on_c, 1, 57, 0
3, 159360, Note_on_c, 1, 57, 127
3, 159360, Note_on_c, 1, 60, 0
3, 159360, Note_on_c, 1, 60, 127
3, 159360, Note_on_c, 1, 63, 0
3, 159360, Note_on_c, 1, 63, 127
3, 159360, Note_on_c, 1, 67, 0
3, 159360, Note_on_c, 1, 67, 127
3, 159840, Note_on_c, 1, 57, 0
3, 159840, Note_on_c, 1, 60, 0
3, 159840, Note_on_c, 1, 63, 0
3, 159840, Note_on_c, 1, 67, 0
3, 160320, Note_on_c, 1, 57, 127
3, 160320, Note_on_c, 1, 60, 127
3, 160320, Note_on_c, 1, 63, 127
3, 160320, Note_on_c, 1, 67, 127
3, 160800, Note_on_c, 1, 57, 0
3, 160800, Note_on_c, 1, 57, 127
3, 160800, Note_on_c, 1, 60, 0
3, 160800, Note_on_c, 1, 60, 127
3, 160800, Note_on_c, 1, 63, 0
3, 160800, Note_on_c, 1, 63, 127
3, 160800, Note_on_c, 1, 67, 0
3, 160800, Note_on_c, 1, 67, 127
3, 161280, Note_on_c, 1, 57, 0
3, 161280, Note_on_c, 1, 60, 0
3, 161280, Note_on_c, 1, 63, 0
3, 161280, Note_on_c, 1, 67, 0
3, 161760, Note_on_c, 1, 55, 127
3, 161760, Note_on_c, 1, 58, 127
3, 161760, Note_on_c, 1, 63, 127
3, 162240, Note_on_c, 1, 55, 0
3, 162240, Note_on_c, 1, 55, 127
3, 162240, Note_on_c, 1, 58, 0
3, 162240, Note_on_c, 1, 58, 127
3, 162240, Note_on_c, 1, 63, 0
3, 162240, Note_on_c, 1, 63, 127
3, 162720, Note_on_c, 1, 55, 0
3, 162720, Note_on_c, 1, 58, 0
3, 162720, Note_on_c, 1, 63, 0
3, 163200, Note_on_c, 1, 54, 127
3, 163200, Note_on_c, 1, 60, 127
3, 163200, Note_on_c, 1, 62, 127
3, 163680, Note_on_c, 1, 54, 0
3, 163680, Note_on_c, 1, 54, 127
3, 163680, Note_on_c, 1, 60, 0
3, 163680, Note_on_c, 1, 60, 127
3, 163680, Note_on_c, 1, 62, 0
3, 163680, Note_on_c, 1, 62, 127
3, 164160, Note_on_c, 1, 54, 0
3, 164160, Note_on_c, 1, 60, 0
3, 164160, Note_on_c, 1, 62, 0
3, 164640, Note_on_c, 1, 55, 127
3, 164640, Note_on_c, 1, 58, 127
3, 164640, Note_on_c, 1, 62, 127
3, 165120, Note_on_c, 1, 55, 0
3, 165120, Note_on_c, 1, 55, 127
3, 165120, Note_on_c, 1, 58, 0
3, 165120, Note_on_c, 1, 58, 127
3, 165120, Note_on_c, 1, 62, 0
3, 165120, Note_on_c, 1, 62, 127
3, 165600, Note_on_c, 1, 55, 0
3, 165600, Note_on_c, 1, 55, 127
3, 165600, Note_on_c, 1, 58, 0
3, 165600, Note_on_c, 1, 58, 127
3, 165600, Note_on_c, 1, 62, 0
3, 165600, Note_on_c, 1, 62, 127
3, 166320, Note_on_c, 1, 55, 0
3, 166320, Note_on_c, 1, 55, 127
3, 166320, Note_on_c, 1, 58, 0
3, 166320, Note_on_c, 1, 58, 127
3, 166320, Note_on_c, 1, 62, 0
3, 166320, Note_on_c, 1, 62, 127
3, 167040, Note_on_c, 1, 55, 0
3, 167040, Note_on_c, 1, 58, 0
3, 167040, Note_on_c, 1, 62, 0
3, 167520, Note_on_c, 1, 55, 127
3, 167520, Note_on_c, 1, 58, 127
3, 167520, Note_on_c, 1, 63, 127
3, 168000, Note_on_c, 1, 55, 0
3, 168000, Note_on_c, 1, 55, 127
3, 168000, Note_on_c, 1, 58, 0
3, 168000, Note_on_c, 1, 58, 127
3, 168000, Note_on_c, 1, 63, 0
3, 168000, Note_on_c, 1, 63, 127
3, 168480, Note_on_c, 1, 55, 0
3, 168480, Note_on_c, 1, 58, 0
3, 168480, Note_on_c, 1, 63, 0
3, 168960, Note_on_c, 1, 57, 127
3, 168960, Note_on_c, 1, 60, 127
3, 168960, Note_on_c, 1, 63, 127
3, 169440, Note_on_c, 1, 57, 0
3, 169440, Note_on_c, 1, 57, 127
3, 169440, Note_on_c, 1, 60, 0
3, 169440, Note_on_c, 1, 60, 127
3, 169440, Note_on_c, 1, 63, 0
3, 169440, Note_on_c, 1, 63, 127
3, 169920, Note_on_c, 1, 57, 0
3, 169920, Note_on_c, 1, 60, 0
3, 169920, Note_on_c, 1, 63, 0
3, 170400, Note_on_c, 1, 53, 127
3, 170400, Note_on_c, 1, 57, 127
3, 170400, Note_on_c, 1, 62, 127
3, 170880, Note_on_c, 1, 53, 0
3, 170880, Note_on_c, 1, 53, 127
3, 170880, Note_on_c, 1, 57, 0
3, 170880, Note_on_c, 1, 57, 127
3, 170880, Note_on_c, 1, 62, 0
3, 170880, Note_on_c, 1, 62, 127
3, 171360, Note_on_c, 1, 53, 0
3, 171360, Note_on_c, 1, 57, 0
3, 171360, Note_on_c, 1, 62, 0
3, 171840, Note_on_c, 1, 53, 127
3, 171840, Note_on_c, 1, 57, 127
3, 171840, Note_on_c, 1, 62, 127
3, 172320, Note_on_c, 1, 53, 0
3, 172320, Note_on_c, 1, 53, 127
3, 172320, Note_on_c, 1, 57, 0
3, 172320, Note_on_c, 1, 57, 127
3, 172320, Note_on_c, 1, 62, 0
3, 172320, Note_on_c, 1, 62, 127
3, 172800, Note_on_c, 1, 53, 0
3, 172800, Note_on_c, 1, 57, 0
3, 172800, Note_on_c, 1, 62, 0
3, 173280, Note_on_c, 1, 55, 127
3, 173280, Note_on_c, 1, 58, 127
3, 173280, Note_on_c, 1, 62, 127
3, 173760, Note_on_c, 1, 55, 0
3, 173760, Note_on_c, 1, 55, 127
3, 173760, Note_on_c, 1, 58, 0
3, 173760, Note_on_c, 1, 58, 127
3, 173760, Note_on_c, 1, 62, 0
3, 173760, Note_on_c, 1, 62, 127
3, 174240, Note_on_c, 1, 55, 0
3, 174240, Note_on_c, 1, 58, 0
3, 174240, Note_on_c, 1, 62, 0
3, 174720, Note_on_c, 1, 52, 127
3, 174720, Note_on_c, 1, 55, 127
3, 174720, Note_on_c, 1, 61, 127
3, 175200, Note_on_c, 1, 52, 0
3, 175200, Note_on_c, 1, 52, 127
3, 175200, Note_on_c, 1, 55, 0
3, 175200, Note_on_c, 1, 55, 127
3, 175200, Note_on_c, 1, 61, 0
3, 175200, Note_on_c, 1, 61, 127
3, 175680, Note_on_c, 1, 52, 0
3, 175680, Note_on_c, 1, 55, 0
3, 175680, Note_on_c, 1, 61, 0
3, 176160, Note_on_c, 1, 53, 127
3, 176160, Note_on_c, 1, 57, 127
3, 176160, Note_on_c, 1, 62, 127
3, 176640, Note_on_c, 1, 53, 0
3, 176640, Note_on_c, 1, 53, 127
3, 176640, Note_on_c, 1, 57, 0
3, 176640, Note_on_c, 1, 57, 127
3, 176640, Note_on_c, 1, 62, 0
3, 176640, Note_on_c, 1, 62, 127
3, 177120, Note_on_c, 1, 53, 0
3, 177120, Note_on_c, 1, 57, 0
3, 177120, Note_on_c, 1, 62, 0
3, 177600, Note_on_c, 1, 53, 127
3, 177600, Note_on_c, 1, 57, 127
3, 177600, Note_on_c, 1, 62, 127
3, 178080, Note_on_c, 1, 53, 0
3, 178080, Note_on_c, 1, 53, 127
3, 178080, Note_on_c, 1, 57, 0
3, 178080, Note_on_c, 1, 57, 127
3, 178080, Note_on_c, 1, 62, 0
3, 178080, Note_on_c, 1, 62, 127
3, 178560, Note_on_c, 1, 53, 0
3, 178560, Note_on_c, 1, 57, 0
3, 178560, Note_on_c, 1, 62, 0
3, 179040, Note_on_c, 1, 53, 127
3, 179040, Note_on_c, 1, 58, 127
3, 179040, Note_on_c, 1, 62, 127
3, 179520, Note_on_c, 1, 53, 0
3, 179520, Note_on_c, 1, 53, 127
3, 179520, Note_on_c, 1, 58, 0
3, 179520, Note_on_c, 1, 58, 127
3, 179520, Note_on_c, 1, 62, 0
3, 179520, Note_on_c, 1, 62, 127
3, 180000, Note_on_c, 1, 53, 0
3, 180000, Note_on_c, 1, 58, 0
3, 180000, Note_on_c, 1, 62, 0
3, 180480, Note_on_c, 1, 52, 127
3, 180480, Note_on_c, 1, 55, 127
3, 180480, Note_on_c, 1, 61, 127
3, 180960, Note_on_c, 1, 52, 0
3, 180960, Note_on_c, 1, 52, 127
3, 180960, Note_on_c, 1, 55, 0
3, 180960, Note_on_c, 1, 55, 127
3, 180960, Note_on_c, 1, 61, 0
3, 180960, Note_on_c, 1, 61, 127
3, 181440, Note_on_c, 1, 52, 0
3, 181440, Note_on_c, 1, 55, 0
3, 181440, Note_on_c, 1, 61, 0
3, 181920, Note_on_c, 1, 54, 127
3, 181920, Note_on_c, 1, 57, 127
3, 181920, Note_on_c, 1, 62, 127
3, 182400, Note_on_c, 1, 54, 0
3, 182400, Note_on_c, 1, 54, 127
3, 182400, Note_on_c, 1, 57, 0
3, 182400, Note_on_c, 1, 57, 127
3, 182400, Note_on_c, 1, 62, 0
3, 182400, Note_on_c, 1, 62, 127
3, 182880, Note_on_c, 1, 54, 0
3, 182880, Note_on_c, 1, 57, 0
3, 182880, Note_on_c, 1, 62, 0
3, 183360, Note_on_c, 1, 54, 127
3, 183360, Note_on_c, 1, 57, 127
3, 183360, Note_on_c, 1, 62, 127
3, 183840, Note_on_c, 1, 54, 0
3, 183840, Note_on_c, 1, 54, 127
3, 183840, Note_on_c, 1, 57, 0
3, 183840, Note_on_c, 1, 57, 127
3, 183840, Note_on_c, 1, 62, 0
3, 183840, Note_on_c, 1, 62, 127
3, 184320, Note_on_c, 1, 54, 0
3, 184320, Note_on_c, 1, 57, 0
3, 184320, Note_on_c, 1, 62, 0
3, 184800, Note_on_c, 1, 54, 127
3, 184800, Note_on_c, 1, 57, 127
3, 184800, Note_on_c, 1, 62, 127
3, 185280, Note_on_c, 1, 54, 0
3, 185280, Note_on_c, 1, 54, 127
3, 185280, Note_on_c, 1, 57, 0
3, 185280, Note_on_c, 1, 57, 127
3, 185280, Note_on_c, 1, 62, 0
3, 185280, Note_on_c, 1, 62, 127
3, 185760, Note_on_c, 1, 54, 0
3, 185760, Note_on_c, 1, 57, 0
3, 185760, Note_on_c, 1, 62, 0
3, 186240, Note_on_c, 1, 54, 127
3, 186240, Note_on_c, 1, 57, 127
3, 186240, Note_on_c, 1, 62, 127
3, 186720, Note_on_c, 1, 54, 0
3, 186720, Note_on_c, 1, 54, 127
3, 186720, Note_on_c, 1, 57, 0
3, 186720, Note_on_c, 1, 57, 127
3, 186720, Note_on_c, 1, 62, 0
3, 186720, Note_on_c, 1, 62, 127
3, 187200, Note_on_c, 1, 54, 0
3, 187200, Note_on_c, 1, 57, 0
3, 187200, Note_on_c, 1, 62, 0
3, 188640, Note_on_c, 1, 47, 127
3, 188640, Note_on_c, 1, 52, 127
3, 191520, Note_on_c, 1, 47, 0
3, 191520, Note_on_c, 1, 52, 0
3, 192000, Note_on_c, 1, 57, 127
3, 192000, Note_on_c, 1, 60, 127
3, 192000, Note_on_c, 1, 65, 127
3, 192480, Note_on_c, 1, 57, 0
3, 192480, Note_on_c, 1, 57, 127
3, 192480, Note_on_c, 1, 60, 0
3, 192480, Note_on_c, 1, 60, 127
3, 192480, Note_on_c, 1, 65, 0
3, 192480, Note_on_c, 1, 65, 127
3, 192960, Note_on_c, 1, 57, 0
3, 192960, Note_on_c, 1, 60, 0
3, 192960, Note_on_c, 1, 65, 0
3, 193440, Note_on_c, 1, 56, 127
3, 193440, Note_on_c, 1, 62, 127
3, 193440, Note_on_c, 1, 64, 127
3, 193920, Note_on_c, 1, 56, 0
3, 193920, Note_on_c, 1, 56, 127
3, 193920, Note_on_c, 1, 62, 0
3, 193920, Note_on_c, 1, 62, 127
3, 193920, Note_on_c, 1, 64, 0
3, 193920, Note_on_c, 1, 64, 127
3, 194400, Note_on_c, 1, 56, 0
3, 194400, Note_on_c, 1, 62, 0
3, 194400, Note_on_c, 1, 64, 0
3, 194880, Note_on_c, 1, 57, 127
3, 194880, Note_on_c, 1, 60, 127
3, 194880, Note_on_c, 1, 64, 127
3, 195360, Note_on_c, 1, 57, 0
3, 195360, Note_on_c, 1, 57, 127
3, 195360, Note_on_c, 1, 60, 0
3, 195360, Note_on_c, 1, 60, 127
3, 195360, Note_on_c, 1, 64, 0
3, 195360, Note_on_c, 1, 64, 127
3, 195840, Note_on_c, 1, 57, 0
3, 195840, Note_on_c, 1, 57, 127
3, 195840, Note_on_c, 1, 60, 0
3, 195840, Note_on_c, 1, 60, 127
3, 195840, Note_on_c, 1, 64, 0
3, 195840, Note_on_c, 1, 64, 127
3, 196560, Note_on_c, 1, 57, 0
3, 196560, Note_on_c, 1, 57, 127
3, 196560, Note_on_c, 1, 60, 0
3, 196560, Note_on_c, 1, 60, 127
3, 196560, Note_on_c, 1, 64, 0
3, 196560, Note_on_c, 1, 64, 127
3, 197280, Note_on_c, 1, 57, 0
3, 197280, Note_on_c, 1, 60, 0
3, 197280, Note_on_c, 1, 64, 0
3, 197760, Note_on_c, 1, 57, 127
3, 197760, Note_on_c, 1, 60, 127
3, 197760, Note_on_c, 1, 65, 127
3, 198240, Note_on_c, 1, 57, 0
3, 198240, Note_on_c, 1, 57, 127
3, 198240, Note_on_c, 1, 60, 0
3, 198240, Note_on_c, 1, 60, 127
3, 198240, Note_on_c, 1, 65, 0
3, 198240, Note_on_c, 1, 65, 127
3, 198720, Note_on_c, 1, 57, 0
3, 198720, Note_on_c, 1, 60, 0
3, 198720, Note_on_c, 1, 65, 0
3, 199200, Note_on_c, 1, 55, 127
3, 199200, Note_on_c, 1, 59, 127
3, 199200, Note_on_c, 1, 65, 127
3, 199680, Note_on_c, 1, 55, 0
3, 199680, Note_on_c, 1, 55, 127
3, 199680, Note_on_c, 1, 59, 0
3, 199680, Note_on_c, 1, 59, 127
3, 199680, Note_on_c, 1, 65, 0
3, 199680, Note_on_c, 1, 65, 127
3, 200160, Note_on_c, 1, 55, 0
3, 200160, Note_on_c, 1, 59, 0
3, 200160, Note_on_c, 1, 65, 0
3, 200640, Note_on_c, 1, 55, 127
3, 200640, Note_on_c, 1, 59, 127
3, 200640, Note_on_c, 1, 64, 127
3, 201120, Note_on_c, 1, 55, 0
3, 201120, Note_on_c, 1, 55, 127
3, 201120, Note_on_c, 1, 59, 0
3, 201120, Note_on_c, 1, 59, 127
3, 201120, Note_on_c, 1, 64, 0
3, 201120, Note_on_c, 1, 64, 127
3, 201600, Note_on_c, 1, 55, 0
3, 201600, Note_on_c, 1, 59, 0
3, 201600, Note_on_c, 1, 64, 0
3, 202080, Note_on_c, 1, 55, 127
3, 202080, Note_on_c, 1, 59, 127
3, 202080, Note_on_c, 1, 64, 127
3, 202560, Note_on_c, 1, 55, 0
3, 202560, Note_on_c, 1, 55, 127
3, 202560, Note_on_c, 1, 59, 0
3, 202560, Note_on_c, 1, 59, 127
3, 202560, Note_on_c, 1, 64, 0
3, 202560, Note_on_c, 1, 64, 127
3, 203040, Note_on_c, 1, 55, 0
3, 203040, Note_on_c, 1, 59, 0
3, 203040, Note_on_c, 1, 64, 0
3, 203520, Note_on_c, 1, 57, 127
3, 203520, Note_on_c, 1, 60, 127
3, 203520, Note_on_c, 1, 64, 127
3, 204000, Note_on_c, 1, 57, 0
3, 204000, Note_on_c, 1, 57, 127
3, 204000, Note_on_c, 1, 60, 0
3, 204000, Note_on_c, 1, 60, 127
3, 204000, Note_on_c, 1, 64, 0
3, 204000, Note_on_c, 1, 64, 127
3, 204480, Note_on_c, 1, 57, 0
3, 204480, Note_on_c, 1, 60, 0
3, 204480, Note_on_c, 1, 64, 0
3, 204960, Note_on_c, 1, 54, 127
3, 204960, Note_on_c, 1, 57, 127
3, 204960, Note_on_c, 1, 63, 127
3, 205440, Note_on_c, 1, 54, 0
3, 205440, Note_on_c, 1, 54, 127
3, 205440, Note_on_c, 1, 57, 0
3, 205440, Note_on_c, 1, 57, 127
3, 205440, Note_on_c, 1, 63, 0
3, 205440, Note_on_c, 1, 63, 127
3, 205920, Note_on_c, 1, 54, 0
3, 205920, Note_on_c, 1, 57, 0
3, 205920, Note_on_c, 1, 63, 0
3, 206400, Note_on_c, 1, 55, 127
3, 206400, Note_on_c, 1, 59, 127
3, 206400, Note_on_c, 1, 64, 127
3, 206880, Note_on_c, 1, 55, 0
3, 206880, Note_on_c, 1, 55, 127
3, 206880, Note_on_c, 1, 59, 0
3, 206880, Note_on_c, 1, 59, 127
3, 206880, Note_on_c, 1, 64, 0
3, 206880, Note_on_c, 1, 64, 127
3, 207360, Note_on_c, 1, 55, 0
3, 207360, Note_on_c, 1, 59, 0
3, 207360, Note_on_c, 1, 64, 0
3, 207840, Note_on_c, 1, 55, 127
3, 207840, Note_on_c, 1, 59, 127
3, 207840, Note_on_c, 1, 64, 127
3, 208320, Note_on_c, 1, 55, 0
3, 208320, Note_on_c, 1, 55, 127
3, 208320, Note_on_c, 1, 59, 0
3, 208320, Note_on_c, 1, 59, 127
3, 208320, Note_on_c, 1, 64, 0
3, 208320, Note_on_c, 1, 64, 127
3, 208800, Note_on_c, 1, 55, 0
3, 208800, Note_on_c, 1, 59, 0
3, 208800, Note_on_c, 1, 64, 0
3, 209280, Note_on_c, 1, 55, 127
3, 209280, Note_on_c, 1, 60, 127
3, 209280, Note_on_c, 1, 64, 127
3, 209760, Note_on_c, 1, 55, 0
3, 209760, Note_on_c, 1, 55, 127
3, 209760, Note_on_c, 1, 60, 0
3, 209760, Note_on_c, 1, 60, 127
3, 209760, Note_on_c, 1, 64, 0
3, 209760, Note_on_c, 1, 64, 127
3, 210240, Note_on_c, 1, 55, 0
3, 210240, Note_on_c, 1, 60, 0
3, 210240, Note_on_c, 1, 64, 0
3, 210720, Note_on_c, 1, 54, 127
3, 210720, Note_on_c, 1, 57, 127
3, 210720, Note_on_c, 1, 63, 127
3, 211200, Note_on_c, 1, 54, 0
3, 211200, Note_on_c, 1, 54, 127
3, 211200, Note_on_c, 1, 57, 0
3, 211200, Note_on_c, 1, 57, 127
3, 211200, Note_on_c, 1, 63, 0
3, 211200, Note_on_c, 1, 63, 127
3, 211680, Note_on_c, 1, 54, 0
3, 211680, Note_on_c, 1, 57, 0
3, 211680, Note_on_c, 1, 63, 0
3, 212160, Note_on_c, 1, 56, 127
3, 212160, Note_on_c, 1, 59, 127
3, 212160, Note_on_c, 1, 64, 127
3, 212640, Note_on_c, 1, 56, 0
3, 212640, Note_on_c, 1, 56, 127
3, 212640, Note_on_c, 1, 59, 0
3, 212640, Note_on_c, 1, 59, 127
3, 212640, Note_on_c, 1, 64, 0
3, 212640, Note_on_c, 1, 64, 127
3, 213120, Note_on_c, 1, 56, 0
3, 213120, Note_on_c, 1, 59, 0
3, 213120, Note_on_c, 1, 64, 0
3, 213600, Note_on_c, 1, 56, 127
3, 213600, Note_on_c, 1, 59, 127
3, 213600, Note_on_c, 1, 64, 127
3, 214080, Note_on_c, 1, 56, 0
3, 214080, Note_on_c, 1, 56, 127
3, 214080, Note_on_c, 1, 59, 0
3, 214080, Note_on_c, 1, 59, 127
3, 214080, Note_on_c, 1, 64, 0
3, 214080, Note_on_c, 1, 64, 127
3, 214560, Note_on_c, 1, 56, 0
3, 214560, Note_on_c, 1, 59, 0
3, 214560, Note_on_c, 1, 64, 0
3, 215040, Note_on_c, 1, 56, 127
3, 215040, Note_on_c, 1, 59, 127
3, 215040, Note_on_c, 1, 64, 127
3, 215520, Note_on_c, 1, 56, 0
3, 215520, Note_on_c, 1, 56, 127
3, 215520, Note_on_c, 1, 59, 0
3, 215520, Note_on_c, 1, 59, 127
3, 215520, Note_on_c, 1, 64, 0
3, 215520, Note_on_c, 1, 64, 127
3, 216000, Note_on_c, 1, 56, 0
3, 216000, Note_on_c, 1, 59, 0
3, 216000, Note_on_c, 1, 64, 0
3, 216480, Note_on_c, 1, 56, 127
3, 216480, Note_on_c, 1, 59, 127
3, 216480, Note_on_c, 1, 64, 127
3, 216960, Note_on_c, 1, 56, 0
3, 216960, Note_on_c, 1, 56, 127
3, 216960, Note_on_c, 1, 59, 0
3, 216960, Note_on_c, 1, 59, 127
3, 216960, Note_on_c, 1, 64, 0
3, 216960, Note_on_c, 1, 64, 127
3, 217440, Note_on_c, 1, 56, 0
3, 217440, Note_on_c, 1, 59, 0
3, 217440, Note_on_c, 1, 64, 0
3, 222240, Note_on_c, 1, 56, 127
3, 222240, Note_on_c, 1, 59, 127
3, 222240, Note_on_c, 1, 64, 127
3, 222720, Note_on_c, 1, 56, 0
3, 222720, Note_on_c, 1, 56, 127
3, 222720, Note_on_c, 1, 59, 0
3, 222720, Note_on_c, 1, 59, 127
3, 222720, Note_on_c, 1, 64, 0
3, 222720, Note_on_c, 1, 64, 127
3, 223200, Note_on_c, 1, 56, 0
3, 223200, Note_on_c, 1, 59, 0
3, 223200, Note_on_c, 1, 64, 0
3, 223680, Note_on_c, 1, 56, 127
3, 223680, Note_on_c, 1, 59, 127
3, 223680, Note_on_c, 1, 64, 127
3, 224160, Note_on_c, 1, 56, 0
3, 224160, Note_on_c, 1, 56, 127
3, 224160, Note_on_c, 1, 59, 0
3, 224160, Note_on_c, 1, 59, 127
3, 224160, Note_on_c, 1, 64, 0
3, 224160, Note_on_c, 1, 64, 127
3, 224640, Note_on_c, 1, 56, 0
3, 224640, Note_on_c, 1, 59, 0
3, 224640, Note_on_c, 1, 64, 0
3, 224640, Note_on_c, 1, 64, 127
3, 224640, Note_on_c, 1, 68, 127
3, 224640, Note_on_c, 1, 71, 127
3, 225600, Note_on_c, 1, 64, 0
3, 225600, Note_on_c, 1, 64, 127
3, 225600, Note_on_c, 1, 68, 0
3, 225600, Note_on_c, 1, 69, 127
3, 225600, Note_on_c, 1, 71, 0
3, 225600, Note_on_c, 1, 72, 127
3, 226080, Note_on_c, 1, 64, 0
3, 226080, Note_on_c, 1, 64, 127
3, 226080, Note_on_c, 1, 68, 127
3, 226080, Note_on_c, 1, 69, 0
3, 226080, Note_on_c, 1, 71, 127
3, 226080, Note_on_c, 1, 72, 0
3, 227040, Note_on_c, 1, 64, 0
3, 227040, Note_on_c, 1, 64, 127
3, 227040, Note_on_c, 1, 68, 0
3, 227040, Note_on_c, 1, 69, 127
3, 227040, Note_on_c, 1, 71, 0
3, 227040, Note_on_c, 1, 72, 127
3, 227520, Note_on_c, 1, 64, 0
3, 227520, Note_on_c, 1, 64, 127
3, 227520, Note_on_c, 1, 68, 127
3, 227520, Note_on_c, 1, 69, 0
3, 227520, Note_on_c, 1, 71, 127
3, 227520, Note_on_c, 1, 72, 0
3, 228480, Note_on_c, 1, 64, 0
3, 228480, Note_on_c, 1, 64, 127
3, 228480, Note_on_c, 1, 68, 0
3, 228480, Note_on_c, 1, 69, 127
3, 228480, Note_on_c, 1, 71, 0
3, 228480, Note_on_c, 1, 72, 127
3, 228960, Note_on_c, 0, 52, 64
3, 228960, Note_on_c, 0, 59, 64
3, 228960, Note_on_c, 0, 64, 64
3, 228960, Note_on_c, 0, 68, 64
3, 228960, Note_on_c, 0, 71, 64
3, 228960, Note_on_c, 1, 64, 0
3, 228960, Note_on_c, 1, 69, 0
3, 228960, Note_on_c, 1, 72, 0
3, 229380, Control_c, 1, 11, 98
3, 229440, Control_c, 1, 11, 97
3, 229500, Control_c, 1, 11, 96
3, 229560, Control_c, 1, 11, 95
3, 229620, Control_c, 1, 11, 94
3, 229650, Control_c, 1, 11, 93
3, 229680, Control_c, 1, 11, 91
3, 229710, Control_c, 1, 11, 90
3, 229740, Control_c, 1, 11, 88
3, 229800, Control_c, 1, 11, 86
3, 229830, Control_c, 1, 11, 84
3, 229860, Control_c, 1, 11, 81
3, 229920, Control_c, 1, 11, 79
3, 229950, Control_c, 1, 11, 78
3, 229980, Control_c, 1, 11, 76
3, 230010, Control_c, 1, 11, 75
3, 230040, Control_c, 1, 11, 73
3, 230070, Control_c, 1, 11, 72
3, 230100, Control_c, 1, 11, 70
3, 230130, Control_c, 1, 11, 69
3, 230160, Control_c, 1, 11, 67
3, 230220, Control_c, 1, 11, 66
3, 230280, Control_c, 1, 11, 65
3, 230340, Control_c, 1, 11, 64
3, 230396, Note_off_c, 0, 52, 0
3, 230396, Note_off_c, 0, 59, 0
3, 230396, Note_off_c, 0, 64, 0
3, 230396, Note_off_c, 0, 68, 0
3, 230396, Note_off_c, 0, 71, 0
3, 230400, Control_c, 1, 11, 63
3, 230460, Control_c, 1, 11, 61
3, 230490, Control_c, 1, 11, 60
3, 230520, Control_c, 1, 11, 58
3, 230550, Control_c, 1, 11, 57
3, 230580, Control_c, 1, 11, 55
3, 230640, Control_c, 1, 11, 53
3, 230670, Control_c, 1, 11, 51
3, 230700, Control_c, 1, 11, 49
3, 230760, Control_c, 1, 11, 47
3, 230820, Control_c, 1, 11, 45
3, 230880, Control_c, 1, 11, 44
3, 230910, Control_c, 1, 11, 43
3, 230940, Control_c, 1, 11, 41
3, 231000, Control_c, 1, 11, 43
3, 231060, Control_c, 1, 11, 46
3, 231120, Control_c, 1, 11, 49
3, 231180, Control_c, 1, 11, 52
3, 231240, Control_c, 1, 11, 55
3, 231300, Control_c, 1, 11, 58
3, 231360, Control_c, 1, 11, 61
3, 231420, Control_c, 1, 11, 64
3, 231480, Control_c, 1, 11, 67
3, 231540, Control_c, 1, 11, 70
3, 231600, Control_c, 1, 11, 73
3, 231660, Control_c, 1, 11, 76
3, 231720, Control_c, 1, 11, 79
3, 231780, Control_c, 1, 11, 82
3, 231840, Control_c, 1, 11, 85
3, 234720, Control_c, 1, 7, 100
3, 234720, Control_c, 1, 10, 64
3, 234720, End_track
4, 0, Start_track
4, 0, Title_t, "Guitar Chords"
4, 0, Instrument_name_t, "Guitar Chords"
4, 12000, Note_on_c, 0, 60, 64
4, 12000, Note_on_c, 0, 63, 64
4, 12000, Note_on_c, 0, 67, 64
4, 12956, Note_off_c, 0, 60, 0
4, 13436, Note_off_c, 0, 63, 0
4, 13436, Note_off_c, 0, 67, 0
4, 13440, Note_on_c, 0, 62, 64
4, 13440, Note_on_c, 0, 66, 64
4, 13440, Note_on_c, 0, 69, 64
4, 14396, Note_off_c, 0, 62, 0
4, 14876, Note_off_c, 0, 66, 0
4, 14876, Note_off_c, 0, 69, 0
4, 14880, Note_on_c, 0, 62, 64
4, 14880, Note_on_c, 0, 67, 64
4, 14880, Note_on_c, 0, 70, 64
4, 15836, Note_off_c, 0, 62, 0
4, 16316, Note_off_c, 0, 67, 0
4, 16316, Note_off_c, 0, 70, 0
4, 17760, Note_on_c, 0, 60, 64
4, 17760, Note_on_c, 0, 63, 64
4, 17760, Note_on_c, 0, 67, 64
4, 18716, Note_off_c, 0, 60, 0
4, 19196, Note_off_c, 0, 63, 0
4, 19196, Note_off_c, 0, 67, 0
4, 19200, Note_on_c, 0, 60, 64
4, 19200, Note_on_c, 0, 65, 64
4, 19200, Note_on_c, 0, 69, 64
4, 20156, Note_off_c, 0, 60, 0
4, 20636, Note_off_c, 0, 65, 0
4, 20636, Note_off_c, 0, 69, 0
4, 20640, Note_on_c, 0, 58, 64
4, 20640, Note_on_c, 0, 62, 64
4, 20640, Note_on_c, 0, 65, 64
4, 21596, Note_off_c, 0, 58, 0
4, 22076, Note_off_c, 0, 62, 0
4, 22076, Note_off_c, 0, 65, 0
4, 23520, Note_on_c, 0, 58, 64
4, 23520, Note_on_c, 0, 62, 64
4, 23520, Note_on_c, 0, 67, 64
4, 24476, Note_off_c, 0, 58, 0
4, 24956, Note_off_c, 0, 62, 0
4, 24956, Note_off_c, 0, 67, 0
4, 24960, Note_on_c, 0, 61, 64
4, 24960, Note_on_c, 0, 64, 64
4, 24960, Note_on_c, 0, 69, 64
4, 25916, Note_off_c, 0, 61, 0
4, 26396, Note_off_c, 0, 64, 0
4, 26396, Note_off_c, 0, 69, 0
4, 26400, Note_on_c, 0, 62, 64
4, 26400, Note_on_c, 0, 65, 64
4, 26400, Note_on_c, 0, 69, 64
4, 27356, Note_off_c, 0, 62, 0
4, 27836, Note_off_c, 0, 65, 0
4, 27836, Note_off_c, 0, 69, 0
4, 27840, Note_on_c, 0, 60, 64
4, 27840, Note_on_c, 0, 65, 64
4, 27840, Note_on_c, 0, 69, 64
4, 28796, Note_off_c, 0, 60, 0
4, 29276, Note_off_c, 0, 65, 0
4, 29276, Note_off_c, 0, 69, 0
4, 29280, Note_on_c, 0, 62, 64
4, 29280, Note_on_c, 0, 65, 64
4, 29280, Note_on_c, 0, 70, 64
4, 30236, Note_off_c, 0, 62, 0
4, 30716, Note_off_c, 0, 65, 0
4, 30716, Note_off_c, 0, 70, 0
4, 30720, Note_on_c, 0, 60, 64
4, 30720, Note_on_c, 0, 64, 64
4, 30720, Note_on_c, 0, 69, 64
4, 31676, Note_off_c, 0, 60, 0
4, 32156, Note_off_c, 0, 64, 0
4, 32156, Note_off_c, 0, 69, 0
4, 32160, Note_on_c, 0, 62, 64
4, 32160, Note_on_c, 0, 66, 64
4, 32160, Note_on_c, 0, 69, 64
4, 33116, Note_off_c, 0, 62, 0
4, 33596, Note_off_c, 0, 66, 0
4, 33596, Note_off_c, 0, 69, 0
4, 34560, Note_on_c, 0, 58, 64
4, 34560, Note_on_c, 0, 62, 64
4, 34560, Note_on_c, 0, 67, 64
4, 35516, Note_off_c, 0, 58, 0
4, 35516, Note_off_c, 0, 62, 0
4, 35516, Note_off_c, 0, 67, 0
4, 36000, Note_on_c, 0, 58, 64
4, 36000, Note_on_c, 0, 62, 64
4, 36000, Note_on_c, 0, 67, 64
4, 36956, Note_off_c, 0, 58, 0
4, 36956, Note_off_c, 0, 62, 0
4, 36956, Note_off_c, 0, 67, 0
4, 37440, Note_on_c, 0, 58, 64
4, 37440, Note_on_c, 0, 62, 64
4, 37440, Note_on_c, 0, 67, 64
4, 38396, Note_off_c, 0, 58, 0
4, 38396, Note_off_c, 0, 62, 0
4, 38396, Note_off_c, 0, 67, 0
4, 38880, Note_on_c, 0, 58, 64
4, 38880, Note_on_c, 0, 62, 64
4, 38880, Note_on_c, 0, 67, 64
4, 39836, Note_off_c, 0, 58, 0
4, 39836, Note_off_c, 0, 62, 0
4, 39836, Note_off_c, 0, 67, 0
4, 40320, Note_on_c, 0, 60, 64
4, 40320, Note_on_c, 0, 63, 64
4, 40320, Note_on_c, 0, 67, 64
4, 41276, Note_off_c, 0, 60, 0
4, 41276, Note_off_c, 0, 63, 0
4, 41276, Note_off_c, 0, 67, 0
4, 41760, Note_on_c, 0, 57, 64
4, 41760, Note_on_c, 0, 62, 64
4, 41760, Note_on_c, 0, 66, 64
4, 42716, Note_off_c, 0, 57, 0
4, 42716, Note_off_c, 0, 62, 0
4, 42716, Note_off_c, 0, 66, 0
4, 43200, Note_on_c, 0, 58, 64
4, 43200, Note_on_c, 0, 62, 64
4, 43200, Note_on_c, 0, 67, 64
4, 44156, Note_off_c, 0, 58, 0
4, 44156, Note_off_c, 0, 62, 0
4, 44156, Note_off_c, 0, 67, 0
4, 46080, Note_on_c, 0, 58, 64
4, 46080, Note_on_c, 0, 63, 64
4, 46080, Note_on_c, 0, 67, 64
4, 47036, Note_off_c, 0, 58, 0
4, 47036, Note_off_c, 0, 63, 0
4, 47036, Note_off_c, 0, 67, 0
4, 47520, Note_on_c, 0, 60, 64
4, 47520, Note_on_c, 0, 65, 64
4, 47520, Note_on_c, 0, 69, 64
4, 48476, Note_off_c, 0, 60, 0
4, 48476, Note_off_c, 0, 65, 0
4, 48476, Note_off_c, 0, 69, 0
4, 48960, Note_on_c, 0, 62, 64
4, 48960, Note_on_c, 0, 65, 64
4, 48960, Note_on_c, 0, 70, 64
4, 48960, Note_on_c, 0, 70, 64
4, 49916, Note_off_c, 0, 62, 0
4, 49916, Note_off_c, 0, 65, 0
4, 49916, Note_off_c, 0, 70, 0
4, 49916, Note_off_c, 0, 70, 0
4, 51840, Note_on_c, 0, 58, 64
4, 51840, Note_on_c, 0, 62, 64
4, 51840, Note_on_c, 0, 67, 64
4, 52796, Note_off_c, 0, 58, 0
4, 52796, Note_off_c, 0, 62, 0
4, 52796, Note_off_c, 0, 67, 0
4, 53280, Note_on_c, 0, 61, 64
4, 53280, Note_on_c, 0, 64, 64
4, 53280, Note_on_c, 0, 69, 64
4, 54236, Note_off_c, 0, 61, 0
4, 54236, Note_off_c, 0, 64, 0
4, 54236, Note_off_c, 0, 69, 0
4, 54720, Note_on_c, 0, 57, 64
4, 54720, Note_on_c, 0, 62, 64
4, 54720, Note_on_c, 0, 65, 64
4, 55676, Note_off_c, 0, 57, 0
4, 55676, Note_off_c, 0, 62, 0
4, 55676, Note_off_c, 0, 65, 0
4, 56160, Note_on_c, 0, 57, 64
4, 56160, Note_on_c, 0, 62, 64
4, 56160, Note_on_c, 0, 65, 64
4, 57116, Note_off_c, 0, 57, 0
4, 57116, Note_off_c, 0, 62, 0
4, 57116, Note_off_c, 0, 65, 0
4, 57600, Note_on_c, 0, 58, 64
4, 57600, Note_on_c, 0, 62, 64
4, 57600, Note_on_c, 0, 65, 64
4, 58556, Note_off_c, 0, 58, 0
4, 58556, Note_off_c, 0, 62, 0
4, 58556, Note_off_c, 0, 65, 0
4, 59040, Note_on_c, 0, 57, 64
4, 59040, Note_on_c, 0, 61, 64
4, 59040, Note_on_c, 0, 64, 64
4, 59996, Note_off_c, 0, 57, 0
4, 59996, Note_off_c, 0, 61, 0
4, 59996, Note_off_c, 0, 64, 0
4, 60480, Note_on_c, 0, 57, 64
4, 60480, Note_on_c, 0, 62, 64
4, 60480, Note_on_c, 0, 66, 64
4, 61436, Note_off_c, 0, 57, 0
4, 61436, Note_off_c, 0, 62, 0
4, 61436, Note_off_c, 0, 66, 0
4, 63360, Note_on_c, 0, 60, 64
4, 63360, Note_on_c, 0, 63, 64
4, 63360, Note_on_c, 0, 67, 64
4, 64316, Note_off_c, 0, 60, 0
4, 64316, Note_off_c, 0, 63, 0
4, 64316, Note_off_c, 0, 67, 0
4, 64800, Note_on_c, 0, 57, 64
4, 64800, Note_on_c, 0, 62, 64
4, 64800, Note_on_c, 0, 66, 64
4, 65756, Note_off_c, 0, 57, 0
4, 65756, Note_off_c, 0, 62, 0
4, 65756, Note_off_c, 0, 66, 0
4, 66240, Note_on_c, 0, 58, 64
4, 66240, Note_on_c, 0, 62, 64
4, 66240, Note_on_c, 0, 67, 64
4, 67196, Note_off_c, 0, 58, 0
4, 67196, Note_off_c, 0, 62, 0
4, 67196, Note_off_c, 0, 67, 0
4, 69120, Note_on_c, 0, 58, 64
4, 69120, Note_on_c, 0, 63, 64
4, 69120, Note_on_c, 0, 67, 64
4, 70076, Note_off_c, 0, 58, 0
4, 70076, Note_off_c, 0, 63, 0
4, 70076, Note_off_c, 0, 67, 0
4, 70560, Note_on_c, 0, 60, 64
4, 70560, Note_on_c, 0, 65, 64
4, 70560, Note_on_c, 0, 69, 64
4, 71516, Note_off_c, 0, 60, 0
4, 71516, Note_off_c, 0, 65, 0
4, 71516, Note_off_c, 0, 69, 0
4, 72000, Note_on_c, 0, 62, 64
4, 72000, Note_on_c, 0, 65, 64
4, 72000, Note_on_c, 0, 70, 64
4, 72956, Note_off_c, 0, 62, 0
4, 72956, Note_off_c, 0, 65, 0
4, 72956, Note_off_c, 0, 70, 0
4, 74880, Note_on_c, 0, 58, 64
4, 74880, Note_on_c, 0, 62, 64
4, 74880, Note_on_c, 0, 67, 64
4, 75836, Note_off_c, 0, 58, 0
4, 75836, Note_off_c, 0, 62, 0
4, 75836, Note_off_c, 0, 67, 0
4, 76320, Note_on_c, 0, 61, 64
4, 76320, Note_on_c, 0, 64, 64
4, 76320, Note_on_c, 0, 69, 64
4, 77276, Note_off_c, 0, 61, 0
4, 77276, Note_off_c, 0, 64, 0
4, 77276, Note_off_c, 0, 69, 0
4, 77760, Note_on_c, 0, 62, 64
4, 77760, Note_on_c, 0, 65, 64
4, 77760, Note_on_c, 0, 69, 64
4, 78716, Note_off_c, 0, 62, 0
4, 78716, Note_off_c, 0, 65, 0
4, 78716, Note_off_c, 0, 69, 0
4, 79200, Note_on_c, 0, 60, 64
4, 79200, Note_on_c, 0, 65, 64
4, 79200, Note_on_c, 0, 69, 64
4, 80156, Note_off_c, 0, 60, 0
4, 80156, Note_off_c, 0, 65, 0
4, 80156, Note_off_c, 0, 69, 0
4, 80640, Note_on_c, 0, 58, 64
4, 80640, Note_on_c, 0, 62, 64
4, 80640, Note_on_c, 0, 65, 64
4, 81596, Note_off_c, 0, 58, 0
4, 81596, Note_off_c, 0, 62, 0
4, 81596, Note_off_c, 0, 65, 0
4, 82080, Note_on_c, 0, 61, 64
4, 82080, Note_on_c, 0, 64, 64
4, 82080, Note_on_c, 0, 69, 64
4, 83036, Note_off_c, 0, 61, 0
4, 83036, Note_off_c, 0, 64, 0
4, 83036, Note_off_c, 0, 69, 0
4, 83520, Note_on_c, 0, 57, 64
4, 83520, Note_on_c, 0, 62, 64
4, 83520, Note_on_c, 0, 66, 64
4, 84476, Note_off_c, 0, 57, 0
4, 84476, Note_off_c, 0, 62, 0
4, 84476, Note_off_c, 0, 66, 0
4, 86400, Note_on_c, 0, 57, 64
4, 86400, Note_on_c, 0, 62, 64
4, 86400, Note_on_c, 0, 66, 64
4, 87356, Note_off_c, 0, 57, 0
4, 87356, Note_off_c, 0, 62, 0
4, 87356, Note_off_c, 0, 66, 0
4, 89280, Note_on_c, 0, 58, 64
4, 89280, Note_on_c, 0, 63, 64
4, 89280, Note_on_c, 0, 67, 64
4, 90236, Note_off_c, 0, 58, 0
4, 90236, Note_off_c, 0, 63, 0
4, 90236, Note_off_c, 0, 67, 0
4, 90720, Note_on_c, 0, 60, 64
4, 90720, Note_on_c, 0, 65, 64
4, 90720, Note_on_c, 0, 69, 64
4, 91676, Note_off_c, 0, 60, 0
4, 91676, Note_off_c, 0, 65, 0
4, 91676, Note_off_c, 0, 69, 0
4, 92160, Note_on_c, 0, 62, 64
4, 92160, Note_on_c, 0, 65, 64
4, 92160, Note_on_c, 0, 70, 64
4, 93116, Note_off_c, 0, 62, 0
4, 93116, Note_off_c, 0, 65, 0
4, 93116, Note_off_c, 0, 70, 0
4, 95040, Note_on_c, 0, 58, 64
4, 95040, Note_on_c, 0, 63, 64
4, 95040, Note_on_c, 0, 67, 64
4, 95996, Note_off_c, 0, 58, 0
4, 95996, Note_off_c, 0, 63, 0
4, 95996, Note_off_c, 0, 67, 0
4, 96480, Note_on_c, 0, 60, 64
4, 96480, Note_on_c, 0, 65, 64
4, 96480, Note_on_c, 0, 69, 64
4, 97436, Note_off_c, 0, 60, 0
4, 97436, Note_off_c, 0, 65, 0
4, 97436, Note_off_c, 0, 69, 0
4, 97920, Note_on_c, 0, 58, 64
4, 97920, Note_on_c, 0, 62, 64
4, 97920, Note_on_c, 0, 65, 64
4, 98876, Note_off_c, 0, 58, 0
4, 98876, Note_off_c, 0, 62, 0
4, 98876, Note_off_c, 0, 65, 0
4, 100800, Note_on_c, 0, 62, 64
4, 100800, Note_on_c, 0, 65, 64
4, 100800, Note_on_c, 0, 69, 64
4, 101756, Note_off_c, 0, 62, 0
4, 101756, Note_off_c, 0, 65, 0
4, 101756, Note_off_c, 0, 69, 0
4, 103680, Note_on_c, 0, 61, 64
4, 103680, Note_on_c, 0, 64, 64
4, 103680, Note_on_c, 0, 69, 64
4, 104636, Note_off_c, 0, 61, 0
4, 104636, Note_off_c, 0, 64, 0
4, 104636, Note_off_c, 0, 69, 0
4, 106560, Note_on_c, 0, 62, 64
4, 106560, Note_on_c, 0, 65, 64
4, 106560, Note_on_c, 0, 69, 64
4, 107516, Note_off_c, 0, 62, 0
4, 107516, Note_off_c, 0, 65, 0
4, 107516, Note_off_c, 0, 69, 0
4, 109440, Note_on_c, 0, 61, 64
4, 109440, Note_on_c, 0, 64, 64
4, 109440, Note_on_c, 0, 69, 64
4, 110396, Note_off_c, 0, 61, 0
4, 110396, Note_off_c, 0, 64, 0
4, 110396, Note_off_c, 0, 69, 0
4, 112320, Note_on_c, 0, 57, 64
4, 112320, Note_on_c, 0, 62, 64
4, 112320, Note_on_c, 0, 66, 64
4, 113276, Note_off_c, 0, 57, 0
4, 113276, Note_off_c, 0, 62, 0
4, 113276, Note_off_c, 0, 66, 0
4, 115200, Note_on_c, 0, 62, 64
4, 115200, Note_on_c, 0, 67, 64
4, 115200, Note_on_c, 0, 70, 64
4, 116156, Note_off_c, 0, 62, 0
4, 116156, Note_off_c, 0, 67, 0
4, 116156, Note_off_c, 0, 70, 0
4, 118080, Note_on_c, 0, 60, 64
4, 118080, Note_on_c, 0, 64, 64
4, 118080, Note_on_c, 0, 67, 64
4, 119036, Note_off_c, 0, 60, 0
4, 119036, Note_off_c, 0, 64, 0
4, 119036, Note_off_c, 0, 67, 0
4, 120960, Note_on_c, 0, 60, 64
4, 120960, Note_on_c, 0, 65, 64
4, 120960, Note_on_c, 0, 69, 64
4, 121916, Note_off_c, 0, 60, 0
4, 121916, Note_off_c, 0, 65, 0
4, 121916, Note_off_c, 0, 69, 0
4, 123840, Note_on_c, 0, 59, 64
4, 123840, Note_on_c, 0, 64, 64
4, 123840, Note_on_c, 0, 67, 64
4, 124796, Note_off_c, 0, 59, 0
4, 124796, Note_off_c, 0, 64, 0
4, 124796, Note_off_c, 0, 67, 0
4, 126720, Note_on_c, 0, 61, 64
4, 126720, Note_on_c, 0, 64, 64
4, 126720, Note_on_c, 0, 69, 64
4, 127676, Note_off_c, 0, 61, 0
4, 127676, Note_off_c, 0, 64, 0
4, 127676, Note_off_c, 0, 69, 0
4, 129600, Note_on_c, 0, 60, 64
4, 129600, Note_on_c, 0, 63, 64
4, 129600, Note_on_c, 0, 67, 64
4, 130556, Note_off_c, 0, 60, 0
4, 130556, Note_off_c, 0, 63, 0
4, 130556, Note_off_c, 0, 67, 0
4, 138240, Note_on_c, 0, 60, 64
4, 138240, Note_on_c, 0, 63, 64
4, 138240, Note_on_c, 0, 67, 64
4, 139196, Note_off_c, 0, 60, 0
4, 139196, Note_off_c, 0, 63, 0
4, 139196, Note_off_c, 0, 67, 0
4, 139680, Note_on_c, 0, 62, 64
4, 139680, Note_on_c, 0, 66, 64
4, 139680, Note_on_c, 0, 69, 64
4, 140636, Note_off_c, 0, 62, 0
4, 140636, Note_off_c, 0, 66, 0
4, 140636, Note_off_c, 0, 69, 0
4, 141120, Note_on_c, 0, 62, 64
4, 141120, Note_on_c, 0, 67, 64
4, 141120, Note_on_c, 0, 70, 64
4, 142076, Note_off_c, 0, 62, 0
4, 142076, Note_off_c, 0, 67, 0
4, 142076, Note_off_c, 0, 70, 0
4, 144000, Note_on_c, 0, 60, 64
4, 144000, Note_on_c, 0, 63, 64
4, 144000, Note_on_c, 0, 67, 64
4, 144956, Note_off_c, 0, 60, 0
4, 144956, Note_off_c, 0, 63, 0
4, 144956, Note_off_c, 0, 67, 0
4, 145440, Note_on_c, 0, 60, 64
4, 145440, Note_on_c, 0, 65, 64
4, 145440, Note_on_c, 0, 69, 64
4, 146396, Note_off_c, 0, 60, 0
4, 146396, Note_off_c, 0, 65, 0
4, 146396, Note_off_c, 0, 69, 0
4, 146880, Note_on_c, 0, 62, 64
4, 146880, Note_on_c, 0, 65, 64
4, 146880, Note_on_c, 0, 70, 64
4, 147836, Note_off_c, 0, 62, 0
4, 147836, Note_off_c, 0, 65, 0
4, 147836, Note_off_c, 0, 70, 0
4, 149760, Note_on_c, 0, 58, 64
4, 149760, Note_on_c, 0, 62, 64
4, 149760, Note_on_c, 0, 67, 64
4, 150716, Note_off_c, 0, 58, 0
4, 150716, Note_off_c, 0, 62, 0
4, 150716, Note_off_c, 0, 67, 0
4, 151200, Note_on_c, 0, 61, 64
4, 151200, Note_on_c, 0, 64, 64
4, 151200, Note_on_c, 0, 69, 64
4, 152156, Note_off_c, 0, 61, 0
4, 152156, Note_off_c, 0, 64, 0
4, 152156, Note_off_c, 0, 69, 0
4, 152640, Note_on_c, 0, 62, 64
4, 152640, Note_on_c, 0, 65, 64
4, 152640, Note_on_c, 0, 69, 64
4, 153596, Note_off_c, 0, 62, 0
4, 153596, Note_off_c, 0, 65, 0
4, 153596, Note_off_c, 0, 69, 0
4, 154080, Note_on_c, 0, 60, 64
4, 154080, Note_on_c, 0, 65, 64
4, 154080, Note_on_c, 0, 69, 64
4, 155036, Note_off_c, 0, 60, 0
4, 155036, Note_off_c, 0, 65, 0
4, 155036, Note_off_c, 0, 69, 0
4, 155520, Note_on_c, 0, 58, 64
4, 155520, Note_on_c, 0, 62, 64
4, 155520, Note_on_c, 0, 65, 64
4, 156476, Note_off_c, 0, 58, 0
4, 156476, Note_off_c, 0, 62, 0
4, 156476, Note_off_c, 0, 65, 0
4, 156960, Note_on_c, 0, 57, 64
4, 156960, Note_on_c, 0, 62, 64
4, 156960, Note_on_c, 0, 65, 64
4, 157916, Note_off_c, 0, 57, 0
4, 157916, Note_off_c, 0, 62, 0
4, 157916, Note_off_c, 0, 65, 0
4, 158400, Note_on_c, 0, 57, 64
4, 158400, Note_on_c, 0, 62, 64
4, 158400, Note_on_c, 0, 66, 64
4, 159356, Note_off_c, 0, 57, 0
4, 159356, Note_off_c, 0, 62, 0
4, 159356, Note_off_c, 0, 66, 0
4, 161280, Note_on_c, 0, 60, 64
4, 161280, Note_on_c, 0, 63, 64
4, 161280, Note_on_c, 0, 67, 64
4, 162236, Note_off_c, 0, 60, 0
4, 162236, Note_off_c, 0, 63, 0
4, 162236, Note_off_c, 0, 67, 0
4, 162720, Note_on_c, 0, 62, 64
4, 162720, Note_on_c, 0, 66, 64
4, 162720, Note_on_c, 0, 69, 64
4, 163676, Note_off_c, 0, 62, 0
4, 163676, Note_off_c, 0, 66, 0
4, 163676, Note_off_c, 0, 69, 0
4, 164160, Note_on_c, 0, 62, 64
4, 164160, Note_on_c, 0, 67, 64
4, 164160, Note_on_c, 0, 70, 64
4, 165116, Note_off_c, 0, 62, 0
4, 165116, Note_off_c, 0, 67, 0
4, 165116, Note_off_c, 0, 70, 0
4, 167040, Note_on_c, 0, 60, 64
4, 167040, Note_on_c, 0, 63, 64
4, 167040, Note_on_c, 0, 67, 64
4, 167996, Note_off_c, 0, 60, 0
4, 167996, Note_off_c, 0, 63, 0
4, 167996, Note_off_c, 0, 67, 0
4, 168480, Note_on_c, 0, 60, 64
4, 168480, Note_on_c, 0, 65, 64
4, 168480, Note_on_c, 0, 69, 64
4, 169436, Note_off_c, 0, 60, 0
4, 169436, Note_off_c, 0, 65, 0
4, 169436, Note_off_c, 0, 69, 0
4, 169920, Note_on_c, 0, 62, 64
4, 169920, Note_on_c, 0, 65, 64
4, 169920, Note_on_c, 0, 70, 64
4, 170876, Note_off_c, 0, 62, 0
4, 170876, Note_off_c, 0, 65, 0
4, 170876, Note_off_c, 0, 70, 0
4, 172800, Note_on_c, 0, 58, 64
4, 172800, Note_on_c, 0, 62, 64
4, 172800, Note_on_c, 0, 67, 64
4, 173756, Note_off_c, 0, 58, 0
4, 173756, Note_off_c, 0, 62, 0
4, 173756, Note_off_c, 0, 67, 0
4, 174240, Note_on_c, 0, 61, 64
4, 174240, Note_on_c, 0, 64, 64
4, 174240, Note_on_c, 0, 69, 64
4, 175196, Note_off_c, 0, 61, 0
4, 175196, Note_off_c, 0, 64, 0
4, 175196, Note_off_c, 0, 69, 0
4, 175680, Note_on_c, 0, 62, 64
4, 175680, Note_on_c, 0, 65, 64
4, 175680, Note_on_c, 0, 69, 64
4, 176636, Note_off_c, 0, 62, 0
4, 176636, Note_off_c, 0, 65, 0
4, 176636, Note_off_c, 0, 69, 0
4, 177120, Note_on_c, 0, 60, 64
4, 177120, Note_on_c, 0, 65, 64
4, 177120, Note_on_c, 0, 69, 64
4, 178076, Note_off_c, 0, 60, 0
4, 178076, Note_off_c, 0, 65, 0
4, 178076, Note_off_c, 0, 69, 0
4, 178560, Note_on_c, 0, 58, 64
4, 178560, Note_on_c, 0, 62, 64
4, 178560, Note_on_c, 0, 65, 64
4, 179516, Note_off_c, 0, 58, 0
4, 179516, Note_off_c, 0, 62, 0
4, 179516, Note_off_c, 0, 65, 0
4, 180000, Note_on_c, 0, 57, 64
4, 180000, Note_on_c, 0, 61, 64
4, 180000, Note_on_c, 0, 64, 64
4, 180956, Note_off_c, 0, 57, 0
4, 180956, Note_off_c, 0, 61, 0
4, 180956, Note_off_c, 0, 64, 0
4, 181440, Note_on_c, 0, 57, 64
4, 181440, Note_on_c, 0, 62, 64
4, 181440, Note_on_c, 0, 66, 64
4, 182396, Note_off_c, 0, 57, 0
4, 182396, Note_off_c, 0, 62, 0
4, 182396, Note_off_c, 0, 66, 0
4, 191520, Note_on_c, 0, 62, 64
4, 191520, Note_on_c, 0, 65, 64
4, 191520, Note_on_c, 0, 69, 64
4, 192476, Note_off_c, 0, 62, 0
4, 192476, Note_off_c, 0, 65, 0
4, 192476, Note_off_c, 0, 69, 0
4, 192960, Note_on_c, 0, 59, 64
4, 192960, Note_on_c, 0, 64, 64
4, 192960, Note_on_c, 0, 68, 64
4, 193916, Note_off_c, 0, 59, 0
4, 193916, Note_off_c, 0, 64, 0
4, 193916, Note_off_c, 0, 68, 0
4, 194400, Note_on_c, 0, 60, 64
4, 194400, Note_on_c, 0, 64, 64
4, 194400, Note_on_c, 0, 69, 64
4, 195356, Note_off_c, 0, 60, 0
4, 195356, Note_off_c, 0, 64, 0
4, 195356, Note_off_c, 0, 69, 0
4, 197280, Note_on_c, 0, 62, 64
4, 197280, Note_on_c, 0, 65, 64
4, 197280, Note_on_c, 0, 69, 64
4, 198236, Note_off_c, 0, 62, 0
4, 198236, Note_off_c, 0, 65, 0
4, 198236, Note_off_c, 0, 69, 0
4, 198720, Note_on_c, 0, 59, 64
4, 198720, Note_on_c, 0, 62, 64
4, 198720, Note_on_c, 0, 67, 64
4, 199676, Note_off_c, 0, 59, 0
4, 199676, Note_off_c, 0, 62, 0
4, 199676, Note_off_c, 0, 67, 0
4, 200160, Note_on_c, 0, 60, 64
4, 200160, Note_on_c, 0, 64, 64
4, 200160, Note_on_c, 0, 67, 64
4, 201116, Note_off_c, 0, 60, 0
4, 201116, Note_off_c, 0, 64, 0
4, 201116, Note_off_c, 0, 67, 0
4, 203040, Note_on_c, 0, 60, 64
4, 203040, Note_on_c, 0, 64, 64
4, 203040, Note_on_c, 0, 69, 64
4, 203996, Note_off_c, 0, 60, 0
4, 203996, Note_off_c, 0, 64, 0
4, 203996, Note_off_c, 0, 69, 0
4, 204480, Note_on_c, 0, 63, 64
4, 204480, Note_on_c, 0, 66, 64
4, 204480, Note_on_c, 0, 71, 64
4, 205436, Note_off_c, 0, 63, 0
4, 205436, Note_off_c, 0, 66, 0
4, 205436, Note_off_c, 0, 71, 0
4, 205920, Note_on_c, 0, 64, 64
4, 205920, Note_on_c, 0, 67, 64
4, 205920, Note_on_c, 0, 71, 64
4, 206876, Note_off_c, 0, 64, 0
4, 206876, Note_off_c, 0, 67, 0
4, 206876, Note_off_c, 0, 71, 0
4, 207360, Note_on_c, 0, 62, 64
4, 207360, Note_on_c, 0, 67, 64
4, 207360, Note_on_c, 0, 71, 64
4, 208316, Note_off_c, 0, 62, 0
4, 208316, Note_off_c, 0, 67, 0
4, 208316, Note_off_c, 0, 71, 0
4, 208800, Note_on_c, 0, 60, 64
4, 208800, Note_on_c, 0, 64, 64
4, 208800, Note_on_c, 0, 67, 64
4, 209756, Note_off_c, 0, 60, 0
4, 209756, Note_off_c, 0, 64, 0
4, 209756, Note_off_c, 0, 67, 0
4, 210240, Note_on_c, 0, 59, 64
4, 210240, Note_on_c, 0, 63, 64
4, 210240, Note_on_c, 0, 66, 64
4, 211196, Note_off_c, 0, 59, 0
4, 211196, Note_off_c, 0, 63, 0
4, 211196, Note_off_c, 0, 66, 0
4, 211680, Note_on_c, 0, 59, 64
4, 211680, Note_on_c, 0, 64, 64
4, 211680, Note_on_c, 0, 68, 64
4, 212636, Note_off_c, 0, 59, 0
4, 212636, Note_off_c, 0, 64, 0
4, 212636, Note_off_c, 0, 68, 0
4, 217440, Note_on_c, 0, 57, 64
4, 217440, Note_on_c, 0, 60, 64
4, 217440, Note_on_c, 0, 64, 64
4, 218396, Note_off_c, 0, 57, 0
4, 218396, Note_off_c, 0, 60, 0
4, 218396, Note_off_c, 0, 64, 0
4, 218880, Note_on_c, 0, 59, 64
4, 218880, Note_on_c, 0, 63, 64
4, 218880, Note_on_c, 0, 66, 64
4, 219836, Note_off_c, 0, 59, 0
4, 219836, Note_off_c, 0, 63, 0
4, 219836, Note_off_c, 0, 66, 0
4, 221760, Note_on_c, 0, 59, 64
4, 221760, Note_on_c, 0, 64, 64
4, 221760, Note_on_c, 0, 68, 64
4, 222716, Note_off_c, 0, 59, 0
4, 222716, Note_off_c, 0, 64, 0
4, 222716, Note_off_c, 0, 68, 0
4, 222716, End_track
5, 0, Start_track
5, 0, Title_t, "Guitar Single-Note Input"
5, 0, Instrument_name_t, "Guitar Single-Note Input"
5, 12000, Note_on_c, 5, 60, 64
5, 12000, Note_on_c, 5, 63, 64
5, 12956, Note_off_c, 5, 60, 0
5, 12956, Note_off_c, 5, 63, 0
5, 13440, Note_on_c, 5, 62, 64
5, 14396, Note_off_c, 5, 62, 0
5, 14880, Note_on_c, 5, 67, 64
5, 14880, Note_on_c, 5, 70, 64
5, 15836, Note_off_c, 5, 67, 0
5, 15836, Note_off_c, 5, 70, 0
5, 17760, Note_on_c, 5, 60, 64
5, 17760, Note_on_c, 5, 63, 64
5, 18716, Note_off_c, 5, 60, 0
5, 18716, Note_off_c, 5, 63, 0
5, 19200, Note_on_c, 5, 65, 64
5, 20156, Note_off_c, 5, 65, 0
5, 20640, Note_on_c, 5, 58, 64
5, 21596, Note_off_c, 5, 58, 0
5, 23520, Note_on_c, 5, 67, 64
5, 23520, Note_on_c, 5, 70, 64
5, 24476, Note_off_c, 5, 67, 0
5, 24476, Note_off_c, 5, 70, 0
5, 24960, Note_on_c, 5, 69, 64
5, 25916, Note_off_c, 5, 69, 0
5, 26400, Note_on_c, 5, 62, 64
5, 26400, Note_on_c, 5, 65, 64
5, 27356, Note_off_c, 5, 62, 0
5, 27356, Note_off_c, 5, 65, 0
5, 27840, Note_on_c, 5, 65, 64
5, 28796, Note_off_c, 5, 65, 0
5, 29280, Note_on_c, 5, 58, 64
5, 30236, Note_off_c, 5, 58, 0
5, 30720, Note_on_c, 5, 69, 64
5, 30720, Note_on_c, 5, 72, 64
5, 31676, Note_off_c, 5, 69, 0
5, 31676, Note_off_c, 5, 72, 0
5, 32160, Note_on_c, 5, 62, 64
5, 33116, Note_off_c, 5, 62, 0
5, 34560, Note_on_c, 5, 67, 64
5, 34560, Note_on_c, 5, 70, 64
5, 35516, Note_off_c, 5, 67, 0
5, 35516, Note_off_c, 5, 70, 0
5, 36000, Note_on_c, 5, 67, 64
5, 36000, Note_on_c, 5, 70, 64
5, 36956, Note_off_c, 5, 67, 0
5, 36956, Note_off_c, 5, 70, 0
5, 37440, Note_on_c, 5, 67, 64
5, 37440, Note_on_c, 5, 70, 64
5, 38396, Note_off_c, 5, 67, 0
5, 38396, Note_off_c, 5, 70, 0
5, 38880, Note_on_c, 5, 67, 64
5, 38880, Note_on_c, 5, 70, 64
5, 39836, Note_off_c, 5, 67, 0
5, 39836, Note_off_c, 5, 70, 0
5, 40320, Note_on_c, 5, 60, 64
5, 40320, Note_on_c, 5, 63, 64
5, 41276, Note_off_c, 5, 60, 0
5, 41276, Note_off_c, 5, 63, 0
5, 41760, Note_on_c, 5, 62, 64
5, 42716, Note_off_c, 5, 62, 0
5, 43200, Note_on_c, 5, 67, 64
5, 43200, Note_on_c, 5, 70, 64
5, 44156, Note_off_c, 5, 67, 0
5, 44156, Note_off_c, 5, 70, 0
5, 46080, Note_on_c, 5, 63, 64
5, 47036, Note_off_c, 5, 63, 0
5, 47520, Note_on_c, 5, 65, 64
5, 48476, Note_off_c, 5, 65, 0
5, 48960, Note_on_c, 5, 58, 64
5, 49916, Note_off_c, 5, 58, 0
5, 51840, Note_on_c, 5, 67, 64
5, 51840, Note_on_c, 5, 70, 64
5, 52796, Note_off_c, 5, 67, 0
5, 52796, Note_off_c, 5, 70, 0
5, 53280, Note_on_c, 5, 69, 64
5, 54236, Note_off_c, 5, 69, 0
5, 54720, Note_on_c, 5, 62, 64
5, 54720, Note_on_c, 5, 65, 64
5, 55676, Note_off_c, 5, 62, 0
5, 55676, Note_off_c, 5, 65, 0
5, 56160, Note_on_c, 5, 62, 64
5, 56160, Note_on_c, 5, 65, 64
5, 57116, Note_off_c, 5, 62, 0
5, 57116, Note_off_c, 5, 65, 0
5, 57600, Note_on_c, 5, 58, 64
5, 58556, Note_off_c, 5, 58, 0
5, 59040, Note_on_c, 5, 69, 64
5, 59996, Note_off_c, 5, 69, 0
5, 60480, Note_on_c, 5, 62, 64
5, 61436, Note_off_c, 5, 62, 0
5, 63360, Note_on_c, 5, 60, 64
5, 63360, Note_on_c, 5, 63, 64
5, 64316, Note_off_c, 5, 60, 0
5, 64316, Note_off_c, 5, 63, 0
5, 64800, Note_on_c, 5, 62, 64
5, 65756, Note_off_c, 5, 62, 0
5, 66240, Note_on_c, 5, 67, 64
5, 66240, Note_on_c, 5, 70, 64
5, 67196, Note_off_c, 5, 67, 0
5, 67196, Note_off_c, 5, 70, 0
5, 69120, Note_on_c, 5, 63, 64
5, 70076, Note_off_c, 5, 63, 0
5, 70560, Note_on_c, 5, 65, 64
5, 71516, Note_off_c, 5, 65, 0
5, 72000, Note_on_c, 5, 58, 64
5, 72956, Note_off_c, 5, 58, 0
5, 74880, Note_on_c, 5, 67, 64
5, 74880, Note_on_c, 5, 70, 64
5, 75836, Note_off_c, 5, 67, 0
5, 75836, Note_off_c, 5, 70, 0
5, 76320, Note_on_c, 5, 69, 64
5, 77276, Note_off_c, 5, 69, 0
5, 77760, Note_on_c, 5, 62, 64
5, 77760, Note_on_c, 5, 65, 64
5, 78716, Note_off_c, 5, 62, 0
5, 78716, Note_off_c, 5, 65, 0
5, 79200, Note_on_c, 5, 65, 64
5, 80156, Note_off_c, 5, 65, 0
5, 80640, Note_on_c, 5, 62, 64
5, 81596, Note_off_c, 5, 62, 0
5, 82080, Note_on_c, 5, 69, 64
5, 83036, Note_off_c, 5, 69, 0
5, 83520, Note_on_c, 5, 62, 64
5, 84476, Note_off_c, 5, 62, 0
5, 86400, Note_on_c, 5, 62, 64
5, 87356, Note_off_c, 5, 62, 0
5, 89280, Note_on_c, 5, 63, 64
5, 90236, Note_off_c, 5, 63, 0
5, 90720, Note_on_c, 5, 65, 64
5, 91676, Note_off_c, 5, 65, 0
5, 92160, Note_on_c, 5, 58, 64
5, 93116, Note_off_c, 5, 58, 0
5, 95040, Note_on_c, 5, 63, 64
5, 95996, Note_off_c, 5, 63, 0
5, 96480, Note_on_c, 5, 65, 64
5, 97436, Note_off_c, 5, 65, 0
5, 97920, Note_on_c, 5, 58, 64
5, 98876, Note_off_c, 5, 58, 0
5, 100800, Note_on_c, 5, 62, 64
5, 100800, Note_on_c, 5, 65, 64
5, 101756, Note_off_c, 5, 62, 0
5, 101756, Note_off_c, 5, 65, 0
5, 103680, Note_on_c, 5, 69, 64
5, 104636, Note_off_c, 5, 69, 0
5, 106560, Note_on_c, 5, 62, 64
5, 106560, Note_on_c, 5, 65, 64
5, 107516, Note_off_c, 5, 62, 0
5, 107516, Note_off_c, 5, 65, 0
5, 109440, Note_on_c, 5, 69, 64
5, 110396, Note_off_c, 5, 69, 0
5, 112320, Note_on_c, 5, 62, 64
5, 113276, Note_off_c, 5, 62, 0
5, 115200, Note_on_c, 5, 67, 64
5, 116156, Note_off_c, 5, 67, 0
5, 118080, Note_on_c, 5, 60, 64
5, 119036, Note_off_c, 5, 60, 0
5, 120960, Note_on_c, 5, 65, 64
5, 121916, Note_off_c, 5, 65, 0
5, 123840, Note_on_c, 1, 64, 127
5, 123840, Note_on_c, 1, 67, 127
5, 124796, Note_off_c, 1, 64, 0
5, 124796, Note_off_c, 1, 67, 0
5, 126720, Note_on_c, 1, 69, 127
5, 127676, Note_off_c, 1, 69, 0
5, 129600, Note_on_c, 1, 60, 127
5, 129600, Note_on_c, 1, 63, 127
5, 130556, Note_off_c, 1, 60, 0
5, 130556, Note_off_c, 1, 63, 0
5, 138240, Note_on_c, 1, 60, 127
5, 138240, Note_on_c, 1, 63, 127
5, 139196, Note_off_c, 1, 60, 0
5, 139196, Note_off_c, 1, 63, 0
5, 139680, Note_on_c, 1, 62, 127
5, 140636, Note_off_c, 1, 62, 0
5, 141120, Note_on_c, 1, 67, 127
5, 141120, Note_on_c, 1, 70, 127
5, 142076, Note_off_c, 1, 67, 0
5, 142076, Note_off_c, 1, 70, 0
5, 144000, Note_on_c, 1, 60, 127
5, 144000, Note_on_c, 1, 63, 127
5, 144956, Note_off_c, 1, 60, 0
5, 144956, Note_off_c, 1, 63, 0
5, 145440, Note_on_c, 1, 65, 127
5, 146396, Note_off_c, 1, 65, 0
5, 146880, Note_on_c, 1, 58, 127
5, 147836, Note_off_c, 1, 58, 0
5, 149760, Note_on_c, 1, 67, 127
5, 149760, Note_on_c, 1, 70, 127
5, 150716, Note_off_c, 1, 67, 0
5, 150716, Note_off_c, 1, 70, 0
5, 151200, Note_on_c, 1, 69, 127
5, 152156, Note_off_c, 1, 69, 0
5, 152640, Note_on_c, 1, 62, 127
5, 152640, Note_on_c, 1, 65, 127
5, 153596, Note_off_c, 1, 62, 0
5, 153596, Note_off_c, 1, 65, 0
5, 154080, Note_on_c, 1, 65, 127
5, 155036, Note_off_c, 1, 65, 0
5, 155520, Note_on_c, 1, 58, 127
5, 156476, Note_off_c, 1, 58, 0
5, 156960, Note_on_c, 1, 62, 127
5, 156960, Note_on_c, 1, 65, 127
5, 157916, Note_off_c, 1, 62, 0
5, 157916, Note_off_c, 1, 65, 0
5, 158400, Note_on_c, 1, 62, 127
5, 159356, Note_off_c, 1, 62, 0
5, 161280, Note_on_c, 1, 60, 127
5, 161280, Note_on_c, 1, 63, 127
5, 162236, Note_off_c, 1, 60, 0
5, 162236, Note_off_c, 1, 63, 0
5, 162720, Note_on_c, 1, 62, 127
5, 163676, Note_off_c, 1, 62, 0
5, 164160, Note_on_c, 1, 67, 127
5, 164160, Note_on_c, 1, 70, 127
5, 165116, Note_off_c, 1, 67, 0
5, 165116, Note_off_c, 1, 70, 0
5, 167040, Note_on_c, 1, 60, 127
5, 167040, Note_on_c, 1, 63, 127
5, 167996, Note_off_c, 1, 60, 0
5, 167996, Note_off_c, 1, 63, 0
5, 168480, Note_on_c, 1, 65, 127
5, 169436, Note_off_c, 1, 65, 0
5, 169920, Note_on_c, 1, 58, 127
5, 170876, Note_off_c, 1, 58, 0
5, 172800, Note_on_c, 1, 67, 127
5, 172800, Note_on_c, 1, 70, 127
5, 173756, Note_off_c, 1, 67, 0
5, 173756, Note_off_c, 1, 70, 0
5, 174240, Note_on_c, 1, 69, 127
5, 175196, Note_off_c, 1, 69, 0
5, 175680, Note_on_c, 1, 62, 127
5, 175680, Note_on_c, 1, 65, 127
5, 176636, Note_off_c, 1, 62, 0
5, 176636, Note_off_c, 1, 65, 0
5, 177120, Note_on_c, 1, 65, 127
5, 178076, Note_off_c, 1, 65, 0
5, 178560, Note_on_c, 1, 58, 127
5, 179516, Note_off_c, 1, 58, 0
5, 180000, Note_on_c, 1, 69, 127
5, 180956, Note_off_c, 1, 69, 0
5, 181440, Note_on_c, 1, 62, 127
5, 182396, Note_off_c, 1, 62, 0
5, 191520, Note_on_c, 1, 62, 127
5, 191520, Note_on_c, 1, 65, 127
5, 192476, Note_off_c, 1, 62, 0
5, 192476, Note_off_c, 1, 65, 0
5, 192960, Note_on_c, 1, 64, 127
5, 193916, Note_off_c, 1, 64, 0
5, 194400, Note_on_c, 1, 69, 127
5, 194400, Note_on_c, 1, 72, 127
5, 195356, Note_off_c, 1, 69, 0
5, 195356, Note_off_c, 1, 72, 0
5, 197280, Note_on_c, 1, 62, 127
5, 197280, Note_on_c, 1, 65, 127
5, 198236, Note_off_c, 1, 62, 0
5, 198236, Note_off_c, 1, 65, 0
5, 198720, Note_on_c, 1, 67, 127
5, 199676, Note_off_c, 1, 67, 0
5, 200160, Note_on_c, 1, 60, 127
5, 201116, Note_off_c, 1, 60, 0
5, 203040, Note_on_c, 1, 69, 127
5, 203040, Note_on_c, 1, 72, 127
5, 203996, Note_off_c, 1, 69, 0
5, 203996, Note_off_c, 1, 72, 0
5, 204480, Note_on_c, 1, 71, 127
5, 205436, Note_off_c, 1, 71, 0
5, 205920, Note_on_c, 1, 64, 127
5, 205920, Note_on_c, 1, 67, 127
5, 206876, Note_off_c, 1, 64, 0
5, 206876, Note_off_c, 1, 67, 0
5, 207360, Note_on_c, 1, 67, 127
5, 208316, Note_off_c, 1, 67, 0
5, 208800, Note_on_c, 1, 60, 127
5, 209756, Note_off_c, 1, 60, 0
5, 210240, Note_on_c, 1, 59, 127
5, 211196, Note_off_c, 1, 59, 0
5, 211680, Note_on_c, 1, 64, 127
5, 212636, Note_off_c, 1, 64, 0
5, 217440, Note_on_c, 1, 69, 127
5, 217440, Note_on_c, 1, 72, 127
5, 218396, Note_off_c, 1, 69, 0
5, 218396, Note_off_c, 1, 72, 0
5, 218880, Note_on_c, 1, 71, 127
5, 219836, Note_off_c, 1, 71, 0
5, 221760, Note_on_c, 1, 64, 127
5, 222716, Note_off_c, 1, 64, 0
5, 222716, End_track
6, 0, Start_track
6, 0, Title_t, "CH #3"
6, 0, Instrument_name_t, "Cello"
6, 11520, Control_c, 2, 11, 70
6, 11520, Note_on_c, 2, 36, 127
6, 11520, Control_c, 2, 7, 100
6, 11520, Control_c, 2, 10, 64
6, 11520, Control_c, 2, 11, 70
6, 12960, Note_on_c, 2, 36, 0
6, 12960, Note_on_c, 2, 38, 127
6, 14400, Note_on_c, 2, 38, 0
6, 14400, Note_on_c, 2, 43, 127
6, 15840, Note_on_c, 0, 41, 64
6, 15840, Note_on_c, 2, 43, 0
6, 17276, Note_off_c, 0, 41, 0
6, 17280, Note_on_c, 2, 36, 127
6, 18103, Control_c, 2, 11, 71
6, 18720, Note_on_c, 2, 36, 0
6, 18720, Note_on_c, 2, 41, 127
6, 20160, Note_on_c, 2, 41, 0
6, 20160, Note_on_c, 2, 46, 127
6, 21394, Control_c, 2, 11, 72
6, 21600, Note_on_c, 2, 41, 127
6, 21600, Note_on_c, 2, 46, 0
6, 23040, Note_on_c, 2, 40, 127
6, 23040, Note_on_c, 2, 41, 0
6, 24480, Note_on_c, 2, 40, 0
6, 24480, Note_on_c, 2, 45, 127
6, 24685, Control_c, 2, 11, 73
6, 25920, Note_on_c, 2, 45, 0
6, 25920, Note_on_c, 2, 50, 127
6, 27360, Note_on_c, 2, 48, 127
6, 27360, Note_on_c, 2, 50, 0
6, 27976, Control_c, 2, 11, 74
6, 28800, Note_on_c, 2, 46, 127
6, 28800, Note_on_c, 2, 48, 0
6, 30240, Note_on_c, 2, 45, 127
6, 30240, Note_on_c, 2, 46, 0
6, 31267, Control_c, 2, 11, 75
6, 31680, Note_on_c, 2, 38, 127
6, 31680, Note_on_c, 2, 45, 0
6, 33120, Note_on_c, 2, 38, 0
6, 34558, Control_c, 2, 11, 76
6, 34558, Control_c, 0, 7, 100
6, 34558, Control_c, 0, 10, 64
6, 34558, Control_c, 1, 7, 100
6, 34558, Control_c, 1, 10, 64
6, 34558, Control_c, 2, 7, 100
6, 34558, Control_c, 2, 10, 64
6, 34558, Control_c, 2, 11, 77
6, 34560, Control_c, 2, 11, 77
6, 34560, Control_c, 2, 11, 78
6, 34560, Note_on_c, 2, 43, 127
6, 34560, Control_c, 0, 7, 100
6, 34560, Control_c, 0, 10, 64
6, 34560, Control_c, 1, 7, 100
6, 34560, Control_c, 1, 10, 64
6, 34560, Control_c, 2, 7, 100
6, 34560, Control_c, 2, 10, 64
6, 34560, Control_c, 2, 11, 78
6, 36000, Note_on_c, 2, 38, 127
6, 36000, Note_on_c, 2, 43, 0
6, 37440, Note_on_c, 2, 38, 0
6, 37440, Note_on_c, 2, 43, 127
6, 38880, Note_on_c, 2, 38, 127
6, 38880, Note_on_c, 2, 43, 0
6, 40080, Control_c, 2, 11, 79
6, 40320, Note_on_c, 2, 38, 0
6, 40320, Note_on_c, 2, 48, 127
6, 41760, Note_on_c, 2, 48, 0
6, 41760, Note_on_c, 2, 50, 127
6, 42840, Control_c, 2, 11, 80
6, 43200, Note_on_c, 2, 43, 127
6, 43200, Note_on_c, 2, 50, 0
6, 44640, Note_on_c, 2, 43, 0
6, 44640, Note_on_c, 2, 43, 127
6, 45600, Control_c, 2, 11, 81
6, 46080, Note_on_c, 2, 43, 0
6, 46080, Note_on_c, 2, 48, 127
6, 47520, Note_on_c, 2, 48, 0
6, 47520, Note_on_c, 2, 53, 127
6, 48360, Control_c, 2, 11, 82
6, 48960, Note_on_c, 2, 46, 127
6, 48960, Note_on_c, 2, 53, 0
6, 50400, Note_on_c, 2, 46, 0
6, 50400, Note_on_c, 2, 53, 127
6, 51120, Control_c, 2, 11, 83
6, 51840, Note_on_c, 2, 52, 127
6, 51840, Note_on_c, 2, 53, 0
6, 53280, Note_on_c, 2, 45, 127
6, 53280, Note_on_c, 2, 52, 0
6, 53880, Control_c, 2, 11, 84
6, 54720, Note_on_c, 2, 45, 0
6, 54720, Note_on_c, 2, 50, 127
6, 56160, Note_on_c, 2, 48, 127
6, 56160, Note_on_c, 2, 50, 0
6, 56640, Control_c, 2, 11, 85
6, 57600, Note_on_c, 2, 46, 127
6, 57600, Note_on_c, 2, 48, 0
6, 59040, Note_on_c, 2, 45, 127
6, 59040, Note_on_c, 2, 46, 0
6, 59400, Control_c, 2, 11, 86
6, 60480, Note_on_c, 2, 45, 0
6, 60480, Note_on_c, 2, 50, 127
6, 61920, Note_on_c, 2, 50, 0
6, 61920, Note_on_c, 2, 50, 127
6, 62160, Control_c, 2, 11, 87
6, 63360, Note_on_c, 2, 48, 127
6, 63360, Note_on_c, 2, 50, 0
6, 64800, Note_on_c, 2, 48, 0
6, 64800, Note_on_c, 2, 50, 127
6, 64920, Control_c, 2, 11, 88
6, 66240, Note_on_c, 2, 43, 127
6, 66240, Note_on_c, 2, 50, 0
6, 67680, Control_c, 2, 11, 89
6, 67680, Control_c, 2, 11, 90
6, 67680, Note_on_c, 2, 43, 0
6, 67680, Note_on_c, 2, 43, 127
6, 67752, Control_c, 2, 11, 89
6, 67824, Control_c, 2, 11, 88
6, 67896, Control_c, 2, 11, 87
6, 67968, Control_c, 2, 11, 86
6, 68040, Control_c, 2, 11, 85
6, 68112, Control_c, 2, 11, 84
6, 68184, Control_c, 2, 11, 83
6, 68256, Control_c, 2, 11, 82
6, 68328, Control_c, 2, 11, 81
6, 68400, Control_c, 2, 11, 80
6, 68400, Note_on_c, 2, 41, 127
6, 68400, Note_on_c, 2, 43, 0
6, 68472, Control_c, 2, 11, 79
6, 68544, Control_c, 2, 11, 78
6, 68616, Control_c, 2, 11, 77
6, 68688, Control_c, 2, 11, 76
6, 68760, Control_c, 2, 11, 75
6, 68832, Control_c, 2, 11, 74
6, 68904, Control_c, 2, 11, 73
6, 68976, Control_c, 2, 11, 72
6, 69048, Control_c, 2, 11, 71
6, 69120, Control_c, 2, 11, 70
6, 69120, Note_on_c, 2, 41, 0
6, 69120, Note_on_c, 2, 48, 127
6, 70560, Note_on_c, 2, 48, 0
6, 70560, Note_on_c, 2, 53, 127
6, 72000, Note_on_c, 2, 46, 127
6, 72000, Note_on_c, 2, 53, 0
6, 73440, Note_on_c, 2, 46, 0
6, 73440, Note_on_c, 2, 53, 127
6, 73600, Control_c, 2, 11, 71
6, 74880, Note_on_c, 2, 52, 127
6, 74880, Note_on_c, 2, 53, 0
6, 75840, Control_c, 2, 11, 72
6, 76320, Note_on_c, 2, 45, 127
6, 76320, Note_on_c, 2, 52, 0
6, 77760, Note_on_c, 2, 45, 0
6, 77760, Note_on_c, 2, 50, 127
6, 78080, Control_c, 2, 11, 73
6, 79200, Note_on_c, 2, 48, 127
6, 79200, Note_on_c, 2, 50, 0
6, 80320, Control_c, 2, 11, 74
6, 80640, Note_on_c, 2, 46, 127
6, 80640, Note_on_c, 2, 48, 0
6, 82080, Note_on_c, 2, 45, 127
6, 82080, Note_on_c, 2, 46, 0
6, 82560, Control_c, 2, 11, 75
6, 83520, Note_on_c, 2, 45, 0
6, 83520, Note_on_c, 2, 50, 127
6, 84800, Control_c, 2, 11, 76
6, 84960, Note_on_c, 2, 50, 0
6, 84960, Note_on_c, 2, 50, 127
6, 86400, Note_on_c, 2, 50, 0
6, 86400, Note_on_c, 2, 50, 127
6, 87040, Control_c, 2, 11, 77
6, 87840, Note_on_c, 2, 50, 0
6, 87840, Note_on_c, 2, 50, 127
6, 89279, Control_c, 2, 11, 78
6, 89279, Control_c, 2, 7, 100
6, 89279, Control_c, 2, 10, 64
6, 89279, Control_c, 2, 11, 79
6, 89279, Control_c, 1, 11, 100
6, 89279, Note_on_c, 1, 51, 127
6, 89279, Note_on_c, 2, 50, 0
6, 89279, Control_c, 1, 7, 100
6, 89279, Control_c, 1, 10, 64
6, 89279, Control_c, 1, 11, 99
6, 90240, Note_on_c, 1, 50, 127
6, 90240, Note_on_c, 1, 51, 0
6, 90720, Note_on_c, 1, 48, 127
6, 90720, Note_on_c, 1, 50, 0
6, 91200, Note_on_c, 1, 46, 127
6, 91200, Note_on_c, 1, 48, 0
6, 91680, Note_on_c, 1, 45, 127
6, 91680, Note_on_c, 1, 46, 0
6, 92160, Note_on_c, 1, 45, 0
6, 92160, Note_on_c, 1, 46, 127
6, 92640, Note_on_c, 1, 46, 0
6, 92640, Note_on_c, 1, 48, 127
6, 93120, Note_on_c, 1, 48, 0
6, 93120, Note_on_c, 1, 50, 127
6, 93600, Note_on_c, 1, 41, 127
6, 93600, Note_on_c, 1, 50, 0
6, 94560, Note_on_c, 1, 41, 0
6, 94560, Note_on_c, 1, 41, 127
6, 95040, Note_on_c, 1, 41, 0
6, 95040, Note_on_c, 1, 51, 127
6, 96000, Note_on_c, 1, 50, 127
6, 96000, Note_on_c, 1, 51, 0
6, 96480, Note_on_c, 1, 48, 127
6, 96480, Note_on_c, 1, 50, 0
6, 97200, Note_on_c, 1, 46, 127
6, 97200, Note_on_c, 1, 48, 0
6, 97440, Note_on_c, 1, 46, 0
6, 97440, Note_on_c, 1, 48, 127
6, 97920, Note_on_c, 1, 48, 0
6, 97920, Note_on_c, 1, 50, 127
6, 99360, Control_c, 1, 7, 100
6, 99360, Control_c, 1, 10, 64
6, 99360, Control_c, 1, 11, 99
6, 99360, Control_c, 1, 11, 99
6, 99360, Note_on_c, 1, 50, 0
6, 99360, Control_c, 1, 7, 100
6, 99360, Control_c, 1, 10, 64
6, 99360, Control_c, 1, 11, 99
6, 100320, Note_on_c, 1, 50, 127
6, 100800, Note_on_c, 1, 50, 0
6, 100800, Note_on_c, 1, 50, 127
6, 100960, Note_on_c, 1, 50, 0
6, 101280, Note_on_c, 0, 52, 64
6, 101760, Note_on_c, 1, 50, 127
6, 102240, Note_on_c, 1, 50, 0
6, 102240, Note_on_c, 1, 53, 127
6, 102716, Note_off_c, 0, 52, 0
6, 102720, Note_on_c, 1, 52, 127
6, 102720, Note_on_c, 1, 53, 0
6, 103200, Note_on_c, 1, 50, 127
6, 103200, Note_on_c, 1, 52, 0
6, 103680, Note_on_c, 1, 45, 127
6, 103680, Note_on_c, 1, 50, 0
6, 104640, Note_on_c, 1, 45, 0
6, 104640, Note_on_c, 1, 52, 127
6, 105120, Note_on_c, 1, 52, 0
6, 105120, Note_on_c, 1, 57, 127
6, 105600, Control_c, 2, 11, 80
6, 106080, Note_on_c, 1, 57, 0
6, 106080, Note_on_c, 1, 57, 127
6, 106560, Note_on_c, 1, 53, 127
6, 106560, Note_on_c, 1, 57, 0
6, 107520, Note_on_c, 1, 53, 0
6, 107520, Note_on_c, 1, 53, 127
6, 108000, Note_on_c, 1, 53, 0
6, 108000, Note_on_c, 1, 53, 127
6, 108480, Note_on_c, 1, 53, 0
6, 108960, Note_on_c, 1, 50, 127
6, 109440, Note_on_c, 1, 50, 0
6, 109440, Note_on_c, 1, 52, 127
6, 111360, Note_on_c, 1, 52, 0
6, 112320, Control_c, 1, 7, 100
6, 112320, Control_c, 1, 10, 64
6, 112320, Control_c, 1, 11, 99
6, 112320, Control_c, 0, 11, 100
6, 112320, Note_on_c, 0, 54, 127
6, 112320, Control_c, 0, 7, 100
6, 112320, Control_c, 0, 10, 64
6, 112320, Control_c, 0, 11, 100
6, 113280, Note_on_c, 0, 54, 0
6, 113280, Note_on_c, 0, 54, 127
6, 113760, Control_c, 2, 11, 81
6, 113760, Note_on_c, 0, 54, 0
6, 113760, Note_on_c, 0, 54, 127
6, 114240, Note_on_c, 0, 54, 0
6, 114240, Note_on_c, 0, 55, 127
6, 114720, Note_on_c, 0, 55, 0
6, 114720, Note_on_c, 0, 57, 127
6, 115200, Note_on_c, 0, 57, 0
6, 115200, Note_on_c, 0, 58, 127
6, 118080, Control_c, 0, 11, 101
6, 118080, Note_on_c, 0, 52, 127
6, 118080, Note_on_c, 0, 58, 0
6, 119040, Note_on_c, 0, 52, 0
6, 119040, Note_on_c, 0, 52, 127
6, 119520, Note_on_c, 0, 52, 0
6, 119520, Note_on_c, 0, 52, 127
6, 120000, Note_on_c, 0, 52, 0
6, 120000, Note_on_c, 0, 53, 127
6, 120480, Note_on_c, 0, 53, 0
6, 120480, Note_on_c, 0, 55, 127
6, 120960, Note_on_c, 0, 55, 0
6, 120960, Note_on_c, 0, 57, 127
6, 121920, Control_c, 2, 11, 82
6, 123840, Control_c, 0, 7, 100
6, 123840, Control_c, 0, 10, 64
6, 123840, Control_c, 0, 11, 102
6, 123840, Note_on_c, 0, 57, 0
6, 123840, Note_on_c, 1, 52, 127
6, 124320, Note_on_c, 1, 51, 127
6, 124320, Note_on_c, 1, 52, 0
6, 124800, Note_on_c, 1, 51, 0
6, 124800, Note_on_c, 1, 52, 127
6, 125280, Note_on_c, 1, 52, 0
6, 125280, Note_on_c, 1, 55, 127
6, 125760, Note_on_c, 1, 53, 127
6, 125760, Note_on_c, 1, 55, 0
6, 126240, Note_on_c, 1, 52, 127
6, 126240, Note_on_c, 1, 53, 0
6, 126720, Note_on_c, 1, 50, 127
6, 126720, Note_on_c, 1, 52, 0
6, 127200, Note_on_c, 1, 50, 0
6, 127680, Note_on_c, 1, 50, 127
6, 128160, Note_on_c, 1, 50, 0
6, 128160, Note_on_c, 1, 52, 127
6, 129120, Note_on_c, 1, 45, 127
6, 129120, Note_on_c, 1, 52, 0
6, 129600, Note_on_c, 1, 45, 0
6, 129600, Note_on_c, 1, 48, 127
6, 130080, Control_c, 2, 11, 83
6, 130560, Note_on_c, 1, 46, 127
6, 130560, Note_on_c, 1, 48, 0
6, 131040, Note_on_c, 1, 45, 127
6, 131040, Note_on_c, 1, 46, 0
6, 132000, Note_on_c, 1, 43, 127
6, 132000, Note_on_c, 1, 45, 0
6, 132480, Note_on_c, 0, 45, 64
6, 132480, Note_on_c, 1, 43, 0
6, 133440, Note_on_c, 1, 46, 127
6, 133916, Note_off_c, 0, 45, 0
6, 133920, Note_on_c, 1, 46, 0
6, 134400, Note_on_c, 1, 46, 127
6, 134880, Note_on_c, 1, 46, 0
6, 134880, Note_on_c, 1, 48, 127
6, 135360, Note_on_c, 1, 48, 0
6, 135840, Note_on_c, 1, 51, 127
6, 136320, Note_on_c, 1, 50, 127
6, 136320, Note_on_c, 1, 51, 0
6, 136800, Note_on_c, 1, 50, 0
6, 137280, Note_on_c, 1, 51, 127
6, 137760, Note_on_c, 1, 50, 127
6, 137760, Note_on_c, 1, 51, 0
6, 138240, Control_c, 1, 7, 100
6, 138240, Control_c, 1, 10, 64
6, 138240, Control_c, 1, 11, 99
6, 138240, Note_on_c, 1, 50, 0
6, 138240, Note_on_c, 2, 48, 127
6, 138240, Control_c, 2, 11, 84
6, 138240, Control_c, 2, 7, 100
6, 138240, Control_c, 2, 10, 64
6, 138240, Control_c, 2, 11, 85
6, 139680, Note_on_c, 2, 48, 0
6, 139680, Note_on_c, 2, 50, 127
6, 141120, Note_on_c, 2, 43, 127
6, 141120, Note_on_c, 2, 50, 0
6, 142560, Note_on_c, 2, 43, 0
6, 142560, Note_on_c, 2, 43, 127
6, 144000, Note_on_c, 2, 43, 0
6, 144000, Note_on_c, 2, 48, 127
6, 144548, Control_c, 2, 11, 84
6, 145440, Note_on_c, 2, 48, 0
6, 145440, Note_on_c, 2, 53, 127
6, 146880, Note_on_c, 2, 46, 127
6, 146880, Note_on_c, 2, 53, 0
6, 148320, Note_on_c, 2, 46, 0
6, 148320, Note_on_c, 2, 53, 127
6, 149760, Note_on_c, 2, 52, 127
6, 149760, Note_on_c, 2, 53, 0
6, 150855, Control_c, 2, 11, 83
6, 151200, Note_on_c, 2, 45, 127
6, 151200, Note_on_c, 2, 52, 0
6, 152640, Note_on_c, 2, 45, 0
6, 152640, Note_on_c, 2, 50, 127
6, 154080, Note_on_c, 2, 48, 127
6, 154080, Note_on_c, 2, 50, 0
6, 155520, Note_on_c, 2, 46, 127
6, 155520, Note_on_c, 2, 48, 0
6, 156960, Note_on_c, 2, 45, 127
6, 156960, Note_on_c, 2, 46, 0
6, 157163, Control_c, 2, 11, 82
6, 158400, Note_on_c, 2, 45, 0
6, 158400, Note_on_c, 2, 50, 127
6, 159840, Note_on_c, 2, 50, 0
6, 159840, Note_on_c, 2, 50, 127
6, 161280, Note_on_c, 2, 48, 127
6, 161280, Note_on_c, 2, 50, 0
6, 162720, Note_on_c, 2, 48, 0
6, 162720, Note_on_c, 2, 50, 127
6, 163470, Control_c, 2, 11, 81
6, 164160, Note_on_c, 2, 43, 127
6, 164160, Note_on_c, 2, 50, 0
6, 165600, Note_on_c, 2, 43, 0
6, 165600, Note_on_c, 2, 43, 127
6, 166320, Note_on_c, 2, 41, 127
6, 166320, Note_on_c, 2, 43, 0
6, 167040, Note_on_c, 2, 41, 0
6, 167040, Note_on_c, 2, 48, 127
6, 168480, Note_on_c, 2, 48, 0
6, 168480, Note_on_c, 2, 53, 127
6, 169778, Control_c, 2, 11, 80
6, 169920, Note_on_c, 2, 46, 127
6, 169920, Note_on_c, 2, 53, 0
6, 171360, Note_on_c, 2, 46, 0
6, 171360, Note_on_c, 2, 53, 127
6, 172800, Note_on_c, 2, 52, 127
6, 172800, Note_on_c, 2, 53, 0
6, 174240, Note_on_c, 2, 45, 127
6, 174240, Note_on_c, 2, 52, 0
6, 175680, Note_on_c, 2, 45, 0
6, 175680, Note_on_c, 2, 50, 127
6, 176085, Control_c, 2, 11, 79
6, 177120, Note_on_c, 2, 48, 127
6, 177120, Note_on_c, 2, 50, 0
6, 178560, Note_on_c, 2, 46, 127
6, 178560, Note_on_c, 2, 48, 0
6, 180000, Note_on_c, 2, 45, 127
6, 180000, Note_on_c, 2, 46, 0
6, 180960, Note_on_c, 2, 45, 0
6, 180960, Note_on_c, 2, 45, 127
6, 181440, Note_on_c, 2, 38, 127
6, 181440, Note_on_c, 2, 45, 0
6, 182393, Control_c, 2, 11, 78
6, 182400, Note_on_c, 2, 38, 0
6, 182400, Note_on_c, 2, 45, 127
6, 182880, Note_on_c, 2, 45, 0
6, 182880, Note_on_c, 2, 50, 127
6, 183840, Note_on_c, 2, 45, 127
6, 183840, Note_on_c, 2, 50, 0
6, 184320, Note_on_c, 2, 38, 127
6, 184320, Note_on_c, 2, 45, 0
6, 185280, Note_on_c, 2, 38, 0
6, 185280, Note_on_c, 2, 45, 127
6, 185760, Note_on_c, 2, 45, 0
6, 185760, Note_on_c, 2, 50, 127
6, 186720, Note_on_c, 2, 45, 127
6, 186720, Note_on_c, 2, 50, 0
6, 187200, Note_on_c, 2, 45, 0
6, 188700, Control_c, 2, 11, 77
6, 188715, Control_c, 2, 11, 74
6, 188730, Control_c, 2, 11, 71
6, 188745, Control_c, 2, 11, 68
6, 188760, Control_c, 2, 11, 65
6, 188790, Control_c, 2, 11, 60
6, 188820, Control_c, 2, 11, 55
6, 188835, Control_c, 2, 11, 51
6, 188850, Control_c, 2, 11, 46
6, 188865, Control_c, 2, 11, 42
6, 188880, Control_c, 2, 11, 37
6, 188910, Control_c, 2, 11, 34
6, 188940, Control_c, 2, 11, 31
6, 188970, Control_c, 2, 11, 29
6, 189000, Control_c, 2, 11, 27
6, 189030, Control_c, 2, 11, 29
6, 189060, Control_c, 2, 11, 31
6, 189090, Control_c, 2, 11, 34
6, 189120, Control_c, 2, 11, 38
6, 189180, Control_c, 2, 11, 40
6, 189210, Control_c, 2, 11, 42
6, 189240, Control_c, 2, 11, 44
6, 189300, Control_c, 2, 11, 46
6, 189330, Control_c, 2, 11, 48
6, 189360, Control_c, 2, 11, 50
6, 189420, Control_c, 2, 11, 51
6, 189450, Control_c, 2, 11, 53
6, 189480, Control_c, 2, 11, 55
6, 189510, Control_c, 2, 11, 57
6, 189540, Control_c, 2, 11, 59
6, 189570, Control_c, 2, 11, 61
6, 189600, Control_c, 2, 11, 63
6, 189630, Control_c, 2, 11, 65
6, 189660, Control_c, 2, 11, 67
6, 189690, Control_c, 2, 11, 68
6, 189720, Control_c, 2, 11, 70
6, 189750, Control_c, 2, 11, 72
6, 189780, Control_c, 2, 11, 74
6, 189810, Control_c, 2, 11, 75
6, 189840, Control_c, 2, 11, 77
6, 189900, Control_c, 2, 11, 79
6, 189960, Control_c, 2, 11, 81
6, 190020, Control_c, 2, 11, 83
6, 190080, Control_c, 2, 11, 84
6, 190140, Control_c, 2, 11, 85
6, 190200, Control_c, 2, 11, 86
6, 190260, Control_c, 2, 11, 87
6, 190620, Control_c, 2, 11, 88
6, 190680, Control_c, 2, 11, 89
6, 190740, Control_c, 2, 11, 91
6, 190800, Control_c, 2, 11, 92
6, 190860, Control_c, 2, 11, 94
6, 191160, Control_c, 2, 11, 95
6, 191220, Control_c, 2, 11, 96
6, 191280, Control_c, 2, 11, 97
6, 191340, Control_c, 2, 11, 99
6, 191400, Control_c, 2, 11, 100
6, 191520, Note_on_c, 0, 38, 64
6, 191794, Control_c, 2, 11, 99
6, 192189, Control_c, 2, 11, 98
6, 192583, Control_c, 2, 11, 97
6, 192956, Note_off_c, 0, 38, 0
6, 192960, Note_on_c, 2, 40, 127
6, 192977, Control_c, 2, 11, 96
6, 193371, Control_c, 2, 11, 95
6, 193766, Control_c, 2, 11, 94
6, 194160, Control_c, 2, 11, 93
6, 194400, Note_on_c, 2, 40, 0
6, 194400, Note_on_c, 2, 45, 127
6, 194554, Control_c, 2, 11, 92
6, 194949, Control_c, 2, 11, 91
6, 195343, Control_c, 2, 11, 90
6, 195737, Control_c, 2, 11, 89
6, 195840, Note_on_c, 2, 45, 0
6, 195840, Note_on_c, 2, 45, 127
6, 196131, Control_c, 2, 11, 88
6, 196526, Control_c, 2, 11, 87
6, 196560, Note_on_c, 2, 43, 127
6, 196560, Note_on_c, 2, 45, 0
6, 196920, Control_c, 2, 11, 86
6, 197280, Note_on_c, 2, 38, 127
6, 197280, Note_on_c, 2, 43, 0
6, 197314, Control_c, 2, 11, 85
6, 197709, Control_c, 2, 11, 84
6, 198103, Control_c, 2, 11, 83
6, 198497, Control_c, 2, 11, 82
6, 198720, Note_on_c, 2, 38, 0
6, 198720, Note_on_c, 2, 43, 127
6, 198891, Control_c, 2, 11, 81
6, 199286, Control_c, 2, 11, 80
6, 199680, Control_c, 2, 11, 79
6, 200074, Control_c, 2, 11, 78
6, 200160, Note_on_c, 2, 36, 127
6, 200160, Note_on_c, 2, 43, 0
6, 200469, Control_c, 2, 11, 77
6, 200863, Control_c, 2, 11, 76
6, 201257, Control_c, 2, 11, 75
6, 201600, Note_on_c, 2, 36, 0
6, 201600, Note_on_c, 2, 48, 127
6, 201651, Control_c, 2, 11, 74
6, 202046, Control_c, 2, 11, 73
6, 202440, Control_c, 2, 11, 72
6, 202834, Control_c, 2, 11, 71
6, 203040, Note_on_c, 2, 42, 127
6, 203040, Note_on_c, 2, 48, 0
6, 203229, Control_c, 2, 11, 70
6, 203623, Control_c, 2, 11, 69
6, 204017, Control_c, 2, 11, 68
6, 204411, Control_c, 2, 11, 67
6, 204480, Note_on_c, 2, 42, 0
6, 204480, Note_on_c, 2, 47, 127
6, 204806, Control_c, 2, 11, 66
6, 205200, Control_c, 2, 11, 65
6, 205594, Control_c, 2, 11, 64
6, 205920, Note_on_c, 2, 40, 127
6, 205920, Note_on_c, 2, 47, 0
6, 205989, Control_c, 2, 11, 63
6, 206383, Control_c, 2, 11, 62
6, 206777, Control_c, 2, 11, 61
6, 207171, Control_c, 2, 11, 60
6, 207360, Note_on_c, 2, 38, 127
6, 207360, Note_on_c, 2, 40, 0
6, 207566, Control_c, 2, 11, 59
6, 207960, Control_c, 2, 11, 58
6, 208354, Control_c, 2, 11, 57
6, 208749, Control_c, 2, 11, 56
6, 208800, Note_on_c, 2, 38, 0
6, 208800, Note_on_c, 2, 48, 127
6, 209143, Control_c, 2, 11, 55
6, 209537, Control_c, 2, 11, 54
6, 209931, Control_c, 2, 11, 53
6, 210240, Note_on_c, 0, 47, 64
6, 210240, Note_on_c, 2, 48, 0
6, 210326, Control_c, 2, 11, 52
6, 210720, Control_c, 2, 11, 51
6, 210780, Control_c, 2, 11, 53
6, 210810, Control_c, 2, 11, 54
6, 210840, Control_c, 2, 11, 56
6, 210870, Control_c, 2, 11, 58
6, 210900, Control_c, 2, 11, 60
6, 210930, Control_c, 2, 11, 61
6, 210960, Control_c, 2, 11, 63
6, 210990, Control_c, 2, 11, 64
6, 211020, Control_c, 2, 11, 66
6, 211050, Control_c, 2, 11, 67
6, 211080, Control_c, 2, 11, 69
6, 211110, Control_c, 2, 11, 70
6, 211140, Control_c, 2, 11, 72
6, 211170, Control_c, 2, 11, 73
6, 211200, Control_c, 2, 11, 75
6, 211230, Control_c, 2, 11, 77
6, 211260, Control_c, 2, 11, 80
6, 211290, Control_c, 2, 11, 82
6, 211320, Control_c, 2, 11, 84
6, 211350, Control_c, 2, 11, 87
6, 211380, Control_c, 2, 11, 90
6, 211410, Control_c, 2, 11, 91
6, 211440, Control_c, 2, 11, 93
6, 211470, Control_c, 2, 11, 96
6, 211500, Control_c, 2, 11, 99
6, 211676, Note_off_c, 0, 47, 0
6, 211680, Note_on_c, 2, 40, 127
6, 212640, Note_on_c, 2, 40, 0
6, 212640, Note_on_c, 2, 47, 127
6, 213120, Note_on_c, 2, 40, 127
6, 213120, Note_on_c, 2, 47, 0
6, 214080, Note_on_c, 2, 40, 0
6, 214080, Note_on_c, 2, 47, 127
6, 214560, Note_on_c, 2, 40, 127
6, 214560, Note_on_c, 2, 47, 0
6, 215520, Note_on_c, 2, 40, 0
6, 215520, Note_on_c, 2, 47, 127
6, 216000, Note_on_c, 2, 40, 127
6, 216000, Note_on_c, 2, 47, 0
6, 216960, Note_on_c, 2, 40, 0
6, 216960, Note_on_c, 2, 47, 127
6, 217440, Note_on_c, 0, 45, 64
6, 217440, Note_on_c, 2, 47, 0
6, 218876, Note_off_c, 0, 45, 0
6, 218880, Note_on_c, 0, 47, 64
6, 220316, Note_off_c, 0, 47, 0
6, 220320, Note_on_c, 0, 47, 64
6, 221756, Note_off_c, 0, 47, 0
6, 221760, Note_on_c, 2, 52, 127
6, 222720, Note_on_c, 2, 47, 127
6, 222720, Note_on_c, 2, 52, 0
6, 223200, Note_on_c, 2, 40, 127
6, 223200, Note_on_c, 2, 47, 0
6, 224160, Note_on_c, 2, 40, 0
6, 224160, Note_on_c, 2, 47, 127
6, 224640, Note_on_c, 2, 47, 0
6, 224640, Note_on_c, 2, 52, 127
6, 225600, Note_on_c, 2, 45, 127
6, 225600, Note_on_c, 2, 52, 0
6, 226080, Note_on_c, 2, 40, 127
6, 226080, Note_on_c, 2, 45, 0
6, 227040, Note_on_c, 2, 40, 0
6, 227040, Note_on_c, 2, 45, 127
6, 227520, Note_on_c, 2, 40, 127
6, 227520, Note_on_c, 2, 45, 0
6, 228480, Note_on_c, 2, 40, 0
6, 228480, Note_on_c, 2, 47, 127
6, 228960, Note_on_c, 0, 52, 64
6, 228960, Note_on_c, 2, 47, 0
6, 229380, Control_c, 2, 11, 98
6, 229440, Control_c, 2, 11, 97
6, 229500, Control_c, 2, 11, 96
6, 229560, Control_c, 2, 11, 95
6, 229620, Control_c, 2, 11, 94
6, 229650, Control_c, 2, 11, 93
6, 229680, Control_c, 2, 11, 91
6, 229710, Control_c, 2, 11, 90
6, 229740, Control_c, 2, 11, 88
6, 229800, Control_c, 2, 11, 86
6, 229830, Control_c, 2, 11, 84
6, 229860, Control_c, 2, 11, 81
6, 229920, Control_c, 2, 11, 79
6, 229950, Control_c, 2, 11, 78
6, 229980, Control_c, 2, 11, 76
6, 230010, Control_c, 2, 11, 75
6, 230040, Control_c, 2, 11, 73
6, 230070, Control_c, 2, 11, 72
6, 230100, Control_c, 2, 11, 70
6, 230130, Control_c, 2, 11, 69
6, 230160, Control_c, 2, 11, 67
6, 230220, Control_c, 2, 11, 66
6, 230280, Control_c, 2, 11, 65
6, 230340, Control_c, 2, 11, 64
6, 230396, Note_off_c, 0, 52, 0
6, 230400, Control_c, 2, 11, 63
6, 230400, Note_on_c, 0, 40, 64
6, 230460, Control_c, 2, 11, 61
6, 230490, Control_c, 2, 11, 60
6, 230520, Control_c, 2, 11, 58
6, 230550, Control_c, 2, 11, 57
6, 230580, Control_c, 2, 11, 55
6, 230636, Note_off_c, 0, 40, 0
6, 230640, Control_c, 2, 11, 53
6, 230670, Control_c, 2, 11, 51
6, 230700, Control_c, 2, 11, 49
6, 230760, Control_c, 2, 11, 47
6, 230820, Control_c, 2, 11, 45
6, 230880, Control_c, 2, 11, 44
6, 230910, Control_c, 2, 11, 43
6, 230940, Control_c, 2, 11, 41
6, 231840, Control_c, 2, 7, 100
6, 231840, Control_c, 2, 10, 64
6, 231840, End_track
0, 0, End_of_file